<?xml version="1.0" encoding="utf-8"?>
<!-- Generator: Adobe Illustrator 27.5.0, SVG Export Plug-In . SVG Version: 6.00 Build 0)  -->
<svg version="1.1" xmlns="http://www.w3.org/2000/svg" xmlns:xlink="http://www.w3.org/1999/xlink" x="0px" y="0px"
	 viewBox="0 0 1122 1122" style="enable-background:new 0 0 1122 1122;" xml:space="preserve">
<g id="BG">
	<rect style="fill:#FFFFFF;" width="1122" height="1122"/>
</g>
<g id="Objects">
	<g>
		<path style="fill:none;" d="M315.819,914.516c0.118,0.441,0.21,0.737,0.21,0.737c0.902,0,7.665-0.753,13.065-1.351
			c-5.35-0.592-11.895-1.32-12.781-1.32C316.313,912.583,316.028,913.495,315.819,914.516z"/>
		<path style="fill:none;" d="M338.737,913.387c-0.124,0.207-0.385,0.429-0.703,0.628c0.186,0.143,0.335,0.292,0.419,0.433
			c0.345,0.576,1.265,0.46,7.016-0.345c0.45-0.063,0.898-0.135,1.345-0.211c-0.353-0.058-0.707-0.112-1.062-0.162
			C340.002,912.927,339.082,912.812,338.737,913.387z"/>
		<path style="fill:none;" d="M249.345,912.651l-0.213-1.276l-0.213-2.339l-11.692,0.213l0.213,2.126l2.126,1.063
			c0,0-1.033,1.436-4.303,1.484c3.046,0.124,4.019,1.476,4.019,1.476l-2.126,1.063l-0.212,2.126l11.692,0.213l0.213-2.338
			l0.213-1.276c0,0-2.126-0.638-1.488-1.063c0.15-0.1,0.326-0.187,0.537-0.263c-0.092-0.045-0.176-0.094-0.253-0.145
			C247.219,913.288,249.345,912.651,249.345,912.651z"/>
		<path style="fill:none;" d="M280.257,915.539c-0.091-0.413-0.082-0.829-0.015-1.231c0.027-0.822,0.137-1.69,0.42-2.417
			c0.785-2.018,0.587-2.291,0.576-3.049l-27.217,0.406l0.213,2.976l2.126,1.063c0,0-0.606,0.371-1.621,0.674
			c0.841,0.283,1.337,0.585,1.337,0.585l-2.126,1.063l-0.213,2.976l27.217,0.406c0.007-0.528,0.105-0.822-0.102-1.635
			c-0.145-0.057-0.291-0.114-0.421-0.175C280.432,917.182,280.31,916.487,280.257,915.539z"/>
		<path style="fill:none;" d="M387.332,912.033c-0.073,0.868-0.541,1.572-1.633,1.942c3.847,1.692-1.577,8.292-2.739,9.559
			c-1.265,1.38-3.451,1.266-5.982,1.955c-2.53,0.691-7.014,0.116-7.704,0.231c-0.69,0.114-2.645,1.38-3.105,1.495
			c-0.46,0.115-2.3,0.806-2.76,1.035c-0.46,0.231-1.725,0.92-3.91,2.76c-2.185,1.84-11.501,11.96-11.962,12.88
			c-0.46,0.92,0.69,2.76,0.69,2.76c3.219-1.495,26.106-6.21,27.487-5.061c1.294,1.079,3.7,9.737,5.7,14.701
			c0.556-4.579,0.922-7.485,1.015-8.012c0.637-3.614,0.213-3.189,1.701-5.528c1.488-2.339-0.213-2.126-0.425-5.315
			c-0.213-3.189-1.913-3.614-0.638-5.953c1.276-2.338,0.213-2.126,1.914-4.464c1.701-2.339,3.402-1.488,2.976-4.252
			c-0.425-2.764-1.488-3.402-0.638-4.677c0.85-1.276,0-2.551,0-2.551l0.85-1.276l0.65-0.487l-0.65-0.488L387.332,912.033z"/>
		<path style="fill:none;" d="M503.816,904.359c4.039-2.976,25.936-4.464,27.637-4.464c0.965,0,4.939-0.41,8.199-0.766
			c0.782-2.195,1.511-3.84,1.511-3.84s-2.41-0.425-2.268-1.276c0.142-0.851,0.708-3.119,1.843-5.245
			c1.134-2.126,2.976-4.818,6.236-10.912c1.005-1.88,1.93-4.127,2.828-6.519l-0.065-10.347h-16.37l-2.551-1.913l0.425-1.488
			l3.189-0.425l0.072-1.575l-26.49,0.475c-0.849,11.8-3.414,40.216-3.414,40.216l-2.693,0.85c0,0,0,1.56-0.142,2.693
			c-0.142,1.133,0.284,6.803,0.284,6.803s1.134,1.701,0.283,5.244c-0.191,0.797-0.486,1.414-0.823,1.904
			c0.337,0.49,0.632,1.107,0.823,1.904c0.85,3.544-0.283,5.244-0.283,5.244s-0.426,5.67-0.284,6.803
			c0.142,1.134,0.142,2.693,0.142,2.693l2.693,0.851c0,0,2.565,28.417,3.414,40.216l26.49,0.475l-0.072-1.575l-3.189-0.425
			l-0.425-1.488l2.551-1.913h16.37l0.065-10.347c-0.899-2.392-1.823-4.639-2.828-6.519c-3.26-6.094-5.101-8.786-6.236-10.912
			c-1.134-2.126-1.701-4.395-1.843-5.245c-0.142-0.851,2.268-1.276,2.268-1.276s-0.729-1.645-1.511-3.84
			c-3.26-0.355-7.234-0.766-8.199-0.766c-1.701,0-23.598-1.488-27.637-4.464c0,0-1.063-3.189-0.85-6.165l0.391-2.393l-0.391-4.109
			C502.754,907.548,503.816,904.359,503.816,904.359z"/>
		<path style="fill:none;" d="M674.04,918.09c2.551,0.425,7.866,8.929,7.866,8.929c0.613-0.817,1.029-9.092,1.061-9.735
			c-0.032-0.643-0.448-8.918-1.061-9.735c0,0-5.315,8.504-7.866,8.929c-2.551,0.425-5.315-1.276-5.315-1.276
			s-1.888,1.192-3.693,2.082c1.806,0.89,3.693,2.082,3.693,2.082S671.489,917.665,674.04,918.09z"/>
		<path style="fill:none;" d="M472.565,904.076c0.992-1.134,3.261-1.984,4.253-2.551c0.992-0.567,2.409-2.409,2.409-2.409
			c0.85-0.992,1.843-5.953,1.843-5.953c-0.708-0.142-2.693-0.568-2.693-0.568s0,0-0.283-4.393c-0.283-4.393,0.708-9.07,0-15.307
			c-0.708-6.237,2.126-8.362,0.708-11.905c-1.418-3.543-4.393-10.488-5.102-14.881c-0.709-4.394-0.141-5.243-0.708-8.787
			s-0.708-4.252-1.276-8.929c-0.567-4.677-0.425-5.953-0.85-9.921c-0.063-0.586-0.133-1.267-0.207-2
			c-2.651-12.139-4.91-27.585-6.035-47.037c-0.315,0.07-0.559,0.14-0.559,0.14s0.424,1.56-0.567,1.701
			c-0.991,0.141-8.504-1.417-10.062-2.835c-1.559-1.417-2.409-1.983-2.409-1.983s0.709,4.251,1.275,4.959
			c0.566,0.709,1.559,1.843,2.409,2.269c0.85,0.425,2.267,1.558,2.409,2.408c0.142,0.85-0.708,2.126-1.559,1.985
			c-0.85-0.141-3.969-2.692-4.819-3.401c-0.85-0.709-2.975-2.126-3.117-3.26c-0.142-1.133-0.709-8.504-0.567-9.07
			s-1.276-3.968-1.276-4.677c0-0.709-0.424-1.701,0.142-2.692c0.566-0.993,1.984-3.26,1.984-4.111l-1.129-2.807
			c-0.111,0.329-0.23,0.693-0.359,1.106c-1.063,3.401-0.85,3.827-1.913,5.953c-1.063,2.126-1.276,5.102-2.126,8.291
			c-0.85,3.189,0,6.59-0.213,9.354c-0.212,2.764-3.401,25.724-3.826,28.487c-0.425,2.764-1.914,12.33-3.827,15.944
			c-1.913,3.614-1.701-1.913-1.276,9.779c0.425,11.692-4.252,35.503-5.527,39.542c-1.275,4.039-4.252,7.653-4.889,10.204
			c-0.638,2.551,0.425,5.74,1.063,7.228c0.638,1.488,4.89,1.063,6.165,4.677c1.276,3.614-0.425,9.567-0.85,10.63
			c-0.425,1.063,7.653,4.889,12.543,7.015c4.89,2.126,11.693,0.85,13.819,1.488c2.126,0.638,1.063,4.039,1.701,4.252
			c0.47,0.156,0.822,1.115,0.976,1.613h0.087c0,0-0.017,0.064-0.042,0.15c0.025,0.086,0.042,0.15,0.042,0.15h-0.087
			c-0.154,0.497-0.507,1.456-0.976,1.613c-0.637,0.213,0.425,3.614-1.701,4.252c-2.126,0.638-8.929-0.638-13.819,1.488
			c-4.889,2.126-12.968,5.953-12.543,7.016c0.425,1.063,2.126,7.016,0.85,10.63c-1.275,3.614-5.527,3.189-6.165,4.677
			c-0.637,1.488-1.701,4.677-1.063,7.228c0.638,2.551,3.614,6.165,4.889,10.204c1.276,4.039,5.953,27.85,5.527,39.542
			c-0.425,11.692-0.638,6.165,1.276,9.779c1.913,3.614,3.401,13.181,3.827,15.944c0.425,2.764,3.614,25.724,3.826,28.487
			c0.213,2.764-0.637,6.165,0.213,9.354c0.85,3.189,1.063,6.165,2.126,8.291c1.063,2.126,0.85,2.551,1.913,5.953
			c0.129,0.413,0.248,0.777,0.359,1.106l1.129-2.807c0-0.85-1.418-3.117-1.984-4.111c-0.566-0.991-0.142-1.983-0.142-2.692
			c0-0.709,1.418-4.111,1.276-4.677c-0.142-0.567,0.425-7.937,0.567-9.07c0.142-1.134,2.267-2.551,3.117-3.26
			c0.85-0.709,3.969-3.26,4.819-3.401c0.85-0.141,1.701,1.134,1.559,1.985c-0.142,0.85-1.559,1.983-2.409,2.408
			c-0.85,0.425-1.843,1.56-2.409,2.269c-0.566,0.708-1.275,4.959-1.275,4.959s0.85-0.567,2.409-1.983
			c1.559-1.418,9.071-2.976,10.062-2.835c0.992,0.141,0.567,1.701,0.567,1.701s0.244,0.07,0.559,0.14
			c1.126-19.452,3.385-34.898,6.035-47.037c0.074-0.732,0.144-1.413,0.207-2c0.425-3.969,0.283-5.244,0.85-9.921
			c0.567-4.677,0.708-5.385,1.276-8.929c0.567-3.544-0.001-4.393,0.708-8.787c0.709-4.394,3.685-11.339,5.102-14.882
			c1.417-3.543-1.417-5.668-0.708-11.905c0.708-6.237-0.283-10.914,0-15.307c0.283-4.393,0.283-4.393,0.283-4.393
			s1.984-0.426,2.693-0.568c0,0-0.992-4.96-1.843-5.953c0,0-1.417-1.842-2.409-2.409c-0.992-0.567-3.261-1.418-4.253-2.551
			c-0.902-1.032-4.153-5.941-1.841-9.699C468.413,910.017,471.663,905.108,472.565,904.076z"/>
		<path style="fill:none;" d="M387.319,909.462c-0.85-1.276,0.213-1.913,0.638-4.677c0.425-2.764-1.276-1.913-2.976-4.252
			c-1.701-2.339-0.638-2.126-1.914-4.464c-1.275-2.339,0.425-2.764,0.638-5.953c0.213-3.189,1.914-2.976,0.425-5.315
			c-1.488-2.339-1.063-1.913-1.701-5.528c-0.088-0.497-0.418-3.11-0.922-7.247c-1.961,5.022-4.257,13.175-5.51,14.22
			c-1.38,1.149-24.267-3.566-27.487-5.061c0,0-1.15,1.84-0.69,2.76c0.46,0.92,9.777,11.04,11.962,12.88
			c2.185,1.84,3.45,2.53,3.91,2.76c0.46,0.229,2.301,0.92,2.76,1.035c0.46,0.115,2.415,1.38,3.105,1.495
			c0.69,0.115,5.174-0.46,7.704,0.231c2.53,0.689,4.717,0.575,5.982,1.955c0.888,0.969,4.267,5.056,4.092,7.684
			C387.423,911.845,388.118,910.661,387.319,909.462z"/>
		<path style="fill:none;" d="M785.573,916.765l-0.135,6.214c0,0,84.612,0.851,86.312,0.213c1.701-0.638,1.063-2.339,1.063-2.339
			l1.488-0.425l-0.212-1.488c0,0-4.677-0.213-3.827-0.638c0.722-0.361,2.216-0.872,4.083-1.019c-1.866-0.147-3.36-0.658-4.083-1.019
			c-0.851-0.425,3.827-0.638,3.827-0.638l0.212-1.488l-1.488-0.425c0,0,0.638-1.701-1.063-2.338
			c-1.701-0.638-86.312,0.213-86.312,0.213l0.213,2.338l2.339,1.276l-0.567,0.155l0.489,0.134L785.573,916.765z"/>
		<path style="fill:none;" d="M605.223,914.351c0-0.851,6.59-2.551,6.59-2.551s0,0,0-1.913c0-1.913-1.701-2.339-1.701-2.339
			s-4.732-0.01-12.147-0.026c0.375,2.151-0.82,3.357-0.82,3.357c-1.842,3.544-27.07,2.409-41.951,2.409
			c-14.813,0-17.407-1.545-17.432-5.893c-16.248-0.033-28.896-0.06-29.269-0.06c-0.932,0-1.047,5.883-1.061,7.333
			c0.014,1.093,0.128,5.547,1.061,5.547c0.373,0,13.02-0.027,29.269-0.06c0.024-4.347,2.619-5.893,17.432-5.893
			c14.881,0,40.109-1.134,41.951,2.409c0,0,1.195,1.206,0.82,3.357c7.415-0.016,12.147-0.026,12.147-0.026s2.127,0.801,2.127-1.112
			c0-1.913,0-1.913,0-1.913s-6.042,0.188-6.558-2.105C605.387,914.704,605.223,914.528,605.223,914.351z"/>
		<path style="fill:none;" d="M782.568,915.327c-0.83-0.501-0.319-1.189-0.319-1.189l1.701-0.213l-0.212-1.913h-2.551l0.638,3.614
			l0.338,0.026C782.246,915.54,782.378,915.43,782.568,915.327z"/>
		<path style="fill:none;" d="M690.834,933.822c0-2.338-5.818-18.616-5.818-18.616l0.086-0.022
			c0.174-0.367,5.732-12.137,5.732-14.439c0,0-3.189,0.638-4.889,2.764l-1.063,13.181l-0.251,0.084l1.314,14.285
			C687.646,933.184,690.834,933.822,690.834,933.822z"/>
		<path style="fill:none;" d="M783.932,915.732l-0.036,0.054l0.639,0.049l-0.001-0.04
			C784.315,915.779,784.114,915.758,783.932,915.732z"/>
		<path style="fill:none;" d="M784.588,917.877l-0.027-1.035c-0.044,0.159-0.155,0.307-0.32,0.444
			C784.456,917.465,784.588,917.661,784.588,917.877z"/>
		<path style="fill:none;" d="M694.513,917.544l0.574,5.86l82.699-0.425c0,0,0.425-0.425,0.638-1.063
			c0.213-0.638,0.213-2.976,0.213-2.976s-3.614-0.425-3.401-1.063c0.059-0.176,0.257-0.384,0.543-0.594
			c-0.287-0.21-0.485-0.418-0.543-0.594c-0.213-0.638,3.401-1.063,3.401-1.063s0-2.339-0.213-2.976
			c-0.213-0.638-0.638-1.063-0.638-1.063l-82.699-0.425l-0.213,2.764c1.063,0,2.126,1.063,2.126,1.063s-0.609,0.445-1.712,0.81
			c0.873,0.333,1.351,0.683,1.351,0.683S695.576,917.544,694.513,917.544z"/>
		<path style="fill:none;" d="M690.048,917.332l-1.276-1.063c0,0,0.072-0.346,0.686-0.644c-0.284-0.225-0.325-0.423-0.325-0.423
			l1.276-1.063l0.213-4.464l0.039-0.077l-3.71,5.787l3.669,9.479L690.048,917.332z"/>
		<path style="fill:none;" d="M781.186,922.554h2.551l0.116-5.012c-0.382,0.204-0.886,0.374-1.445,0.507l-0.585,0.891
			L781.186,922.554z"/>
		<path style="fill:none;" d="M470.546,732.16c1.595-4.358,6.059-8.291,6.909-8.397c0.85-0.106,3.332-2.87,4.182-2.657
			c0.85,0.213,1.276-0.85,1.276-0.85c0.797-0.558,1.753-1.744,2.727-3.126c-0.464-0.204-0.808-0.379-0.954-0.489
			c-0.85-0.638-1.701-4.252-1.914-5.102c-0.213-0.85-1.275-8.716-1.275-8.716c0.047-0.039,0.098-0.071,0.146-0.11
			c-0.397-0.086-0.779-0.189-1.138-0.316c0,0,0.08-0.049,0.221-0.126c-0.278-0.151-0.458-0.322-0.505-0.512
			c-0.425-1.701,0.213-1.913,0-4.677c-0.213-2.764,0.425-4.89-0.638-7.866c-1.063-2.976,0-1.488-0.213-3.614
			c-0.212-2.126,0.213-5.953-1.275-8.078c-1.488-2.126-0.85-8.504-2.126-10.842c-0.427-0.783-0.637-1.255-0.771-1.666
			c-0.258-0.447-0.495-1.571-0.712-2.925c-0.027-0.094-0.057-0.193-0.087-0.295c0.155,1.247,0.303,2.457,0.437,3.61
			c0.991,8.504,2.41,36.141,1.985,39.542c-0.425,3.401-2.551,10.346-2.551,10.346c-0.567-1.133-7.653-11.622-7.653-11.622v-11.196
			l-1.418-1.56c0,0-0.141-9.07,0.284-14.172c0.373-4.469-0.887-23.511-1.586-31.31c-1.658,1.68-3.15,3.321-3.446,3.814
			c-0.638,1.063,0,3.614-1.063,5.74c-1.063,2.126-0.425,3.189-1.063,5.102c-0.638,1.913-1.488,7.653-2.126,8.929
			c-0.638,1.276-2.338,1.276-3.614,2.551c-0.346,0.347-0.501,0.998-0.543,1.792c0.113,0.041,0.228,0.082,0.33,0.121
			c4.465,1.701,3.614,4.464,2.976,8.291c-0.222,1.333-0.679,3.159-1.231,5.104c0.148,0.712,0.282,1.37,0.38,1.912
			c0.425,2.339,0.213,3.614,0.213,4.464c0,0.85-0.213,6.165,0.213,7.654c0.425,1.488,1.276,2.551,1.063,5.102
			c-0.213,2.551,0.85,5.74,1.275,7.866c0.425,2.126,0.638,1.701,0.213,3.827c-0.425,2.126,3.401,15.519,3.401,15.519
			c-0.161,0.124-0.325,0.241-0.488,0.36c0.449,1.291,1.814,5.149,2.402,6.09c0.708,1.133,1.7,2.551,1.984,3.543
			c0.284,0.992-0.849,0.425,0.284,0.992c1.134,0.568,4.959,1.275,6.094,1.701c0.065,0.024,0.129,0.044,0.192,0.062
			C469.225,742.032,469.244,735.718,470.546,732.16z"/>
		<path style="fill:none;" d="M352.948,1080.936c-0.171-0.028-0.364-0.094-0.568-0.176c-3.561-0.65-5.306-3.259-5.527-3.686
			c-0.85-0.213-3.614-0.638-4.146-0.213c-0.531,0.425-4.783,3.72-4.783,3.72s0.957,0.106,2.02,1.382
			c1.063,1.276,0.744,3.614-0.531,2.976c-0.78,1.028,1.63,3.933,2.622,5.775c0.991,1.843,4.961,13.606,4.961,13.606
			c1.276-2.692,12.046-18.141,11.763-18.849c-0.283-0.709-0.567-1.701-1.275-2.268
			C356.775,1082.636,354.649,1081.219,352.948,1080.936z"/>
		<path style="fill:none;" d="M316.988,1109.583c0.019,0.142,0.037,0.283,0.055,0.434c-0.013-0.164-0.025-0.327-0.039-0.497
			C317,1109.542,316.994,1109.561,316.988,1109.583z"/>
		<path style="fill:none;" d="M330.554,961.176c0-1.134-0.141-1.276-0.566-2.269c-0.425-0.991-11.905-15.023-13.323-15.732
			c0,0-2.269,0.709-2.835,0.709c-0.567,0-1.417-1.276-1.842-1.276c-0.425,0-1.134,1.559-1.559,2.692
			c-0.169,0.45-0.425,0.858-0.658,1.299l0.091,20.244h7.866v-2.126h2.338v1.913h4.039l5.74,1.701l0.425,1.701l1.009,1.311
			c1.549-0.019,3.079-0.037,4.595-0.054c-0.778-1.672-1.688-3.155-1.777-3.596C333.956,966.986,330.554,962.31,330.554,961.176z"/>
		<path style="fill:none;" d="M312.272,885.226c0.425,0,1.276-1.276,1.842-1.276c0.567,0,2.835,0.709,2.835,0.709
			c1.418-0.709,12.897-14.741,13.323-15.732c0.425-0.992,0.566-1.134,0.566-2.269c0-1.134,3.402-5.81,3.544-6.519
			c0.089-0.441,0.999-1.924,1.777-3.596c-1.516-0.017-3.046-0.035-4.595-0.054l-1.008,1.311l-0.425,1.701l-5.74,1.701h-4.039v1.913
			h-2.338v-2.126h-7.866l-0.091,20.245c0.233,0.441,0.489,0.849,0.658,1.299C311.138,883.667,311.847,885.226,312.272,885.226z"/>
		<path style="fill:none;" d="M317.327,717.818c-0.018,0.151-0.036,0.292-0.055,0.434c0.005,0.022,0.011,0.041,0.017,0.062
			C317.302,718.145,317.315,717.983,317.327,717.818z"/>
		<path style="fill:none;" d="M613.37,1058.386l-0.321,7.177c1.275-0.466,2.661-0.869,3.442-0.713
			c1.417,0.283,3.401,2.763,4.323,3.471c0.074,0.057,0.184,0.174,0.31,0.316c-1.038-5.424-1.62-10.815-1.804-12.672
			C616.422,1057.066,614.585,1057.718,613.37,1058.386z"/>
		<path style="fill:none;" d="M628.325,853.904l-24.684,0.443c-0.824,1.8-1.496,3.358-1.819,4.234
			c-0.991,2.693-2.551,6.378-3.969,9.496c-1.417,3.118-12.472,22.96-13.606,24.944c-1.134,1.984-1.984,3.401-1.984,3.401
			s-1.275-0.283-1.701-0.142c-0.409,0.135-1.07,1.06,0.884,3.391c9.556,1.15,30.849,3.064,32.068,3.412
			c1.488,0.425,2.338,2.126,2.338,2.126l1.063,6.803c5.102,0.213,4.889,2.551,4.889,2.551s-0.073,0.045-0.211,0.116
			c0.001,0.3-0.169,2.314-4.891,2.51l-0.851,5.151c0,0-0.85,1.701-2.338,2.126c-1.218,0.348-22.512,2.262-32.068,3.412
			c-1.954,2.33-1.292,3.255-0.884,3.391c0.425,0.141,1.701-0.142,1.701-0.142s0.851,1.417,1.984,3.401
			c1.133,1.984,12.188,21.826,13.606,24.944c1.418,3.118,2.977,6.803,3.969,9.496c0.323,0.877,0.995,2.435,1.819,4.234l24.684,0.443
			c3.685,0.566,9.355,3.401,10.489,10.771c0.452,2.935,1.488,18.064,2.464,35.416c8.267-13.217,21.07-29.483,21.07-30.527
			c0-1.275,1.063-5.102-0.638-10.629c-1.701-5.528-5.315-22.322-5.315-25.936c0-3.614-6.59-14.881-7.653-15.732
			c-1.063-0.85-4.677-5.74-10.417-6.378c-5.74-0.638-3.826-7.228-3.826-7.228c1.414-2.934,3.735-4.87,6.454-6.121
			c-2.719-1.251-5.04-3.188-6.454-6.121c0,0-1.914-6.59,3.826-7.228c5.74-0.638,9.354-5.527,10.417-6.378
			c1.063-0.85,7.653-12.118,7.653-15.732c0-3.614,3.614-20.409,5.315-25.936c1.701-5.527,0.638-9.354,0.638-10.63
			c0-1.059-13.191-17.803-21.44-31.122c-0.858,14.543-1.7,26.43-2.094,28.997C637.68,850.502,632.01,853.337,628.325,853.904z"/>
		<path style="fill:none;" d="M319.497,677.21c0.373-1.629,0.72-3.074,0.964-4.096C320.209,673.988,319.862,675.457,319.497,677.21z
			"/>
		<path style="fill:none;" d="M747.597,861.203l0.213-1.913l7.016-0.638l3.827-0.425c0.638-1.063,1.701-2.338,1.488-2.976
			c-0.003-0.007-0.008-0.018-0.011-0.026c-3.193,0.153-5.396,0.239-6.301,0.239c-6.673,0-45.263,0.58-61.36-0.417
			c1.719,3.172,3.275,6.045,4.107,7.432c1.913,3.189,3.614,8.291,6.165,9.992c2.551,1.701,4.889,1.701,5.74,2.764
			c0.851,1.063,2.339,6.378,1.488,10.204c-0.85,3.827-1.488,5.528-5.102,7.441c0,0-7.568,6.978-12.294,13.791
			c6.529-0.39,81.637-4.862,82.45-4.862c0.85,0,1.488-1.276,1.488-1.276l-0.213-40.605L747.597,861.203z"/>
		<path style="fill:none;" d="M775.021,932.759c-0.813,0-75.921-4.473-82.45-4.862c4.727,6.813,12.294,13.791,12.294,13.791
			c3.614,1.913,4.252,3.614,5.102,7.441c0.851,3.827-0.637,9.142-1.488,10.205c-0.85,1.063-3.189,1.063-5.74,2.764
			c-2.551,1.701-4.252,6.803-6.165,9.992c-0.831,1.387-2.388,4.26-4.107,7.432c16.097-0.997,54.686-0.417,61.36-0.417
			c0.905,0,3.108,0.086,6.301,0.239c0.003-0.008,0.008-0.019,0.011-0.026c0.213-0.638-0.85-1.914-1.488-2.977l-3.827-0.425
			l-7.016-0.638l-0.213-1.913l28.7,1.275l0.213-40.605C776.509,934.034,775.871,932.759,775.021,932.759z"/>
		<path style="fill:none;" d="M619.32,771.586c0.183-1.857,0.766-7.248,1.804-12.672c-0.125,0.142-0.236,0.259-0.31,0.316
			c-0.921,0.708-2.906,3.189-4.323,3.471c-0.781,0.156-2.167-0.248-3.442-0.713l0.321,7.177
			C614.585,769.833,616.422,770.485,619.32,771.586z"/>
		<path style="fill:none;" d="M643.091,769.376c4.761-1.742,10.115-1.075,10.115-1.075s1.275-9.567,10.842-11.905
			c6.794-1.661,13.055-3.641,22.356-3.813c-0.033-0.004-0.079-0.009-0.103-0.013c-0.85-0.142,0.567-1.559,2.551-2.834
			c1.984-1.276,4.677-1.701,5.385-1.559c0.708,0.141,1.701-0.992,2.693-2.268c0.164-0.212,0.352-0.421,0.547-0.628
			c0.138-1.309,0.22-2.706,0.302-3.199c0.142-0.85-0.141-0.142-2.834-1.417c-2.693-1.276-11.906-7.369-12.756-10.771
			c-0.85-3.401-2.127-9.355-2.268-13.464c-0.141-4.11,1.134-5.812,0.142-7.654c-0.376-0.699-0.712-1.111-1.014-1.432
			c-0.229,0.754-1.274,2.215-1.962,3.133c-0.85,1.135-8.504,11.196-12.756,15.307c-4.252,4.111-9.071,10.772-12.33,14.74
			c-3.259,3.968-4.818,7.654-7.936,8.22c-0.274,0.05-0.555,0.103-0.837,0.156C643.557,751.364,643.446,759.194,643.091,769.376z"/>
		<path style="fill:none;" d="M472.781,644.997c0.604-2.015,0.065-0.217,0.368-1.469c-0.163-0.508-0.382-0.963-0.581-1.295
			c-0.077-0.129-0.138-0.299-0.185-0.497c-0.036-0.02-0.07-0.041-0.107-0.06c0.075,1.34,0.175,2.729,0.299,4.155
			C472.631,645.552,472.698,645.274,472.781,644.997z"/>
		<path style="fill:none;" d="M347.137,750.761c0.221-0.427,1.966-3.036,5.527-3.685c0.203-0.082,0.397-0.148,0.568-0.176
			c1.701-0.284,3.827-1.701,4.535-2.268c0.708-0.567,0.992-1.56,1.275-2.268c0.283-0.708-10.487-16.157-11.763-18.849
			c0,0-3.969,11.763-4.961,13.606c-0.992,1.842-3.402,4.747-2.622,5.775c1.275-0.638,1.594,1.701,0.531,2.976
			c-1.063,1.275-2.02,1.382-2.02,1.382s4.252,3.295,4.783,3.72C343.523,751.399,346.286,750.974,347.137,750.761z"/>
		<path style="fill:none;" d="M322.298,660.784c-0.126-0.047-0.239-0.078-0.337-0.093l-0.248,1.917
			c0.048-0.247,0.087-0.429,0.116-0.511C321.958,661.714,322.09,661.224,322.298,660.784z"/>
		<linearGradient id="SVGID_1_" gradientUnits="userSpaceOnUse" x1="472.3077" y1="1111.0511" x2="472.3077" y2="0.7925">
			<stop  offset="0" style="stop-color:#FFFFFF"/>
			<stop  offset="1" style="stop-color:#000000"/>
		</linearGradient>
		<path style="fill:url(#SVGID_1_);" d="M474.27,1112.257c-0.415,0.83-4.323,6.672-6.388,9.743h8.851
			C476.164,1118.446,474.27,1112.257,474.27,1112.257z"/>
		
			<linearGradient id="SVGID_00000086666025685183601100000010782048870656112803_" gradientUnits="userSpaceOnUse" x1="422.8393" y1="1111.0511" x2="422.8393" y2="0.7872">
			<stop  offset="0" style="stop-color:#FFFFFF"/>
			<stop  offset="1" style="stop-color:#000000"/>
		</linearGradient>
		<path style="fill:url(#SVGID_00000086666025685183601100000010782048870656112803_);" d="M464.488,1079.66
			c-0.815-0.33-0.284-12.756-0.284-12.756c0.114-3.017,0.255-5.945,0.42-8.789c-0.315-0.07-0.559-0.14-0.559-0.14
			s0.424-1.56-0.567-1.701c-0.991-0.141-8.504,1.417-10.062,2.835c-1.559,1.417-2.409,1.983-2.409,1.983s0.709-4.251,1.275-4.959
			c0.566-0.709,1.559-1.844,2.409-2.269c0.85-0.425,2.267-1.558,2.409-2.408c0.142-0.85-0.708-2.126-1.559-1.985
			c-0.85,0.141-3.969,2.692-4.819,3.401c-0.85,0.709-2.975,2.126-3.117,3.26c-0.142,1.133-0.709,8.504-0.567,9.07
			c0.142,0.566-1.276,3.968-1.276,4.677c0,0.709-0.424,1.701,0.142,2.692c0.566,0.994,1.984,3.26,1.984,4.111l-1.129,2.807
			c-0.111-0.329-0.23-0.693-0.359-1.106c-1.063-3.401-0.85-3.827-1.913-5.953c-1.063-2.126-1.276-5.103-2.126-8.291
			c-0.85-3.189,0-6.59-0.213-9.354c-0.212-2.764-3.401-25.723-3.826-28.487c-0.425-2.764-1.914-12.33-3.827-15.944
			c-1.913-3.614-1.701,1.913-1.276-9.779c0.425-11.693-4.252-35.503-5.527-39.542c-1.275-4.039-4.252-7.653-4.889-10.204
			c-0.638-2.551,0.425-5.74,1.063-7.228c0.638-1.488,4.89-1.063,6.165-4.677c1.276-3.614-0.425-9.567-0.85-10.63
			c-0.425-1.063,7.653-4.89,12.543-7.016c4.89-2.126,11.693-0.85,13.819-1.488c2.126-0.638,1.063-4.039,1.701-4.252
			c0.47-0.156,0.822-1.115,0.976-1.613H389.02l-0.201-0.15l-0.65,0.487l-0.85,1.276c0,0,0.85,1.275,0,2.551
			c-0.85,1.276,0.213,1.913,0.638,4.677c0.425,2.764-1.276,1.913-2.976,4.252c-1.701,2.338-0.638,2.126-1.914,4.464
			c-1.275,2.338,0.425,2.764,0.638,5.953c0.213,3.189,1.914,2.976,0.425,5.315c-1.488,2.339-1.063,1.914-1.701,5.528
			c-0.093,0.527-0.459,3.434-1.015,8.012c0.133,0.331,0.265,0.645,0.394,0.94c0.827,1.885,2.538,7.984,4.396,14.865
			c5.152,0.86,11.692,1.983,14.788,5.521c24.658,28.186,30.506,69.891,11.338,98.643c-2.767,4.151-12.289,4.925-19.101,4.764
			c0.078,0.637,0.095,1.381-0.033,2.022c-0.229,1.149-0.23,4.37-0.69,5.865c-0.46,1.495-0.115,5.29-0.69,6.21
			c-0.575,0.92-1.496,5.061-2.415,5.75c-0.919,0.691-2.876,1.495-3.336,2.071c-0.46,0.575-0.92,2.07-1.725,3.219
			c-0.805,1.15-2.186,3.336-2.53,3.911c-0.345,0.575-0.806,2.53-1.38,3.68c-0.575,1.15-1.496,3.335-2.645,4.371
			c-1.15,1.035-1.84,0.344-2.645,1.84c-0.38,0.705-0.785,1.406-1.204,2.039h82.066c-0.005-0.152-0.003-0.295-0.017-0.459
			c-0.213-2.551,0.85-5.74,1.275-7.866c0.425-2.126,0.638-1.701,0.213-3.826c-0.425-2.126,3.401-15.519,3.401-15.519
			c-0.161-0.124-0.325-0.241-0.488-0.36c0.449-1.291,1.814-5.149,2.402-6.09c0.708-1.133,1.7-2.551,1.984-3.542
			c0.284-0.992-0.849-0.425,0.284-0.992c1.134-0.568,4.959-1.275,6.094-1.701c0.065-0.024,0.129-0.044,0.192-0.061
			c0.126-0.234,0.257-0.463,0.398-0.679C468.311,1080.552,465.606,1080.113,464.488,1079.66z"/>
		
			<linearGradient id="SVGID_00000140002690315054269870000003628157149168111534_" gradientUnits="userSpaceOnUse" x1="458.2813" y1="1111.0024" x2="458.2813" y2="1.0128">
			<stop  offset="0" style="stop-color:#FFFFFF"/>
			<stop  offset="1" style="stop-color:#000000"/>
		</linearGradient>
		<path style="fill:url(#SVGID_00000140002690315054269870000003628157149168111534_);" d="M458.238,913.626
			c0.019,0.061,0.032,0.106,0.045,0.15c0.025-0.086,0.042-0.15,0.042-0.15H458.238z"/>
		
			<linearGradient id="SVGID_00000031177105214857600520000018134357327418745781_" gradientUnits="userSpaceOnUse" x1="487.2014" y1="1111.0511" x2="487.2014" y2="0.7848">
			<stop  offset="0" style="stop-color:#FFFFFF"/>
			<stop  offset="1" style="stop-color:#000000"/>
		</linearGradient>
		<path style="fill:url(#SVGID_00000031177105214857600520000018134357327418745781_);" d="M485.64,1110.422
			c-0.464,0.204-0.808,0.379-0.954,0.489c-0.85,0.638-1.701,4.252-1.914,5.102c-0.129,0.517-0.573,3.628-0.901,5.987h10.659
			c-1.005-2.213-1.799-4.068-2.533-5.03C488.935,1115.575,487.263,1112.726,485.64,1110.422z"/>
		
			<linearGradient id="SVGID_00000083790144986956881870000000662695864741340294_" gradientUnits="userSpaceOnUse" x1="300.3934" y1="1111.3579" x2="300.3934" y2="1.2982">
			<stop  offset="0" style="stop-color:#FFFFFF"/>
			<stop  offset="1" style="stop-color:#000000"/>
		</linearGradient>
		<path style="fill:url(#SVGID_00000083790144986956881870000000662695864741340294_);" d="M381.415,956.29
			c-2.001-4.963-4.407-13.622-5.7-14.701c-1.38-1.149-24.267,3.566-27.487,5.061c0,0-1.15-1.84-0.69-2.76
			c0.46-0.92,9.777-11.04,11.962-12.88c2.185-1.84,3.45-2.529,3.91-2.76c0.46-0.229,2.301-0.92,2.76-1.035
			c0.46-0.115,2.415-1.38,3.105-1.495c0.69-0.115,5.174,0.46,7.704-0.231c2.53-0.689,4.717-0.575,5.982-1.955
			c1.161-1.268,6.585-7.867,2.739-9.559c-0.279,0.094-0.596,0.169-0.961,0.217c-6.096,0.806-17.366,1.841-22.54,2.07
			c-4.855,0.216-10.015-1.492-15.384-2.369c-0.447,0.076-0.895,0.147-1.345,0.211c-5.751,0.805-6.671,0.92-7.016,0.345
			c-0.085-0.141-0.233-0.29-0.419-0.433c-0.564,0.354-1.313,0.637-1.827,0.637c-0.328,0-3.438-0.343-7.113-0.75
			c-5.4,0.598-12.162,1.351-13.065,1.351c0,0-0.092-0.296-0.21-0.737c-0.088,0.429-0.163,0.878-0.197,1.286
			c-0.115,1.38,0.46,3.336-4.485,3.221c-4.831-0.113-24.142,0.761-30.285-1.665c0.207,0.813,0.109,1.107,0.102,1.635l-27.217-0.406
			l0.213-2.976l2.126-1.063c0,0-0.497-0.302-1.337-0.585c-0.7,0.21-1.589,0.389-2.631,0.389c-2.242,0-3.334-0.164-3.999-0.493
			c-0.21,0.076-0.387,0.164-0.537,0.263c-0.638,0.425,1.488,1.063,1.488,1.063l-0.213,1.276l-0.213,2.338l-11.692-0.213l0.212-2.126
			l2.126-1.063c0,0-0.974-1.352-4.019-1.476c-0.055,0.001-0.105,0.004-0.162,0.004c-0.174,0-0.331-0.005-0.486-0.012
			c-3.171,0.052-2.774,1.271-2.774,1.271l1.063,0.425l0.213,1.063c0,5.527,2.976,6.803,2.976,6.803l49.214,3.956
			c0.939,1.156,1.739,2.246,1.856,2.771c0.23,1.036-1.15,3.91-0.92,5.98c0.23,2.07,0.115,2.99,0.115,2.99s-6.326,0.691-10.581,5.406
			c-4.254,4.715-2.3,15.41-3.105,17.71c-0.359,1.026-0.855,5.344-1.324,9.987c-11.634,0.214-21.737,0.422-28.736,0.586
			c-7.588-0.397-19.535-1.078-21.264,0.219c-1.016,0.763-1.121,20.225-0.928,41.717c-3.732,27.681-5.518,62.031-6.239,79.582
			c-0.372,2.638-0.629,5.758-0.3,7.978c-0.076,2.263-0.11,3.522-0.11,3.522c0.046,2.001,1.203,3.645,3.234,4.984
			c0.021,0.113,0.045,0.234,0.061,0.33c0.213,1.276,0.425,4.039,1.488,5.102c0.796,0.797,1.473,3.621,2.121,5.703H361.1
			c1.483-15.619,6.907-43.184,7.085-48.718C368.367,1067.653,378.163,983.097,381.415,956.29z M316.988,1109.583
			c0.006-0.022,0.011-0.041,0.017-0.062c0.013,0.169,0.026,0.332,0.039,0.497C317.026,1109.866,317.007,1109.725,316.988,1109.583z
			 M331.28,971.345l-1.009-1.311l-0.425-1.701l-5.74-1.701h-4.039v-1.913h-2.338v2.126h-7.866l-0.091-20.244
			c0.233-0.441,0.489-0.849,0.658-1.299c0.425-1.134,1.134-2.692,1.559-2.692c0.425,0,1.276,1.276,1.842,1.276
			c0.566,0,2.835-0.709,2.835-0.709c1.418,0.709,12.897,14.74,13.323,15.732c0.425,0.993,0.566,1.135,0.566,2.269
			c0,1.133,3.402,5.81,3.544,6.519c0.089,0.441,0.999,1.924,1.777,3.596C334.359,971.308,332.829,971.326,331.28,971.345z
			 M346.995,1104.321c0,0-3.969-11.763-4.961-13.606c-0.992-1.842-3.401-4.747-2.622-5.775c1.275,0.638,1.594-1.701,0.531-2.976
			c-1.063-1.275-2.02-1.382-2.02-1.382s4.252-3.295,4.783-3.72c0.531-0.425,3.295,0,4.146,0.213
			c0.221,0.427,1.966,3.036,5.527,3.686c0.203,0.082,0.396,0.148,0.568,0.176c1.701,0.284,3.827,1.701,4.535,2.268
			c0.708,0.567,0.992,1.56,1.275,2.268C359.042,1086.18,348.271,1101.628,346.995,1104.321z"/>
		
			<linearGradient id="SVGID_00000162337772942440573400000009290000634356831653_" gradientUnits="userSpaceOnUse" x1="280.224" y1="1111.3557" x2="280.224" y2="1.3085">
			<stop  offset="0" style="stop-color:#FFFFFF"/>
			<stop  offset="1" style="stop-color:#000000"/>
		</linearGradient>
		<path style="fill:url(#SVGID_00000162337772942440573400000009290000634356831653_);" d="M280.257,915.539
			c-0.021-0.379-0.029-0.797-0.015-1.231C280.175,914.71,280.167,915.126,280.257,915.539z"/>
		
			<linearGradient id="SVGID_00000035506481800388470720000001727252744625598648_" gradientUnits="userSpaceOnUse" x1="392.4117" y1="1111.051" x2="392.4117" y2="0.7868">
			<stop  offset="0" style="stop-color:#FFFFFF"/>
			<stop  offset="1" style="stop-color:#000000"/>
		</linearGradient>
		<path style="fill:url(#SVGID_00000035506481800388470720000001727252744625598648_);" d="M377.786,1118.121
			c1.149-1.036,2.07-3.22,2.645-4.371c0.575-1.15,1.036-3.105,1.38-3.68c0.345-0.574,1.726-2.76,2.53-3.911
			c0.805-1.15,1.265-2.645,1.725-3.219c0.46-0.576,2.417-1.38,3.336-2.071c0.919-0.689,1.84-4.83,2.415-5.75
			c0.575-0.92,0.23-4.715,0.69-6.21c0.46-1.495,0.461-4.716,0.69-5.865c0.128-0.641,0.111-1.385,0.033-2.022
			c6.813,0.161,16.334-0.613,19.101-4.764c19.168-28.751,13.32-70.457-11.338-98.643c-3.096-3.538-9.636-4.66-14.788-5.521
			c-1.858-6.881-3.569-12.98-4.396-14.865c-0.129-0.294-0.261-0.609-0.394-0.94c-3.252,26.807-13.048,111.363-13.229,116.992
			c-0.178,5.534-5.602,33.099-7.085,48.718h12.837c0.419-0.633,0.824-1.334,1.204-2.039
			C375.945,1118.465,376.636,1119.156,377.786,1118.121z"/>
		
			<linearGradient id="SVGID_00000076561201589830913830000004656562651037515446_" gradientUnits="userSpaceOnUse" x1="392.4117" y1="1111.3579" x2="392.4117" y2="1.2975">
			<stop  offset="0" style="stop-color:#FFFFFF"/>
			<stop  offset="1" style="stop-color:#000000"/>
		</linearGradient>
		<path style="fill:url(#SVGID_00000076561201589830913830000004656562651037515446_);" d="M377.786,1118.121
			c1.149-1.036,2.07-3.22,2.645-4.371c0.575-1.15,1.036-3.105,1.38-3.68c0.345-0.574,1.726-2.76,2.53-3.911
			c0.805-1.15,1.265-2.645,1.725-3.219c0.46-0.576,2.417-1.38,3.336-2.071c0.919-0.689,1.84-4.83,2.415-5.75
			c0.575-0.92,0.23-4.715,0.69-6.21c0.46-1.495,0.461-4.716,0.69-5.865c0.128-0.641,0.111-1.385,0.033-2.022
			c6.813,0.161,16.334-0.613,19.101-4.764c19.168-28.751,13.32-70.457-11.338-98.643c-3.096-3.538-9.636-4.66-14.788-5.521
			c-1.858-6.881-3.569-12.98-4.396-14.865c-0.129-0.294-0.261-0.609-0.394-0.94c-3.252,26.807-13.048,111.363-13.229,116.992
			c-0.178,5.534-5.602,33.099-7.085,48.718h12.837c0.419-0.633,0.824-1.334,1.204-2.039
			C375.945,1118.465,376.636,1119.156,377.786,1118.121z"/>
		
			<linearGradient id="SVGID_00000083801111191644939010000002198662147708412828_" gradientUnits="userSpaceOnUse" x1="554.024" y1="1111.0543" x2="554.024" y2="0.8216">
			<stop  offset="0" style="stop-color:#FFFFFF"/>
			<stop  offset="1" style="stop-color:#000000"/>
		</linearGradient>
		<path style="fill:url(#SVGID_00000083801111191644939010000002198662147708412828_);" d="M636.624,1028
			c1.199-2.437,2.816-5.226,4.654-8.165c-0.976-17.353-2.013-32.481-2.464-35.416c-1.133-7.37-6.804-10.205-10.489-10.771
			l-24.684-0.443c-0.824-1.8-1.496-3.358-1.819-4.234c-0.991-2.693-2.551-6.378-3.969-9.496
			c-1.417-3.117-12.472-22.96-13.606-24.944c-1.134-1.984-1.984-3.401-1.984-3.401s-1.275,0.283-1.701,0.142
			c-0.409-0.135-1.07-1.06,0.884-3.391c9.556-1.15,30.849-3.064,32.068-3.412c1.488-0.425,2.338-2.126,2.338-2.126l0.851-5.151
			c4.721-0.197,4.891-2.21,4.891-2.51c-0.674,0.348-3.03,1.372-7.442,1.372c-4.211,0-7.346-0.534-8.47-1.179
			c0.516,2.293,6.558,2.105,6.558,2.105s0,0,0,1.913c0,1.913-2.127,1.112-2.127,1.112s-4.732,0.01-12.147,0.026
			c0.375-2.151-0.82-3.357-0.82-3.357c-1.842-3.544-27.07-2.409-41.951-2.409c-14.813,0-17.407,1.546-17.432,5.893
			c-16.248,0.033-28.896,0.06-29.269,0.06c-0.933,0-1.047-4.455-1.061-5.547c-0.002,0.204-0.002,0.321-0.002,0.321h-4.039
			l-0.034-0.355l-0.391,2.393c-0.213,2.976,0.85,6.165,0.85,6.165c4.039,2.976,25.936,4.464,27.637,4.464
			c0.965,0,4.939,0.41,8.199,0.766c0.782,2.195,1.511,3.84,1.511,3.84s-2.41,0.425-2.268,1.276c0.142,0.85,0.708,3.119,1.843,5.245
			c1.134,2.126,2.976,4.818,6.236,10.912c1.005,1.88,1.93,4.126,2.828,6.519l-0.065,10.347h-16.37l-2.551,1.913l0.425,1.488
			l3.189,0.425l0.072,1.575l-26.49-0.475c-0.849-11.8-3.414-40.216-3.414-40.216l-2.693-0.851c0,0,0-1.559-0.142-2.693
			c-0.142-1.133,0.284-6.803,0.284-6.803s1.134-1.701,0.283-5.244c-0.191-0.797-0.486-1.414-0.823-1.904
			c-1.162,1.688-2.862,1.78-2.862,1.78c-10.771,1.418-27.071-0.708-27.071-0.708c-0.343-0.343-0.622-0.702-0.849-1.072
			c-2.312,3.759,0.938,8.667,1.841,9.699c0.992,1.134,3.261,1.984,4.253,2.551c0.992,0.567,2.409,2.409,2.409,2.409
			c0.85,0.992,1.843,5.953,1.843,5.953c-0.708,0.142-2.693,0.568-2.693,0.568s0,0-0.283,4.393c-0.283,4.393,0.708,9.07,0,15.307
			c-0.708,6.237,2.126,8.362,0.708,11.905c-1.418,3.543-4.393,10.488-5.102,14.882c-0.709,4.394-0.141,5.243-0.708,8.787
			c-0.567,3.543-0.708,4.252-1.276,8.929c-0.567,4.677-0.425,5.953-0.85,9.921c-0.063,0.586-0.133,1.267-0.207,2
			c-2.651,12.139-4.91,27.585-6.035,47.037c0.32,0.072,0.714,0.144,1,0.144c0.566,0,0.709,1.276,0.709,1.276
			s0.708-0.284,1.559-0.284c0.851,0,1.418,0.709,1.559,1.7c0.141,0.992-0.283,3.118-1.133,4.111
			c-0.85,0.992-1.559,2.267-1.559,2.267l-1.134,2.41c0,0,0.567,0.566,1.843,1.133c1.276,0.567,0.992,1.984,1.559,2.126
			c0.566,0.142,2.268,0.425,2.268,0.425s-0.425-1.133,1.134-3.118c1.559-1.984,2.976-1.417,2.976-1.417
			c0,2.126,2.551,3.684,2.977,5.527c0.425,1.842-0.851,3.118-1.701,3.401c-0.851,0.283-1.276,1.842-2.409,2.976
			c-1.069,1.069-1.886,0.501-2.926,0.789c-2.118,3.936-2.099,10.25-0.797,13.808c1.595,4.358,6.059,8.291,6.909,8.397
			c0.85,0.106,3.332,2.87,4.182,2.657c0.85-0.213,1.276,0.85,1.276,0.85c0.797,0.558,1.753,1.744,2.727,3.126
			c2.234-0.983,7.453-2.694,9.038-1.637c1.913,1.275,2.976,1.701,3.189,3.827c0.212,2.126,0.212,2.551,0.212,3.826
			c0,1.276-0.212,1.488,0.213,3.401c0.241,1.083,0.203,1.684,0.015,2.16h122.732c0.112-0.619,0.228-1.247,0.35-1.877
			c0.85-4.394,0.992-14.031,4.394-19.417c3.401-5.385,7.51-13.464,7.51-13.464c1.091-0.818,2.159-1.328,3.201-1.638
			c0.283-1.561,0.371-1.693,0.242-2.724c-0.022-0.182-0.106-0.307-0.215-0.409c3.087-0.437,5.709-1.422,6.545-3.094
			c0.406-0.812,0.44-6.232,0.242-14.105c-1.315-0.46-2.592-1.098-3.707-1.981C629.395,1055.637,630.033,1041.394,636.624,1028z
			 M620.814,1068.321c-0.921-0.708-2.906-3.189-4.323-3.471c-0.781-0.156-2.167,0.247-3.442,0.713l0.321-7.177
			c1.214-0.668,3.052-1.32,5.949-2.42c0.183,1.857,0.766,7.248,1.804,12.672C620.998,1068.496,620.888,1068.379,620.814,1068.321z"
			/>
		
			<linearGradient id="SVGID_00000135675648154204964740000007071983685714808230_" gradientUnits="userSpaceOnUse" x1="471.249" y1="1111.0511" x2="471.249" y2="0.7896">
			<stop  offset="0" style="stop-color:#FFFFFF"/>
			<stop  offset="1" style="stop-color:#000000"/>
		</linearGradient>
		<path style="fill:url(#SVGID_00000135675648154204964740000007071983685714808230_);" d="M474.269,1080.794
			c1.133-1.134,1.559-2.693,2.409-2.976c0.85-0.284,2.126-1.56,1.701-3.401c-0.426-1.844-2.977-3.401-2.977-5.527
			c0,0-1.417-0.568-2.976,1.417c-1.559,1.985-1.134,3.118-1.134,3.118s-1.702-0.283-2.268-0.425
			c-0.566-0.141-0.283-1.559-1.559-2.126c-1.275-0.567-1.843-1.133-1.843-1.133l1.134-2.41c0,0,0.708-1.275,1.559-2.267
			c0.851-0.993,1.275-3.119,1.133-4.111c-0.141-0.991-0.708-1.7-1.559-1.7c-0.85,0-1.559,0.284-1.559,0.284
			s-0.143-1.276-0.709-1.276c-0.286,0-0.68-0.072-1-0.144c-0.164,2.844-0.306,5.771-0.42,8.789c0,0-0.531,12.425,0.284,12.756
			c1.118,0.453,3.824,0.892,7.254,1.244c-0.141,0.216-0.272,0.445-0.398,0.679C472.383,1081.295,473.201,1081.863,474.269,1080.794z
			"/>
		
			<linearGradient id="SVGID_00000036958888962807601730000013611049104375206330_" gradientUnits="userSpaceOnUse" x1="471.249" y1="1111.0542" x2="471.249" y2="0.8232">
			<stop  offset="0" style="stop-color:#FFFFFF"/>
			<stop  offset="1" style="stop-color:#000000"/>
		</linearGradient>
		<path style="fill:url(#SVGID_00000036958888962807601730000013611049104375206330_);" d="M474.269,1080.794
			c1.133-1.134,1.559-2.693,2.409-2.976c0.85-0.284,2.126-1.56,1.701-3.401c-0.426-1.844-2.977-3.401-2.977-5.527
			c0,0-1.417-0.568-2.976,1.417c-1.559,1.985-1.134,3.118-1.134,3.118s-1.702-0.283-2.268-0.425
			c-0.566-0.141-0.283-1.559-1.559-2.126c-1.275-0.567-1.843-1.133-1.843-1.133l1.134-2.41c0,0,0.708-1.275,1.559-2.267
			c0.851-0.993,1.275-3.119,1.133-4.111c-0.141-0.991-0.708-1.7-1.559-1.7c-0.85,0-1.559,0.284-1.559,0.284
			s-0.143-1.276-0.709-1.276c-0.286,0-0.68-0.072-1-0.144c-0.164,2.844-0.306,5.771-0.42,8.789c0,0-0.531,12.425,0.284,12.756
			c1.118,0.453,3.824,0.892,7.254,1.244c-0.141,0.216-0.272,0.445-0.398,0.679C472.383,1081.295,473.201,1081.863,474.269,1080.794z
			"/>
		
			<linearGradient id="SVGID_00000045617816532860531070000000959243781000261044_" gradientUnits="userSpaceOnUse" x1="492.0502" y1="1111.0511" x2="492.0502" y2="0.7862">
			<stop  offset="0" style="stop-color:#FFFFFF"/>
			<stop  offset="1" style="stop-color:#000000"/>
		</linearGradient>
		<path style="fill:url(#SVGID_00000045617816532860531070000000959243781000261044_);" d="M498.292,1119.84
			c-0.425-1.913-0.213-2.126-0.213-3.401c0-1.275,0-1.701-0.212-3.826c-0.213-2.126-1.276-2.551-3.189-3.827
			c-1.585-1.056-6.804,0.655-9.038,1.637c1.623,2.304,3.295,5.152,4.358,6.548c0.733,0.963,1.527,2.817,2.533,5.03h5.776
			C498.495,1121.524,498.532,1120.922,498.292,1119.84z"/>
		
			<linearGradient id="SVGID_00000078023523953761639280000001650709768320022437_" gradientUnits="userSpaceOnUse" x1="492.0502" y1="1111.0543" x2="492.0502" y2="0.8205">
			<stop  offset="0" style="stop-color:#FFFFFF"/>
			<stop  offset="1" style="stop-color:#000000"/>
		</linearGradient>
		<path style="fill:url(#SVGID_00000078023523953761639280000001650709768320022437_);" d="M498.292,1119.84
			c-0.425-1.913-0.213-2.126-0.213-3.401c0-1.275,0-1.701-0.212-3.826c-0.213-2.126-1.276-2.551-3.189-3.827
			c-1.585-1.056-6.804,0.655-9.038,1.637c1.623,2.304,3.295,5.152,4.358,6.548c0.733,0.963,1.527,2.817,2.533,5.03h5.776
			C498.495,1121.524,498.532,1120.922,498.292,1119.84z"/>
		
			<linearGradient id="SVGID_00000004511278910084894050000015385785666037516684_" gradientUnits="userSpaceOnUse" x1="783.0466" y1="916.0177" x2="783.0466" y2="909.8647">
			<stop  offset="0" style="stop-color:#FFFFFF"/>
			<stop  offset="1" style="stop-color:#000000"/>
		</linearGradient>
		<path style="fill:url(#SVGID_00000004511278910084894050000015385785666037516684_);" d="M782.568,915.327
			c-0.19,0.102-0.322,0.213-0.407,0.325l1.734,0.133l0.036-0.054C783.282,915.639,782.846,915.495,782.568,915.327z"/>
		
			<linearGradient id="SVGID_00000173126119634361274000000001278820487691155100_" gradientUnits="userSpaceOnUse" x1="770.4075" y1="1117.9017" x2="770.4075" y2="6.1345">
			<stop  offset="0" style="stop-color:#FFFFFF"/>
			<stop  offset="1" style="stop-color:#000000"/>
		</linearGradient>
		<path style="fill:url(#SVGID_00000173126119634361274000000001278820487691155100_);" d="M875.365,917.328
			c-0.351,0-0.689-0.018-1.019-0.044c-1.866,0.147-3.36,0.657-4.083,1.019c-0.851,0.425,3.827,0.638,3.827,0.638l0.212,1.488
			l-1.488,0.425c0,0,0.638,1.701-1.063,2.339c-1.701,0.638-86.312-0.213-86.312-0.213l0.135-6.214l2.338-1.275l-0.489-0.134
			l-1.771,0.483c-0.424,0-0.785-0.018-1.117-0.044l0.001,0.04l0.053,0.004v0.85c0,0.052-0.013,0.103-0.027,0.153l0.027,1.035
			c0-0.216-0.132-0.412-0.347-0.591c-0.108,0.09-0.237,0.176-0.387,0.256l-0.116,5.012h-2.551l0.638-3.614l0.585-0.891
			c-0.928,0.221-2.005,0.341-2.924,0.341c-1.539,0-2.957-0.557-3.709-1.107c-0.287,0.209-0.485,0.418-0.543,0.594
			c-0.213,0.638,3.401,1.063,3.401,1.063s0,2.338-0.213,2.976c-0.213,0.638-0.638,1.063-0.638,1.063l-82.699,0.425l-0.574-5.86
			c1.063,0,2.126-1.063,2.126-1.063s-0.478-0.349-1.351-0.683c-0.761,0.252-1.75,0.466-2.965,0.466c-1.692,0-2.49-0.344-2.864-0.64
			c-0.614,0.297-0.686,0.644-0.686,0.644l1.276,1.063l0.571,7.532l0.042,0.107l-0.039-0.077l-0.003-0.029l-3.669-9.479l-0.155,0.243
			l-1.701-0.425c0,0,0.006-0.011,0.008-0.017l-0.086,0.022c0,0,5.818,16.277,5.818,18.616c0,0-3.189-0.638-4.889-2.764
			l-1.314-14.285l-1.663,0.554c0,0-0.001-0.018-0.002-0.044c-0.032,0.643-0.448,8.918-1.061,9.735c0,0-5.315-8.504-7.866-8.929
			c-2.551-0.425-5.315,1.276-5.315,1.276s-1.888-1.192-3.693-2.082c-0.836,0.412-1.654,0.76-2.259,0.894
			c-1.442,0.32-13.505,2.931-21.821-0.894c-2.719,1.251-5.04,3.187-6.454,6.121c0,0-1.914,6.59,3.826,7.228
			c5.74,0.638,9.354,5.528,10.417,6.378c1.063,0.851,7.653,12.118,7.653,15.732c0,3.614,3.614,20.409,5.315,25.936
			c1.701,5.527,0.638,9.354,0.638,10.629c0,1.044-12.803,17.31-21.07,30.527c0.889,15.812,1.728,33.463,2.03,45.436
			c4.705,1.645,9.899,0.995,9.899,0.995s1.275,9.567,10.842,11.906c6.794,1.661,13.055,3.641,22.356,3.813
			c-0.033,0.004-0.079,0.009-0.103,0.013c-0.85,0.142,0.567,1.559,2.551,2.834c1.984,1.276,4.677,1.701,5.385,1.559
			c0.708-0.141,1.701,0.993,2.693,2.268c0.164,0.212,0.352,0.421,0.547,0.628c0.138,1.309,0.22,2.706,0.302,3.199
			c0.142,0.85-0.141,0.142-2.834,1.418c-2.693,1.275-11.906,7.369-12.756,10.771c-0.85,3.401-2.127,9.355-2.268,13.465
			c-0.055,1.604,0.105,2.839,0.263,3.861h97.242c-0.706-1.248-1.958-1.887-3.255-2.726c-2.066-1.337-6.84-6.736-10.661-10.661
			c0.236-0.365,0.444-0.698,0.598-0.961c0.993-1.701,0.991-0.141,1.276-2.267c0.284-2.126,1.134-2.41,1.843-3.827
			s1.275-1.275,1.134-2.551c-0.141-1.276-1.133-0.709-0.141-2.551c0.991-1.842,2.408-2.551,2.692-3.543
			c0.154-0.54,0.634-1.081,0.002-1.757c0.935-0.514,2-1.642,3.143-3.067c1.086,5.84,3.332,8.813,6.133,10.492
			c4.252,2.551,28.913,1.701,28.913,1.701s2.142,16.349,6.751,21.719h90.771c-1.51-9.635-3.793-21.861-5.682-31.073
			c-3.401-16.582-5.953-73.132-5.953-73.132c8.504-28.062,5.102-28.912,5.102-28.912c-3.773-1.596-18.392-2.598-36.332-3.242
			c-14.928-1.046-39.452-2.6-61.607-3.93l-0.132-0.055l-0.638-1.276c0,0,0-0.85,1.063-1.063c1.063-0.213,2.551-2.339,2.551-2.339
			l3.417,0.115c0,1.488,0.834,2.649,1.685,2.649c0.85,0,0.85-1.063,0.85-1.063v-1.701c0,0,3.614,0.425,4.464,0.213
			c0.85-0.213,0.638-1.701,0.638-1.701l-5.315-0.425l-0.425-1.701l-1.063-0.213l-0.66,1.913l-20.812-0.638l0.638-39.117l2.126-2.764
			c0,0,80.147-3.614,83.974-5.102c3.827-1.488,2.764-6.803,2.764-6.803l-1.275-0.425l0.213-1.488c0,0,3.614,0.425,3.189-0.638
			c-0.202-0.505-0.603-0.718-1.212-0.806C877.52,917.382,876.592,917.328,875.365,917.328z M776.297,974.639l-28.7-1.275
			l0.213,1.913l7.016,0.638l3.827,0.425c0.638,1.063,1.701,2.339,1.488,2.977c-0.003,0.007-0.008,0.018-0.011,0.026
			c-3.193-0.153-5.396-0.239-6.301-0.239c-6.673,0-45.263-0.58-61.36,0.417c1.719-3.172,3.275-6.046,4.107-7.432
			c1.913-3.189,3.614-8.291,6.165-9.992c2.551-1.701,4.889-1.701,5.74-2.764c0.851-1.063,2.339-6.378,1.488-10.205
			c-0.85-3.827-1.488-5.527-5.102-7.441c0,0-7.568-6.978-12.294-13.791c6.529,0.39,81.637,4.862,82.45,4.862
			c0.85,0,1.488,1.276,1.488,1.276L776.297,974.639z"/>
		
			<linearGradient id="SVGID_00000129168512680849705170000007094131138789751977_" gradientUnits="userSpaceOnUse" x1="651.3007" y1="1117.9017" x2="651.3007" y2="6.1346">
			<stop  offset="0" style="stop-color:#FFFFFF"/>
			<stop  offset="1" style="stop-color:#000000"/>
		</linearGradient>
		<path style="fill:url(#SVGID_00000129168512680849705170000007094131138789751977_);" d="M634.42,1097.377
			c-0.992,2.055-2.905,10.629-3.685,12.4c-0.78,1.772-3.472,10.347-3.614,12.118c-0.003,0.038-0.005,0.07-0.008,0.106h7.267
			c0.84-2.249,1.955-7.04,3.732-8.679c1.843-1.701,2.693-3.401,3.118-2.976c0.329,0.329,3.885,7.281,6.527,11.655h27.731
			c-2.666-3.45-7.904-10.071-11.157-13.215c-4.252-4.111-9.071-10.772-12.33-14.74c-3.259-3.968-4.818-7.653-7.936-8.22
			c-2.261-0.41-4.822-1.038-7.572-0.221c-0.029,0.155-0.058,0.319-0.09,0.505C636.05,1088.163,635.411,1095.321,634.42,1097.377z"/>
		
			<linearGradient id="SVGID_00000121261154050932680600000000922026317466565015_" gradientUnits="userSpaceOnUse" x1="628.7658" y1="1111.0543" x2="628.7658" y2="0.8235">
			<stop  offset="0" style="stop-color:#FFFFFF"/>
			<stop  offset="1" style="stop-color:#000000"/>
		</linearGradient>
		<path style="fill:url(#SVGID_00000121261154050932680600000000922026317466565015_);" d="M625.782,1100.706
			c-3.401,5.386-3.544,15.023-4.394,19.417c-0.122,0.63-0.238,1.258-0.35,1.877h6.074c0.003-0.036,0.005-0.068,0.008-0.106
			c0.142-1.771,2.834-10.345,3.614-12.118c0.78-1.771,2.693-10.345,3.685-12.4c0.991-2.056,1.63-9.213,1.984-11.268
			c0.032-0.186,0.061-0.35,0.09-0.505c-1.042,0.31-2.11,0.82-3.201,1.638C633.293,1087.242,629.184,1095.321,625.782,1100.706z"/>
		
			<linearGradient id="SVGID_00000054962781346179235340000001345826076738774678_" gradientUnits="userSpaceOnUse" x1="628.7658" y1="1117.9017" x2="628.7658" y2="6.135">
			<stop  offset="0" style="stop-color:#FFFFFF"/>
			<stop  offset="1" style="stop-color:#000000"/>
		</linearGradient>
		<path style="fill:url(#SVGID_00000054962781346179235340000001345826076738774678_);" d="M625.782,1100.706
			c-3.401,5.386-3.544,15.023-4.394,19.417c-0.122,0.63-0.238,1.258-0.35,1.877h6.074c0.003-0.036,0.005-0.068,0.008-0.106
			c0.142-1.771,2.834-10.345,3.614-12.118c0.78-1.771,2.693-10.345,3.685-12.4c0.991-2.056,1.63-9.213,1.984-11.268
			c0.032-0.186,0.061-0.35,0.09-0.505c-1.042,0.31-2.11,0.82-3.201,1.638C633.293,1087.242,629.184,1095.321,625.782,1100.706z"/>
		
			<linearGradient id="SVGID_00000017483661937991241840000006426454207655769520_" gradientUnits="userSpaceOnUse" x1="637.545" y1="1111.0542" x2="637.545" y2="0.8182">
			<stop  offset="0" style="stop-color:#FFFFFF"/>
			<stop  offset="1" style="stop-color:#000000"/>
		</linearGradient>
		<path style="fill:url(#SVGID_00000017483661937991241840000006426454207655769520_);" d="M636.624,1028
			c-6.59,13.393-7.228,27.637,2.976,35.29c1.115,0.882,2.392,1.521,3.707,1.981c-0.302-11.973-1.14-29.625-2.03-45.436
			C639.439,1022.774,637.822,1025.564,636.624,1028z"/>
		
			<linearGradient id="SVGID_00000102516425227317698260000003999119651240408214_" gradientUnits="userSpaceOnUse" x1="637.545" y1="1117.9019" x2="637.545" y2="6.1347">
			<stop  offset="0" style="stop-color:#FFFFFF"/>
			<stop  offset="1" style="stop-color:#000000"/>
		</linearGradient>
		<path style="fill:url(#SVGID_00000102516425227317698260000003999119651240408214_);" d="M636.624,1028
			c-6.59,13.393-7.228,27.637,2.976,35.29c1.115,0.882,2.392,1.521,3.707,1.981c-0.302-11.973-1.14-29.625-2.03-45.436
			C639.439,1022.774,637.822,1025.564,636.624,1028z"/>
		
			<linearGradient id="SVGID_00000150096747103357053260000014837460708813515656_" gradientUnits="userSpaceOnUse" x1="690.6404" y1="924.93" x2="690.6404" y2="924.5658">
			<stop  offset="0" style="stop-color:#FFFFFF"/>
			<stop  offset="1" style="stop-color:#000000"/>
		</linearGradient>
		<polygon style="fill:url(#SVGID_00000150096747103357053260000014837460708813515656_);" points="690.661,924.97 690.62,924.864 
			690.622,924.893 		"/>
		<path style="fill:#1D191A;" d="M365.303,684.529c0.576,1.264,0.919,3.91,1.035,4.944c0.116,1.036,1.035,1.38,0.92,2.991
			c-0.115,1.61,0.345,2.53,1.035,3.219c0.69,0.691,0.805,2.531,1.15,3.106c0.345,0.575,1.036,1.38,1.38,2.3
			c0.345,0.92,1.035,2.186,1.955,2.99c0.92,0.805,1.841,2.3,2.646,3.795c0.805,1.496,1.496,0.806,2.645,1.84
			c1.149,1.036,2.07,3.22,2.645,4.371c0.575,1.15,1.035,3.105,1.38,3.68c0.345,0.575,1.726,2.76,2.53,3.911
			c0.805,1.15,1.265,2.645,1.725,3.22c0.46,0.576,2.417,1.38,3.336,2.071c0.919,0.689,1.84,4.83,2.415,5.75
			c0.575,0.92,0.23,4.715,0.69,6.21c0.46,1.495,0.461,4.715,0.69,5.865c0.128,0.641,0.111,1.385,0.033,2.022
			c6.813-0.161,16.334,0.613,19.101,4.764c19.168,28.751,13.32,70.457-11.338,98.643c-3.096,3.538-9.636,4.66-14.788,5.521
			c-1.858,6.881-3.569,12.98-4.396,14.865c-0.19,0.434-0.386,0.912-0.585,1.421c0.504,4.137,0.834,6.75,0.922,7.247
			c0.637,3.614,0.213,3.189,1.701,5.528c1.488,2.339-0.213,2.126-0.425,5.315c-0.213,3.189-1.913,3.614-0.638,5.953
			c1.276,2.338,0.213,2.126,1.914,4.464c1.701,2.338,3.402,1.488,2.976,4.252c-0.425,2.764-1.488,3.401-0.638,4.677
			c0.799,1.199,0.104,2.384,0.017,2.523c-0.001,0.016-0.002,0.032-0.004,0.048l0.837,1.255l0.65,0.488l0.201,0.15h69.218h0.087
			c0,0-0.017-0.064-0.042-0.15c-0.013-0.045-0.026-0.089-0.045-0.15c-0.154-0.497-0.507-1.456-0.976-1.613
			c-0.637-0.213,0.425-3.614-1.701-4.252c-2.126-0.638-8.929,0.638-13.819-1.488c-4.889-2.126-12.968-5.953-12.543-7.015
			c0.425-1.063,2.126-7.016,0.85-10.63c-1.275-3.614-5.527-3.189-6.165-4.677c-0.637-1.488-1.701-4.677-1.063-7.228
			c0.638-2.551,3.614-6.165,4.889-10.204c1.276-4.039,5.953-27.85,5.527-39.542c-0.425-11.692-0.638-6.165,1.276-9.779
			c1.913-3.614,3.401-13.181,3.827-15.944c0.425-2.764,3.614-25.724,3.826-28.487c0.213-2.764-0.637-6.165,0.213-9.354
			c0.85-3.189,1.063-6.165,2.126-8.291c1.063-2.126,0.85-2.551,1.913-5.953c0.129-0.413,0.248-0.777,0.359-1.106l1.129,2.807
			c0,0.851-1.418,3.118-1.984,4.111c-0.566,0.992-0.142,1.983-0.142,2.692c0,0.709,1.418,4.111,1.276,4.677s0.425,7.937,0.567,9.07
			c0.142,1.134,2.267,2.551,3.117,3.26c0.85,0.709,3.969,3.26,4.819,3.401c0.85,0.141,1.701-1.134,1.559-1.985
			c-0.142-0.85-1.559-1.983-2.409-2.408c-0.85-0.425-1.843-1.56-2.409-2.269c-0.566-0.709-1.275-4.959-1.275-4.959
			s0.85,0.566,2.409,1.983c1.559,1.417,9.071,2.976,10.062,2.835c0.992-0.141,0.567-1.701,0.567-1.701s0.244-0.07,0.559-0.14
			c-0.164-2.844-0.306-5.771-0.42-8.789c0,0-0.531-12.425,0.284-12.755c1.118-0.453,3.824-0.892,7.254-1.244
			c-0.141-0.216-0.272-0.445-0.398-0.679c-0.063-0.018-0.127-0.037-0.192-0.062c-1.134-0.425-4.96-1.133-6.094-1.701
			c-1.133-0.567,0,0-0.284-0.992c-0.284-0.991-1.276-2.41-1.984-3.543c-0.588-0.941-1.953-4.799-2.402-6.09
			c0.163-0.119,0.328-0.236,0.488-0.36c0,0-3.826-13.393-3.401-15.519c0.425-2.126,0.212-1.701-0.213-3.827
			c-0.425-2.126-1.488-5.315-1.275-7.866c0.213-2.551-0.638-3.614-1.063-5.102c-0.425-1.488-0.213-6.803-0.213-7.654
			c0-0.85,0.213-2.126-0.213-4.464c-0.098-0.541-0.232-1.2-0.38-1.912c0.552-1.945,1.009-3.771,1.231-5.104
			c0.638-3.827,1.488-6.59-2.976-8.291c-0.103-0.039-0.217-0.08-0.33-0.121c0.042-0.794,0.197-1.445,0.543-1.792
			c1.276-1.276,2.976-1.276,3.614-2.551c0.638-1.276,1.488-7.016,2.126-8.929c0.638-1.913,0-2.976,1.063-5.102
			c1.063-2.126,0.425-4.677,1.063-5.74c0.296-0.493,1.788-2.134,3.446-3.814c0.7,7.799,1.959,26.841,1.586,31.31
			c-0.425,5.102-0.284,14.172-0.284,14.172l1.418,1.56v11.196c0,0,7.086,10.489,7.653,11.622c0,0,2.126-6.945,2.551-10.346
			c0.425-3.401-0.993-31.038-1.985-39.542c-0.135-1.153-0.282-2.363-0.437-3.61c0.031,0.102,0.06,0.201,0.087,0.295
			c0.217,1.354,0.454,2.478,0.712,2.925c0.134,0.411,0.344,0.883,0.771,1.666c1.276,2.338,0.638,8.716,2.126,10.842
			c1.488,2.126,1.063,5.953,1.275,8.078c0.213,2.126-0.85,0.638,0.213,3.614c1.063,2.976,0.425,5.102,0.638,7.866
			c0.213,2.764-0.425,2.976,0,4.677c0.047,0.189,0.227,0.36,0.505,0.512c-0.141,0.077-0.221,0.126-0.221,0.126
			c0.359,0.126,0.741,0.229,1.138,0.316c-0.049,0.038-0.099,0.071-0.146,0.11c0,0,1.063,7.866,1.275,8.716
			c0.213,0.85,1.063,4.465,1.914,5.102c0.146,0.11,0.491,0.284,0.954,0.489c1.623-2.304,3.295-5.152,4.358-6.547
			c1.336-1.754,2.875-6.461,5.534-10.925c-0.117-0.053-0.238-0.104-0.382-0.141c0.757-3.254,2.195-9.371,2.504-10.3
			c0.425-1.276,3.189-7.016,4.252-9.992c1.063-2.976-0.213-6.803-0.638-9.141c-0.425-2.338-1.275-2.764-1.063-5.102
			c0.213-2.339,0.638-2.339,0.85-4.252c0.212-1.913-0.85-2.126-0.638-3.614c0.213-1.488,1.063-2.126,1.488-4.039
			c0.425-1.913-1.488-1.488-1.063-3.614c0.425-2.126,2.126-1.276,1.701-3.401c-0.425-2.126-0.213-2.976-0.638-5.102
			c-0.425-2.126-1.275-1.488-1.063-3.614c0.213-2.126,0.85-7.228,0-11.267c-0.85-4.039-0.85-11.693-1.063-16.157
			c-0.213-4.464-0.638-4.039,0.638-8.079c1.275-4.039,2.551-10.204,0.638-15.307c-1.914-5.102-1.701-9.354-4.039-11.693
			c-2.172-2.172-4.709-5.621-6.933-6.444c0.082-2.305,0.212-5.04,0.342-6.737c0.213-2.764-0.425-5.74-0.425-9.567
			c0-3.827,0,0-0.425-1.488c-0.425-1.488-0.425-1.063-0.638-2.976c-0.213-1.913,0.638-1.701,0.213-3.827
			c-0.425-2.126-1.701-3.401-2.764-4.464c-1.063-1.063-0.638-1.063-1.063-2.339c-0.425-1.276-1.701-1.701-2.339-3.401
			c-0.637-1.701-1.063-1.276-4.677-1.913c-3.614-0.638-3.189,1.276-5.102,0.213c-1.913-1.063-3.826-1.063-5.74-1.913
			c-1.913-0.85-1.063,0.425-2.551,0.85c-1.488,0.425-1.488,1.063-2.976,1.701c-1.488,0.638-4.252,1.275-5.953,1.488
			c-1.701,0.213-4.252,1.701-5.74,2.551c-1.488,0.851-0.213,1.276-1.063,3.189c-0.85,1.913-0.85,1.276-1.913,2.764
			c-1.063,1.488,0.213,2.338-0.213,3.826c-0.425,1.488-0.213,2.126-1.276,3.189c-1.063,1.063-0.213,1.488-0.213,2.764
			c0,1.275,0.425,1.488,0.213,2.976c-0.213,1.488,1.209,8.035,1.209,8.035s-0.25-0.425-1.951,0c-0.558,0.139-0.705,1.32-0.637,2.895
			c-1.35,1.006-3.855,2.784-5.637,3.526c-2.551,1.063-16.37,5.74-22.11,8.716c-5.74,2.976-18.283,13.819-22.96,21.047
			c-4.677,7.228-7.016,10.204-9.142,15.944c-2.126,5.74-4.465,11.905-7.228,14.031c-2.764,2.126-14.456,19.771-12.118,22.747
			c1.898,2.417,3.657,5.393,4.706,7.11c-1.396,2.163-3.876,6.11-5.344,9.047c-0.851,1.703-1.566,4.942-2.144,8.963
			c0.187,0.731,0.381,1.425,0.576,2.009C363.693,681.423,364.727,683.264,365.303,684.529z M472.384,641.736
			c0.046,0.199,0.108,0.369,0.185,0.497c0.199,0.331,0.418,0.786,0.581,1.295c-0.303,1.252,0.236-0.546-0.368,1.469
			c-0.083,0.277-0.15,0.555-0.205,0.833c-0.124-1.426-0.225-2.814-0.299-4.155C472.314,641.695,472.348,641.716,472.384,641.736z"/>
		<path style="fill:#1D191A;" d="M235.263,913.922c3.269-0.048,4.303-1.484,4.303-1.484l-2.126-1.063l-0.213-2.126l11.692-0.213
			l0.213,2.339l0.213,1.276c0,0-2.126,0.638-1.488,1.063c0.077,0.052,0.162,0.1,0.253,0.145c0.665,0.328,1.757,0.493,3.999,0.493
			c1.042,0,1.931-0.179,2.631-0.389c1.014-0.304,1.621-0.674,1.621-0.674l-2.126-1.063l-0.213-2.976l27.217-0.406
			c0.01,0.757,0.208,1.031-0.576,3.049c-0.283,0.727-0.393,1.595-0.42,2.417c-0.014,0.433-0.006,0.852,0.015,1.231
			c0.052,0.948,0.175,1.643,0.175,1.643c0.13,0.061,0.276,0.118,0.421,0.175c6.143,2.426,25.454,1.552,30.285,1.665
			c4.945,0.115,4.37-1.84,4.485-3.221c0.034-0.408,0.109-0.857,0.197-1.286c0.209-1.021,0.493-1.934,0.493-1.934
			c0.887,0,7.431,0.727,12.781,1.32c3.674,0.407,6.785,0.75,7.113,0.75c0.515,0,1.263-0.283,1.827-0.637
			c0.318-0.199,0.579-0.421,0.703-0.628c0.345-0.576,1.265-0.46,7.016,0.344c0.355,0.05,0.709,0.104,1.062,0.162
			c5.369,0.877,10.528,2.585,15.384,2.369c5.174-0.23,16.445-1.265,22.54-2.07c0.364-0.048,0.681-0.122,0.961-0.217
			c1.092-0.37,1.561-1.074,1.633-1.942c0.001-0.016,0.003-0.032,0.004-0.048c0.175-2.628-3.204-6.714-4.092-7.684
			c-1.265-1.38-3.451-1.266-5.982-1.955c-2.53-0.691-7.014-0.116-7.704-0.231c-0.69-0.115-2.645-1.38-3.105-1.495
			c-0.46-0.115-2.301-0.805-2.76-1.035c-0.46-0.231-1.725-0.92-3.91-2.76c-2.185-1.84-11.502-11.96-11.962-12.88
			c-0.46-0.92,0.69-2.76,0.69-2.76c3.219,1.495,26.106,6.21,27.487,5.061c1.253-1.045,3.549-9.198,5.51-14.22
			c0.199-0.509,0.394-0.987,0.585-1.421c0.828-1.885,2.539-7.984,4.396-14.865c5.152-0.86,11.692-1.983,14.788-5.521
			c24.659-28.186,30.506-69.891,11.338-98.643c-2.767-4.151-12.289-4.925-19.101-4.764c0.078-0.637,0.095-1.381-0.033-2.022
			c-0.229-1.149-0.23-4.37-0.69-5.865c-0.46-1.495-0.116-5.29-0.69-6.21c-0.575-0.92-1.496-5.061-2.415-5.75
			c-0.919-0.691-2.876-1.496-3.336-2.071c-0.46-0.575-0.92-2.069-1.725-3.22c-0.805-1.15-2.186-3.336-2.53-3.911
			c-0.345-0.575-0.806-2.529-1.38-3.68c-0.575-1.15-1.496-3.335-2.645-4.371c-1.15-1.035-1.84-0.345-2.645-1.84
			c-0.804-1.495-1.725-2.99-2.646-3.795c-0.92-0.804-1.61-2.07-1.955-2.99c-0.344-0.92-1.035-1.726-1.38-2.3
			c-0.345-0.575-0.46-2.415-1.15-3.106c-0.69-0.689-1.15-1.609-1.035-3.219c0.115-1.61-0.805-1.955-0.92-2.991
			c-0.115-1.035-0.459-3.68-1.035-4.944c-0.576-1.266-1.61-3.106-2.3-5.175c-0.195-0.584-0.389-1.279-0.576-2.009
			c-0.476-1.862-0.902-3.965-1.149-5.121c-0.345-1.609-0.806-3.911-2.071-4.946c-1.264-1.035-1.955-0.92-2.876-1.035
			c-0.92-0.115-8.741-4.83-10.466-5.405c-1.645-0.549-5.586-3.497-7.244-4.068c0.151-0.254,0.298-0.498,0.438-0.718
			c1.488-2.338,2.339-3.189,2.976-3.614c0.638-0.425-0.851-2.764-0.213-3.401c0.638-0.638,1.275-0.425,1.488-1.276
			c0.213-0.85-1.488-4.464-1.275-5.952c0,0,2.126,0.212,3.401-1.063c1.275-1.276,0.425-2.126-0.213-4.464
			c-0.638-2.339-3.189-5.74-2.976-6.803c0.213-1.063,0.425-2.339,0.425-2.339s0.213-0.213,1.488-0.213c0,0-1.701-0.638-1.275-2.976
			c0.425-2.339,1.275-3.189,1.275-3.189s-1.701-3.614-1.275-8.291c0.425-4.677-5.315-13.606-13.393-16.369
			c-8.078-2.764-20.622-2.764-20.622-2.764c-8.504,1.063-18.07,9.992-17.432,24.448c0.638,14.456,2.126,15.519,1.701,18.708
			c0,0-0.01,0.115-0.025,0.306c-0.502,0.448-1.451,1.306-2.104,1.958c-0.92,0.919-3.219,2.76-4.944,3.68c0,0-3.238,0.01-4.513,0.223
			c-1.276,0.213-1.701,2.551-3.401,2.551c-1.701,0-31.038,8.079-33.59,9.142c-2.551,1.063-5.315,8.291-5.952,10.417
			c-0.638,2.126-0.213,3.401-0.85,5.102c-0.638,1.701-0.638,2.551-0.638,4.677c0,2.126-1.488,3.614-2.551,4.89
			c-1.063,1.276-0.213,4.039-1.701,5.74c-1.488,1.701-1.701,1.701-3.189,2.551c-1.488,0.85-1.276,1.701-1.914,2.976
			c-0.638,1.276-0.85,3.189-1.913,3.401c-1.063,0.213-1.063,2.126-1.913,3.827c-0.85,1.701-1.488,4.464-2.339,6.165
			c-0.85,1.701-1.701,6.378-2.764,7.441c-1.063,1.063-1.276,3.827-1.488,5.102c-0.016,0.096-0.04,0.218-0.061,0.331
			c-2.032,1.34-3.188,2.983-3.234,4.984c0,0,0.034,1.259,0.11,3.522c-0.329,2.221-0.073,5.341,0.3,7.978
			c0.72,17.551,2.506,51.901,6.239,79.583c-0.194,21.492-0.089,40.954,0.927,41.717c1.729,1.297,13.676,0.616,21.264,0.219
			c6.999,0.163,17.103,0.371,28.736,0.585c0.47,4.643,0.966,8.961,1.324,9.987c0.805,2.3-1.149,12.995,3.105,17.71
			c4.254,4.715,10.581,5.406,10.581,5.406s0.116,0.919-0.115,2.99c-0.23,2.07,1.15,4.945,0.92,5.98
			c-0.117,0.526-0.917,1.615-1.856,2.771l-49.214,3.956c0,0-2.976,1.276-2.976,6.803l-0.213,1.063l-1.063,0.425
			c0,0-0.376,1.146,2.49,1.264c0.155,0.006,0.312,0.012,0.486,0.012C235.158,913.926,235.208,913.922,235.263,913.922z
			 M340.228,745.872c1.063-1.276,0.744-3.614-0.531-2.976c-0.78-1.028,1.63-3.933,2.622-5.775
			c0.991-1.843,4.961-13.606,4.961-13.606c1.276,2.692,12.046,18.141,11.763,18.849c-0.283,0.708-0.567,1.701-1.275,2.268
			c-0.708,0.567-2.834,1.984-4.535,2.268c-0.171,0.028-0.364,0.094-0.568,0.176c-3.561,0.649-5.306,3.259-5.527,3.685
			c-0.85,0.213-3.614,0.638-4.146,0.213c-0.531-0.425-4.783-3.72-4.783-3.72S339.165,747.147,340.228,745.872z M321.961,660.691
			c0.098,0.015,0.211,0.046,0.337,0.093c-0.209,0.44-0.34,0.931-0.469,1.313c-0.029,0.082-0.068,0.263-0.116,0.511L321.961,660.691z
			 M320.461,673.114c-0.244,1.021-0.591,2.466-0.964,4.096C319.862,675.457,320.209,673.988,320.461,673.114z M317.327,717.818
			c-0.013,0.164-0.025,0.327-0.039,0.497c-0.005-0.022-0.011-0.041-0.017-0.062C317.291,718.11,317.309,717.969,317.327,717.818z
			 M310.146,860.991h7.866v2.126h2.338v-1.913h4.039l5.74-1.701l0.425-1.701l1.008-1.311c1.549,0.019,3.079,0.036,4.595,0.054
			c-0.778,1.672-1.688,3.155-1.777,3.596c-0.142,0.709-3.544,5.385-3.544,6.519c0,1.134-0.141,1.276-0.566,2.269
			c-0.425,0.991-11.905,15.023-13.323,15.732c0,0-2.269-0.709-2.835-0.709c-0.566,0-1.417,1.276-1.842,1.276
			c-0.425,0-1.134-1.559-1.559-2.692c-0.169-0.45-0.425-0.858-0.658-1.299L310.146,860.991z"/>
		<path style="fill:#1D191A;" d="M485.64,717.129c-0.974,1.382-1.93,2.568-2.727,3.126c0,0-0.425,1.063-1.276,0.85
			c-0.85-0.213-3.332,2.551-4.182,2.657c-0.85,0.106-5.315,4.039-6.909,8.397c-1.302,3.558-1.321,9.873,0.797,13.809
			c0.126,0.234,0.257,0.463,0.398,0.679c-3.43,0.352-6.136,0.79-7.254,1.244c-0.815,0.331-0.284,12.755-0.284,12.755
			c0.114,3.018,0.255,5.945,0.42,8.789c1.126,19.452,3.385,34.897,6.035,47.037c0.074,0.732,0.144,1.413,0.207,2
			c0.425,3.969,0.283,5.244,0.85,9.921c0.567,4.677,0.708,5.385,1.276,8.929s-0.001,4.393,0.708,8.787
			c0.709,4.394,3.685,11.339,5.102,14.881c1.417,3.543-1.417,5.669-0.708,11.905c0.708,6.237-0.283,10.914,0,15.307
			c0.283,4.393,0.283,4.393,0.283,4.393s1.984,0.426,2.693,0.568c0,0-0.992,4.96-1.843,5.953c0,0-1.417,1.842-2.409,2.409
			c-0.992,0.567-3.261,1.418-4.253,2.551c-0.902,1.032-4.153,5.941-1.841,9.7c0.227,0.37,0.507,0.729,0.849,1.072
			c0,0,16.3,2.126,27.071,0.708c0,0,1.7-0.093,2.862-1.78c0.337-0.49,0.632-1.107,0.823-1.904c0.85-3.543-0.283-5.244-0.283-5.244
			s-0.426-5.669-0.284-6.803c0.142-1.134,0.142-2.693,0.142-2.693l2.693-0.85c0,0,2.565-28.417,3.414-40.216l26.49-0.475
			l-0.072,1.575l-3.189,0.425l-0.425,1.488l2.551,1.913h16.37l0.065,10.347c-0.899,2.392-1.823,4.639-2.828,6.519
			c-3.26,6.094-5.101,8.786-6.236,10.912c-1.134,2.126-1.701,4.395-1.843,5.245c-0.142,0.85,2.268,1.276,2.268,1.276
			s-0.729,1.645-1.511,3.84c-3.26,0.355-7.234,0.766-8.199,0.766c-1.701,0-23.598,1.488-27.637,4.464c0,0-1.063,3.189-0.85,6.165
			l0.391,4.109l0.034,0.355h4.039c0,0,0-0.117,0.002-0.321c0.014-1.449,0.129-7.333,1.061-7.333c0.373,0,13.02,0.027,29.269,0.06
			c0.024,4.347,2.619,5.893,17.432,5.893c14.881,0,40.109,1.134,41.951-2.409c0,0,1.195-1.206,0.82-3.357
			c7.415,0.016,12.147,0.026,12.147,0.026s1.701,0.425,1.701,2.339c0,1.913,0,1.913,0,1.913s-6.59,1.701-6.59,2.551
			c0,0.177,0.164,0.353,0.459,0.522c1.124,0.645,4.259,1.179,8.47,1.179c4.413,0,6.768-1.023,7.442-1.372
			c0.138-0.071,0.211-0.116,0.211-0.116s0.213-2.339-4.889-2.551l-1.063-6.803c0,0-0.85-1.701-2.338-2.126
			c-1.218-0.348-22.512-2.262-32.068-3.412c-1.954-2.33-1.292-3.255-0.884-3.391c0.425-0.141,1.701,0.142,1.701,0.142
			s0.851-1.418,1.984-3.401c1.133-1.984,12.188-21.826,13.606-24.944c1.418-3.118,2.977-6.803,3.969-9.496
			c0.323-0.877,0.995-2.435,1.819-4.234l24.684-0.443c3.685-0.567,9.355-3.401,10.489-10.771c0.395-2.566,1.237-14.453,2.094-28.997
			c-1.684-2.719-3.167-5.299-4.284-7.569c-6.59-13.393-7.228-27.637,2.976-35.29c1.053-0.834,2.252-1.447,3.491-1.901
			c0.355-10.182,0.466-18.011,0.137-20.477c-2.933,0.554-6.317,1.141-9.935-1.573c0,0-4.109-8.079-7.51-13.465
			c-3.401-5.385-3.544-15.023-4.394-19.417c-0.851-4.394-1.417-8.787-2.409-9.212c-0.992-0.425-5.103-2.976-5.811-6.803
			c-0.709-3.827,1.275-5.669,1.843-5.952c0.567-0.284-1.133-2.693,0.85-3.827c1.984-1.134,2.409,0.283,2.409,0.283
			s-0.566-2.409,1.985-3.26c1.959-0.653,3.496,0.78,4.105,1.482c-0.279-0.781-0.568-1.413-0.854-1.766
			c-1.205-1.488-2.126-3.685-3.543-4.818c-1.418-1.134-14.738-9.497-20.337-10.063c-5.599-0.566-10.913,1.488-13.606,0.425
			c-2.693-1.063-4.039-1.842-5.457-2.834c-1.242-0.87-1.722-1.521-2.251-1.812l0.073-0.657c0,0,2.039-0.408,4.759-2.856
			c2.72-2.448,4.623-6.528,6.392-10.335c1.768-3.808,6.527-15.503,5.846-21.894c-0.679-6.392-2.312-10.742-7.207-12.918
			c0,0-1.632-2.04-2.856-3.672c-1.223-1.632-4.948-3.782-10.497-5.63c-6.185-2.061-17.751-0.425-22.641,2.976
			c-4.889,3.401-6.165,7.866-7.334,12.33c0,0-0.638,3.508-1.169,4.677c-0.531,1.169-0.85,3.295-0.957,4.464
			c-0.107,1.169-0.425,3.401-1.276,4.252c-0.85,0.85-2.551,3.614-2.657,6.59c-0.107,2.976-0.319,12.756,0.425,15.2
			c0.744,2.445,2.445,5.527,4.677,7.866c1.236,1.295,1.69,2.004,1.975,2.612c-0.221,0.287-0.618,0.623-1.337,0.789
			c-1.382,0.319-14.669,4.464-16.582,5.527c-1.913,1.063-3.083,1.701-6.696,2.764c-3.614,1.063-12.543,6.59-14.775,7.76
			s-4.252,4.783-8.504,9.992c-0.911,1.115-1.714,2.315-2.439,3.531c-2.659,4.464-4.197,9.171-5.534,10.925
			C488.935,711.977,487.263,714.826,485.64,717.129z M616.491,762.702c1.417-0.283,3.401-2.763,4.323-3.471
			c0.074-0.057,0.184-0.174,0.31-0.316c-1.038,5.424-1.62,10.815-1.804,12.672c-2.898-1.1-4.735-1.752-5.949-2.42l-0.321-7.177
			C614.325,762.454,615.71,762.858,616.491,762.702z"/>
		<path style="fill:#1D191A;" d="M908.169,697.295c-0.85-3.401-6.803-4.677-11.905-3.401c-5.102,1.276-53.573,13.606-77.809,17.007
			c-6.413,0.9-9.354,23.385-9.354,23.385s-24.661-0.851-28.913,1.701c-2.8,1.68-5.047,4.652-6.133,10.492
			c-1.144-1.425-2.208-2.553-3.143-3.067c0.633-0.676,0.153-1.217-0.002-1.757c-0.284-0.992-1.701-1.701-2.692-3.543
			c-0.991-1.842,0-1.276,0.141-2.551c0.141-1.276-0.425-1.134-1.134-2.551s-1.559-1.701-1.843-3.827
			c-0.284-2.126-0.283-0.566-1.276-2.267c-0.154-0.263-0.362-0.596-0.598-0.962c3.821-3.925,8.595-9.324,10.661-10.661
			c2.409-1.558,4.678-2.409,3.544-7.794c-0.992-2.835-4.252-5.102-5.244-7.794c0,0-7.086-11.481-15.165-18.426
			c-8.079-6.944-12.047-10.204-14.031-14.172c-1.984-3.968-5.386-9.07-9.921-8.929c-3.374,0.105-5.805,0.054-6.829,0.021
			c-0.652-0.464-2.039-1.261-4.509-0.871c-0.855,0.134-1.608,0.484-2.271,0.925c-1.094-0.509-8.187-3.922-6.091-5.886
			c2.268-2.126,2.551-0.992,3.401-1.558c0.85-0.568,0.709-0.993,1.418-1.56c0.708-0.566,3.685-2.977,5.811-5.386
			c2.126-2.408,2.835-4.252,3.685-5.243c0.85-0.992,0.991-2.267,1.417-3.402s2.41-17.291-0.708-24.377
			c-3.118-7.087-9.212-11.764-13.889-12.189c0,0-3.756,0.319-3.969-0.319c-0.213-0.638-2.02-2.764-4.252-3.189
			c-12.291-2.341-22.96,1.807-30.188,6.484c-7.228,4.677-13.181,18.283-9.354,25.086c0,0,1.985-4.252,2.268-5.386
			c0,0,0.992,2.835-0.425,4.252c-1.418,1.418-3.685,4.819-5.67,6.237c-1.275,1.56,0.992,2.692,1.984,2.976
			c0,0,1.276,0.141,1.842,0.85c0.567,0.709,1.276,1.843,0.709,2.41c-0.567,0.567-1.134,1.133-0.425,1.842
			c0.708,0.709,2.693,0.85,3.118,1.701c0.425,0.85,0.85,2.267-0.142,3.117c-0.992,0.85-2.551,2.694-1.701,3.119
			c0.85,0.425,1.559,0.85,1.275,2.408c-0.283,1.559-0.992,4.252-0.142,4.961c0.85,0.709,2.552,1.417,4.961,1.134
			c2.409-0.283,3.968,0.142,5.102,0.567c1.134,0.425,3.827,1.134,5.102,2.551c1.276,1.417,3.401,2.835,4.11,4.252
			c0.602,1.203,0.894,3.015,0.882,4.316c-0.285-0.186-1.147-0.613-2.298,0.078c-1.418,0.85-3.401,1.843-3.401,1.843
			s-0.283,1.417-1.417,1.558c-0.786,0.098-1.697,0.465-2.189,0.684c-1.86,0.286-5.014,1.036-7.449,2.151
			c-8.078,3.118-12.756,12.472-14.456,17.999c-1.701,5.527-6.661,14.599-8.929,17.291c-2.268,2.692-8.079,14.172-8.504,14.597
			c-0.425,0.425-1.276-1.276-3.118-2.976c-1.843-1.701-2.976-6.803-3.826-8.929c-0.85-2.126-2.835-8.503-2.126-9.779
			c0.709-1.275,2.126-2.693,2.976-3.969c0.85-1.276-0.142-2.834-0.425-3.259c-0.283-0.425-1.134-0.708-2.268-0.85
			c-1.134-0.142-0.992-2.268-0.992-2.268s2.41-1.559,1.984-2.126c-0.425-0.567-1.984,0.567-1.984,0.567s0.284-1.276-0.141-2.409
			c-0.425-1.134-1.134-3.118-3.543-3.401c-2.409-0.284-3.118,2.692-3.118,2.692s-0.103-0.148-0.287-0.36
			c-0.609-0.702-2.146-2.135-4.105-1.482c-2.551,0.85-1.985,3.26-1.985,3.26s-0.425-1.418-2.409-0.283
			c-1.984,1.134-0.283,3.543-0.85,3.827c-0.567,0.283-2.551,2.126-1.843,5.952c0.708,3.827,4.819,6.378,5.811,6.803
			c0.992,0.425,1.559,4.818,2.409,9.212c0.85,4.394,0.992,14.031,4.394,19.417c3.401,5.385,7.51,13.465,7.51,13.465
			c3.619,2.714,7.002,2.127,9.935,1.573c0.283-0.053,0.563-0.107,0.837-0.156c3.118-0.566,4.677-4.252,7.936-8.22
			c3.26-3.969,8.079-10.63,12.33-14.74c4.252-4.111,11.906-14.172,12.756-15.307c0.688-0.918,1.733-2.379,1.962-3.133
			c0.302,0.321,0.638,0.733,1.014,1.432c0.992,1.842-0.283,3.544-0.142,7.654c0.141,4.11,1.418,10.063,2.268,13.464
			c0.85,3.402,10.062,9.495,12.756,10.771c2.693,1.276,2.976,0.567,2.834,1.417c-0.082,0.492-0.164,1.89-0.302,3.199
			c-0.196,0.207-0.383,0.416-0.547,0.628c-0.992,1.276-1.984,2.409-2.693,2.268c-0.708-0.142-3.401,0.283-5.385,1.559
			c-1.985,1.276-3.401,2.692-2.551,2.834c0.024,0.004,0.07,0.009,0.103,0.013c-9.3,0.173-15.562,2.153-22.356,3.813
			c-9.567,2.339-10.842,11.905-10.842,11.905s-5.354-0.667-10.115,1.075c-1.239,0.453-2.438,1.067-3.491,1.901
			c-10.205,7.653-9.567,21.897-2.976,35.29c1.117,2.271,2.6,4.85,4.284,7.569c8.249,13.319,21.44,30.063,21.44,31.122
			c0,1.276,1.063,5.102-0.638,10.63c-1.701,5.527-5.315,22.322-5.315,25.936c0,3.614-6.59,14.881-7.653,15.732
			c-1.063,0.85-4.677,5.74-10.417,6.378c-5.74,0.638-3.826,7.228-3.826,7.228c1.414,2.934,3.735,4.87,6.454,6.121
			c8.315,3.825,20.379,1.215,21.821,0.894c0.605-0.135,1.424-0.482,2.259-0.894c1.806-0.89,3.693-2.082,3.693-2.082
			s2.764,1.701,5.315,1.276c2.551-0.425,7.866-8.929,7.866-8.929c0.613,0.817,1.029,9.092,1.061,9.735
			c0.001,0.026,0.002,0.044,0.002,0.044l1.663-0.554l0.251-0.084l1.063-13.181c1.701-2.126,4.889-2.764,4.889-2.764
			c0,2.302-5.558,14.072-5.732,14.439c-0.003,0.006-0.008,0.017-0.008,0.017l1.701,0.425l0.155-0.243l3.71-5.787l-0.039,0.077
			l-0.213,4.464l-1.276,1.063c0,0,0.041,0.198,0.325,0.423c0.374,0.296,1.172,0.64,2.864,0.64c1.215,0,2.204-0.214,2.965-0.466
			c1.103-0.365,1.712-0.81,1.712-0.81s-1.063-1.063-2.126-1.063l0.213-2.764l82.699,0.425c0,0,0.425,0.425,0.638,1.063
			c0.213,0.638,0.213,2.976,0.213,2.976s-3.614,0.425-3.401,1.063c0.059,0.176,0.257,0.384,0.543,0.594
			c0.751,0.55,2.169,1.107,3.709,1.107c0.919,0,1.996-0.12,2.924-0.341c0.559-0.133,1.062-0.303,1.445-0.507
			c0.15-0.08,0.279-0.166,0.387-0.256c0.165-0.137,0.276-0.285,0.32-0.444c0.014-0.05,0.027-0.1,0.027-0.153v-0.85l-0.053-0.004
			l-0.639-0.049l-1.734-0.133l-0.338-0.026l-0.638-3.614h2.551l0.212,1.913l-1.701,0.213c0,0-0.511,0.688,0.319,1.189
			c0.278,0.168,0.714,0.312,1.363,0.405c0.182,0.026,0.384,0.047,0.602,0.064c0.332,0.026,0.692,0.044,1.117,0.044l1.771-0.483
			l0.567-0.155l-2.339-1.276l-0.213-2.338c0,0,84.612-0.85,86.312-0.213c1.701,0.638,1.063,2.338,1.063,2.338l1.488,0.425
			l-0.212,1.488c0,0-4.677,0.213-3.827,0.638c0.722,0.361,2.216,0.872,4.083,1.019c0.33,0.026,0.668,0.044,1.019,0.044
			c1.227,0,2.155,0.054,2.827-0.044c0.609-0.089,1.01-0.301,1.212-0.807c0.425-1.063-3.189-0.638-3.189-0.638l-0.213-1.488
			l1.275-0.425c0,0,1.063-5.315-2.764-6.803c-3.827-1.488-83.974-5.102-83.974-5.102l-2.126-2.764l-0.638-39.117l20.812-0.638
			l0.66,1.913l1.063-0.213l0.425-1.701l5.315-0.425c0,0,0.213-1.488-0.638-1.701c-0.85-0.212-4.464,0.213-4.464,0.213v-1.701
			c0,0,0-1.063-0.85-1.063c-0.851,0-1.685,1.161-1.685,2.649l-3.417,0.115c0,0-1.488-2.126-2.551-2.339
			c-1.063-0.213-1.063-1.063-1.063-1.063l0.638-1.276l0.132-0.056c22.154-1.33,46.679-2.884,61.607-3.931
			c17.94-0.644,32.559-1.646,36.332-3.242c0,0,3.401-0.85-5.102-28.913c0,0,2.551-56.55,5.953-73.132
			C904.343,727.057,909.02,700.696,908.169,697.295z M775.021,901.808c-0.813,0-75.921,4.473-82.45,4.862
			c4.727-6.813,12.294-13.791,12.294-13.791c3.614-1.913,4.252-3.614,5.102-7.441c0.851-3.826-0.637-9.141-1.488-10.204
			c-0.85-1.063-3.189-1.063-5.74-2.764c-2.551-1.701-4.252-6.803-6.165-9.992c-0.831-1.387-2.388-4.26-4.107-7.432
			c16.097,0.996,54.686,0.417,61.36,0.417c0.905,0,3.108-0.087,6.301-0.239c0.003,0.008,0.008,0.019,0.011,0.026
			c0.213,0.638-0.85,1.913-1.488,2.976l-3.827,0.425l-7.016,0.638l-0.213,1.913l28.7-1.276l0.213,40.605
			C776.509,900.533,775.871,901.808,775.021,901.808z"/>
	</g>
	<g>
		<path style="fill:#95CAE5;" d="M617.879,376.197c1.329-34.232-25.345-63.062-59.575-64.391
			c-34.229-1.329-63.061,25.347-64.389,59.579c-1.234,31.785,21.682,58.896,52.367,63.67l-7.604,27.443l30.308-28.069
			C596.021,428.617,616.758,405.104,617.879,376.197z"/>
		<path style="fill:#80AEF2;" d="M799.282,354.151c2.497-64.334-47.636-118.52-111.971-121.018
			c-64.334-2.497-118.52,47.64-121.017,111.974c-2.319,59.739,40.749,110.696,98.421,119.668l-14.291,51.577l56.961-52.754
			C758.2,452.676,797.173,408.482,799.282,354.151z"/>
		<path style="fill:#80AEF2;" d="M318.033,383.116c1.56-40.172-29.746-74.007-69.918-75.566
			c-40.171-1.559-74.006,29.748-75.565,69.92c-1.448,37.302,25.444,69.121,61.454,74.723l-8.923,32.206l35.569-32.94
			C292.381,444.638,316.716,417.042,318.033,383.116z"/>
		<path style="fill:#038ED3;" d="M339.709,289.166c2.947-75.929,66.897-135.102,142.827-132.155
			c75.93,2.947,135.105,66.899,132.158,142.829c-2.737,70.507-58.08,126.527-126.762,131.809l12.099,61.996l-62.201-67.286
			C379.037,408.857,337.22,353.29,339.709,289.166z"/>
		<path style="fill:#BBE9F6;" d="M561.193,242.135c0.979-35.486,30.543-63.462,66.029-62.483
			c35.485,0.981,63.463,30.545,62.484,66.031c-0.909,32.951-26.471,59.41-58.526,62.236l5.976,28.899l-29.409-31.107
			C580.192,297.842,560.366,272.103,561.193,242.135z"/>
		<path style="fill:#B5D2E8;" d="M738.5,408.312c0.837-30.329,26.103-54.239,56.432-53.403
			c30.328,0.838,54.239,26.105,53.403,56.434c-0.777,28.163-22.623,50.776-50.02,53.192l5.107,24.698l-25.135-26.586
			C754.736,455.924,737.791,433.925,738.5,408.312z"/>
		<path style="fill:#95CAE5;" d="M832.87,222.753c2.442-48.804-35.145-90.351-83.946-92.793
			c-48.803-2.442-90.353,35.146-92.795,83.949c-2.267,45.317,29.989,84.354,73.678,91.654l-11.284,39.02l43.678-39.55
			C800.857,297.173,830.808,263.967,832.87,222.753z"/>
		<path style="fill:#B5D2E8;" d="M122.364,363.184c0.885-22.815,20.1-40.594,42.913-39.708
			c22.813,0.886,40.595,20.101,39.709,42.915c-0.822,21.185-17.451,38.017-38.087,39.604l3.635,18.628l-18.689-20.217
			C134.18,399.147,121.616,382.451,122.364,363.184z"/>
		<path style="fill:#B5D2E8;" d="M216.119,283.218c1.865-48.02,42.307-85.444,90.327-83.58c48.021,1.864,85.445,42.31,83.58,90.33
			c-1.73,44.591-36.731,80.018-80.167,83.36l7.652,39.207l-39.338-42.553C240.99,358.914,214.545,323.772,216.119,283.218z"/>
		<path style="fill:#00B7F0;" d="M654.864,436.638c0.749-19.286-14.278-35.528-33.564-36.277
			c-19.284-0.748-35.529,14.28-36.277,33.566c-0.696,17.908,12.217,33.181,29.503,35.872l-4.284,15.46l17.076-15.813
			C642.551,466.171,654.232,452.923,654.864,436.638z"/>
		<path style="fill:#00B5EE;" d="M964.579,329.369c2.034-52.431-38.821-96.59-91.252-98.624
			c-52.428-2.035-96.59,38.823-98.625,91.254c-1.89,48.686,33.213,90.212,80.21,97.526l-11.647,42.031l46.424-42.992
			C931.101,409.664,962.86,373.646,964.579,329.369z"/>
		<path style="fill:#95CAE5;" d="M443.634,372.603c1.351-34.807-25.775-64.124-60.579-65.474
			c-34.808-1.351-64.125,25.774-65.476,60.582c-1.254,32.321,22.049,59.889,53.251,64.744l-7.731,27.904l30.818-28.542
			C421.408,425.907,442.493,401.997,443.634,372.603z"/>
		<path style="fill:#038ED3;" d="M253.626,285.542c1.229-31.66-23.443-58.326-55.103-59.554
			c-31.66-1.229-58.327,23.443-59.556,55.104c-1.141,29.398,20.056,54.475,48.436,58.89l-7.033,25.382l28.032-25.961
			C233.409,334.026,252.589,312.278,253.626,285.542z"/>
		<path style="fill:#038ED3;" d="M887.363,396.527c0.856-22.058,19.434-39.249,41.492-38.393
			c22.057,0.857,39.248,19.435,38.392,41.494c-0.795,20.482-16.871,36.756-36.823,38.29l3.513,18.011l-18.07-19.548
			C898.787,431.297,886.64,415.155,887.363,396.527z"/>
		<path style="fill:#8ECCEF;" d="M139.704,343.818c0.678-17.468-12.934-32.179-30.4-32.857
			c-17.466-0.678-32.179,12.935-32.857,30.402c-0.629,16.219,11.064,30.055,26.721,32.49l-3.88,14.003l15.466-14.323
			C128.551,370.566,139.132,358.568,139.704,343.818z"/>
		<path style="fill:#95CAE5;" d="M1045.537,331.338c1.09-28.094-20.801-51.757-48.894-52.848
			c-28.094-1.09-51.757,20.804-52.847,48.898c-1.013,26.087,17.793,48.339,42.98,52.257l-6.243,22.522l24.877-23.037
			C1027.598,374.363,1044.616,355.064,1045.537,331.338z"/>
	</g>
</g>
</svg>
