<?xml version="1.0" encoding="utf-8"?>
<!-- Generator: Adobe Illustrator 27.5.0, SVG Export Plug-In . SVG Version: 6.00 Build 0)  -->
<svg version="1.1" id="Layer_1" xmlns="http://www.w3.org/2000/svg" xmlns:xlink="http://www.w3.org/1999/xlink" x="0px" y="0px"
	 viewBox="0 0 2000 2000" style="enable-background:new 0 0 2000 2000;" xml:space="preserve">
<g>
	<rect id="Background" style="fill:#FFFFFF;" width="2000" height="2000"/>
	<g>
		<path style="fill:none;stroke:#102048;stroke-width:3.75;stroke-miterlimit:10;" d="M2000,1702.342"/>
		<path style="fill:none;stroke:#102048;stroke-width:3.75;stroke-miterlimit:10;" d="M0,1737.342"/>
		<g>
			<path style="fill:#FFFFFF;stroke:#8CBFBE;stroke-width:3.75;stroke-miterlimit:10;" d="M617.778,449.74
				c-0.022,0.153-0.045,0.306-0.069,0.459H247.787c0-34.72,28.122-62.875,62.842-62.875c10.196,0,19.826,2.432,28.356,6.764
				c9.219-29.264,39.211-49.261,72.682-42.699c29.355,5.756,50.137,32.143,50.137,62.057v0.3c1.016,0.156,2.719,1.511,3.024,0.537
				c10.978-35.051,55.803-39.481,86.68-36.463C588.838,381.47,623.722,408.972,617.778,449.74z"/>
			<path style="fill:#FBC343;" d="M1752.598,1671.131c-28.85,0-52.25,18.35-52.25,41.025c0,9.55,4.175,18.35,11.175,25.325
				l-146.825,0c-18.475-52.3-28.525-108.55-28.525-167.175c0-58.625,10.05-114.9,28.55-167.2l146.875,0
				c-7.05-6.975-11.25-15.8-11.25-25.4c0-22.675,23.4-41.05,52.25-41.05c28.875,0,52.275,18.375,52.275,41.05
				c0,9.6-4.2,18.425-11.25,25.4h76.925l0,125.425c-6.85-6.6-15.4-10.5-24.65-10.5c-22.65,0-41.025,23.4-41.025,52.25
				c0,28.875,18.375,52.275,41.025,52.275c9.25,0,17.8-3.9,24.65-10.5l0,125.425h-76.85c7-6.975,11.175-15.775,11.175-25.325
				C1804.873,1689.481,1781.473,1671.131,1752.598,1671.131z"/>
			<path style="fill:#FFFFFF;" d="M389.825,851.482c0-348.958,282.886-631.843,631.843-631.843s631.843,282.886,631.843,631.843
				H389.825z"/>
			<path style="opacity:0.1;fill:#FBC343;" d="M389.825,851.482c0-348.958,282.886-631.843,631.843-631.843
				s631.843,282.886,631.843,631.843H389.825z"/>
			<g>
				<g>
					<path style="fill:#102048;" d="M944.476,1739.981c-31.505,0-57.23-25.225-58.042-56.538l-95.065-49.746h460.6l-95.065,49.746
						c-0.812,31.313-26.537,56.538-58.042,56.538H944.476z"/>
					<path style="fill:#FFFFFF;" d="M1241.798,1636.197l-87.376,45.723c0,30.686-24.876,55.562-55.561,55.562H944.476
						c-30.686,0-55.562-24.876-55.562-55.562l-87.376-45.723H1241.798 M1262.138,1631.197h-20.339h-440.26h-20.339l18.021,9.43
						l84.771,44.359c1.604,31.973,28.12,57.495,60.485,57.495h154.386c32.365,0,58.881-25.521,60.485-57.495l84.771-44.359
						L1262.138,1631.197L1262.138,1631.197z"/>
				</g>
				<circle style="fill:#FFFFFF;" cx="1020.868" cy="851.482" r="501.547"/>
				<circle style="fill:#FFFFFF;" cx="1020.868" cy="851.482" r="501.547"/>
				<rect x="801.539" y="1200.687" style="fill:#FBC343;" width="440.26" height="239.785"/>
				<rect x="801.539" y="1440.472" style="fill:#708CD5;" width="440.26" height="130.334"/>
				<path style="fill:#FBD682;" d="M1348.35,617.025c-28.875,0-52.275,18.375-52.275,41.05c0,9.6,4.2,18.425,11.25,25.4H1188.85
					V569.8c-6.925,6.825-15.6,10.9-25.05,10.9c-22.675,0-41.025-23.4-41.025-52.275c0-28.85,18.35-52.25,41.025-52.25
					c9.45,0,18.125,4.075,25.05,10.9V377.65c142.5,50.375,255.45,163.325,305.825,305.825H1389.35c7.05-6.975,11.25-15.8,11.25-25.4
					C1400.6,635.4,1377.2,617.025,1348.35,617.025z"/>
				<path style="fill:#FBC343;" d="M1188.85,1226c-6.925,6.825-15.6,10.9-25.05,10.9c-22.675,0-41.025-23.4-41.025-52.25
					c0-28.875,18.35-52.275,41.025-52.275c9.45,0,18.125,4.075,25.05,10.9V1017.85h118.4c-7-6.975-11.175-15.775-11.175-25.325
					c0-22.675,23.4-41.025,52.275-41.025c28.85,0,52.25,18.35,52.25,41.025c0,9.55-4.175,18.35-11.175,25.325H1494.7
					c-50.375,142.525-163.325,255.475-305.85,305.85V1226z"/>
				<path style="fill:#FBC343;" d="M1348.35,951.5c-28.875,0-52.275,18.35-52.275,41.025c0,9.55,4.175,18.35,11.175,25.325h-118.4
					V889.525c7.275,8.325,16.875,13.4,27.45,13.4c22.65,0,41.025-23.4,41.025-52.25c0-28.875-18.375-52.275-41.025-52.275
					c-10.575,0-20.175,5.075-27.45,13.4V683.475h118.475c-7.05-6.975-11.25-15.8-11.25-25.4c0-22.675,23.4-41.05,52.275-41.05
					c28.85,0,52.25,18.375,52.25,41.05c0,9.6-4.2,18.425-11.25,25.4h105.325c18.5,52.3,28.55,108.575,28.55,167.2
					c0,58.625-10.05,114.875-28.525,167.175h-105.275c7-6.975,11.175-15.775,11.175-25.325
					C1400.6,969.85,1377.2,951.5,1348.35,951.5z"/>
				<path style="fill:#FBC343;" d="M854.5,1323.7v-97.3c-6.85,6.6-15.4,10.5-24.65,10.5c-22.65,0-41.025-23.4-41.025-52.25
					c0-28.875,18.375-52.275,41.025-52.275c9.25,0,17.8,3.9,24.65,10.5V1017.85h126.075c-7-6.975-11.175-15.775-11.175-25.325
					c0-22.675,23.4-41.025,52.275-41.025c28.85,0,52.25,18.35,52.25,41.025c0,9.55-4.175,18.35-11.175,25.325h126.1v125.425
					c-6.925-6.825-15.6-10.9-25.05-10.9c-22.675,0-41.025,23.4-41.025,52.275c0,28.85,18.35,52.25,41.025,52.25
					c9.45,0,18.125-4.075,25.05-10.9v97.7c-52.3,18.475-108.55,28.525-167.175,28.525C963.05,1352.225,906.8,1342.175,854.5,1323.7z
					"/>
				<path style="fill:#FBC343;" d="M1021.675,751.025C992.8,751.025,969.4,732.65,969.4,710c0-10.125,4.675-19.4,12.425-26.525
					H854.5V570.2c-6.85,6.6-15.4,10.5-24.65,10.5c-22.65,0-41.025-23.4-41.025-52.275c0-28.85,18.375-52.25,41.025-52.25
					c9.25,0,17.8,3.9,24.65,10.5V377.65c52.3-18.475,108.55-28.525,167.175-28.525c58.625,0,114.875,10.05,167.175,28.525v109.425
					c-6.925-6.825-15.6-10.9-25.05-10.9c-22.675,0-41.025,23.4-41.025,52.25c0,28.875,18.35,52.275,41.025,52.275
					c9.45,0,18.125-4.075,25.05-10.9v113.675H1061.5c7.75,7.125,12.425,16.4,12.425,26.525
					C1073.925,732.65,1050.525,751.025,1021.675,751.025z"/>
				<path style="fill:#FBD682;" d="M736.55,617.025c-28.85,0-52.25,18.375-52.25,41.05c0,9.6,4.2,18.425,11.25,25.4H548.675
					C599.05,540.975,712,428.025,854.5,377.65v109.025c-6.85-6.6-15.4-10.5-24.65-10.5c-22.65,0-41.025,23.4-41.025,52.25
					c0,28.875,18.375,52.275,41.025,52.275c9.25,0,17.8-3.9,24.65-10.5v113.275h-76.925c7.05-6.975,11.25-15.8,11.25-25.4
					C788.825,635.4,765.425,617.025,736.55,617.025z"/>
				<path style="fill:#FBC343;" d="M1348.35,617.025c-28.875,0-52.275,18.375-52.275,41.05c0,9.6,4.2,18.425,11.25,25.4H1188.85
					V569.8c-6.925,6.825-15.6,10.9-25.05,10.9c-22.675,0-41.025-23.4-41.025-52.275c0-28.85,18.35-52.25,41.025-52.25
					c9.45,0,18.125,4.075,25.05,10.9V377.65c142.5,50.375,255.45,163.325,305.825,305.825H1389.35c7.05-6.975,11.25-15.8,11.25-25.4
					C1400.6,635.4,1377.2,617.025,1348.35,617.025z"/>
				<path style="fill:#FBC343;" d="M1348.35,951.5c-28.875,0-52.275,18.35-52.275,41.025c0,9.55,4.175,18.35,11.175,25.325h-118.4
					V889.525c7.275,8.325,16.875,13.4,27.45,13.4c22.65,0,41.025-23.4,41.025-52.25c0-28.875-18.375-52.275-41.025-52.275
					c-10.575,0-20.175,5.075-27.45,13.4V683.475h118.475c-7.05-6.975-11.25-15.8-11.25-25.4c0-22.675,23.4-41.05,52.275-41.05
					c28.85,0,52.25,18.375,52.25,41.05c0,9.6-4.2,18.425-11.25,25.4h105.325c18.5,52.3,28.55,108.575,28.55,167.2
					c0,58.625-10.05,114.875-28.525,167.175h-105.275c7-6.975,11.175-15.775,11.175-25.325
					C1400.6,969.85,1377.2,951.5,1348.35,951.5z"/>
				<path style="fill:#FBC343;" d="M1021.675,751.025C992.8,751.025,969.4,732.65,969.4,710c0-10.125,4.675-19.4,12.425-26.525
					H854.5V570.2c-6.85,6.6-15.4,10.5-24.65,10.5c-22.65,0-41.025-23.4-41.025-52.275c0-28.85,18.375-52.25,41.025-52.25
					c9.25,0,17.8,3.9,24.65,10.5V377.65c52.3-18.475,108.55-28.525,167.175-28.525c58.625,0,114.875,10.05,167.175,28.525v109.425
					c-6.925-6.825-15.6-10.9-25.05-10.9c-22.675,0-41.025,23.4-41.025,52.25c0,28.875,18.35,52.275,41.025,52.275
					c9.45,0,18.125-4.075,25.05-10.9v113.675H1061.5c7.75,7.125,12.425,16.4,12.425,26.525
					C1073.925,732.65,1050.525,751.025,1021.675,751.025z"/>
				<path style="fill:#FBC343;" d="M736.55,617.025c-28.85,0-52.25,18.375-52.25,41.05c0,9.6,4.2,18.425,11.25,25.4H548.675
					C599.05,540.975,712,428.025,854.5,377.65v109.025c-6.85-6.6-15.4-10.5-24.65-10.5c-22.65,0-41.025,23.4-41.025,52.25
					c0,28.875,18.375,52.275,41.025,52.275c9.25,0,17.8-3.9,24.65-10.5v113.275h-76.925c7.05-6.975,11.25-15.8,11.25-25.4
					C788.825,635.4,765.425,617.025,736.55,617.025z"/>
				<g>
					<g>
						<path style="fill:#FDF6E6;" d="M1494.675,685.975h-111.406l4.324-4.277c6.875-6.803,10.508-14.972,10.508-23.623
							c0-21.256-22.319-38.55-49.751-38.55c-27.446,0-49.775,17.294-49.775,38.55c0,8.651,3.633,16.82,10.508,23.623l4.324,4.277
							H1186.35V575.292c-6.772,5.192-14.475,7.908-22.551,7.908c-23.999,0-43.523-24.572-43.523-54.774
							c0-30.189,19.524-54.75,43.523-54.75c8.076,0,15.779,2.717,22.551,7.908V377.65h5v115.398l-4.255-4.192
							c-6.758-6.66-14.814-10.181-23.296-10.181c-21.243,0-38.523,22.318-38.523,49.75c0,27.445,17.28,49.774,38.523,49.774
							c8.481,0,16.538-3.521,23.296-10.181l4.255-4.192v117.148h110.413c-5.315-6.827-8.188-14.789-8.188-22.9
							c0-24.014,24.573-43.55,54.775-43.55c30.19,0,54.751,19.536,54.751,43.55c0,8.112-2.874,16.073-8.188,22.9h99.763V685.975z"/>
					</g>
					<g>
						<path style="fill:#FDF6E6;" d="M1191.35,1323.701h-5v-92.209c-6.772,5.19-14.475,7.908-22.551,7.908
							c-23.999,0-43.523-24.561-43.523-54.749c0-30.203,19.524-54.775,43.523-54.775c8.076,0,15.779,2.717,22.551,7.908v-122.434
							h115.361c-5.281-6.819-8.137-14.755-8.137-22.825c0-23.999,24.573-43.524,54.775-43.524c30.19,0,54.751,19.525,54.751,43.524
							c0,8.07-2.856,16.006-8.137,22.825h99.736v5h-111.328l4.287-4.27c6.831-6.807,10.442-14.95,10.442-23.555
							c0-21.243-22.319-38.524-49.751-38.524c-27.446,0-49.775,17.281-49.775,38.524c0,8.605,3.611,16.748,10.442,23.555l4.287,4.27
							H1191.35v128.896l-4.255-4.192c-6.758-6.658-14.814-10.178-23.296-10.178c-21.243,0-38.523,22.329-38.523,49.775
							c0,27.432,17.28,49.749,38.523,49.749c8.481,0,16.538-3.521,23.296-10.178l4.255-4.192V1323.701z"/>
					</g>
					<g>
						<path style="fill:#FDF6E6;" d="M857,683.475h-5V575.609c-6.66,4.983-14.225,7.59-22.15,7.59
							c-24,0-43.525-24.572-43.525-54.774c0-30.189,19.525-54.75,43.525-54.75c7.925,0,15.49,2.607,22.15,7.59V377.65h5v114.906
							l-4.235-4.081c-6.653-6.411-14.576-9.8-22.915-9.8c-21.243,0-38.525,22.318-38.525,49.75
							c0,27.445,17.283,49.774,38.525,49.774c8.339,0,16.262-3.389,22.915-9.8l4.235-4.081V683.475z"/>
					</g>
				</g>
				<g>
					<g>
						<rect x="799.039" y="1568.306" style="fill:#102048;" width="445.26" height="70.392"/>
						<path style="fill:#FFFFFF;" d="M1241.798,1570.806v65.391h-440.26v-65.391H1241.798 M1246.798,1565.806h-5h-440.26h-5v5
							v65.391v5h5h440.26h5v-5v-65.391V1565.806L1246.798,1565.806z"/>
					</g>
				</g>
				<g>
					<polygon style="fill:#FDF6E6;" points="932.314,1083.953 831.042,1083.953 831.042,1076.453 924.814,1076.453 924.814,973.75 
						932.314,973.75 					"/>
				</g>
			</g>
			<g>
				<path style="fill:#FBC343;" d="M419.79,1729.794c-139.91-57.238-247.241-175.54-290.635-320.343l146.652,7.131
					c-6.653-7.307-10.396-16.299-9.932-25.838c1.101-22.648,25.365-39.84,54.181-38.439c28.841,1.402,51.322,20.867,50.221,43.515
					c-0.464,9.539-5.061,18.126-12.392,24.752l76.759,3.732l-6.072,124.877c-6.521-6.925-14.872-11.235-24.111-11.685
					c-22.623-1.1-42.113,21.38-43.515,50.221c-1.401,28.816,15.816,53.081,38.439,54.181c9.239,0.449,17.968-3.031,25.131-9.29
					L419.79,1729.794z"/>
				<g>
					<path style="fill:#E5ECFF;stroke:#708CD5;stroke-width:3.75;stroke-miterlimit:10;" d="M147.5,1521.3v216.043h446.786V1521.3
						H147.5z M421.575,1585.445c0,8.991-7.357,16.348-16.348,16.348h-68.668c-8.991,0-16.348-7.356-16.348-16.348v0
						c0-8.991,7.357-16.348,16.348-16.348h68.668C414.218,1569.097,421.575,1576.454,421.575,1585.445L421.575,1585.445z"/>
				</g>
				<path style="opacity:0.2;fill:#1F3C88;" d="M594.286,1737.342c0,0-316.073-22.244-446.786-216.043v216.043H594.286z"/>
			</g>
			<path style="fill:#FFFFFF;stroke:#8CBFBE;stroke-width:3.75;stroke-miterlimit:10;" d="M1728.434,376.547
				c0,3.165-0.233,6.264-0.7,9.296h-369.922c0-34.72,28.122-62.875,62.842-62.875c10.196,0,19.826,2.432,28.356,6.764
				c8.03-25.49,31.821-43.949,59.943-43.949c34.72,0,56.927,15.311,56.927,50.03v0.733c12.195,1.866,23.224,7.197,32.054,15.028
				c5.664-28.922,37.207-40.794,67.625-37.902C1705.833,317.5,1728.434,341.827,1728.434,376.547z"/>
		</g>
		<g>
			<g>
				<g>
					<path style="fill:#F9B384;" d="M1373.828,1107.969c3.594-9.844-1.587-15.739-1.74-21.081
						c-0.153-5.342,1.479-10.092-1.406-10.79c-2.885-0.699-6.303,3.703-8.177,26.919L1373.828,1107.969z"/>
					<path style="fill:#F9B384;" d="M1376.977,1117.342l-3.75,15.125h-23.525l-14.39-32.155c-2.075-3.875-7.691-19.451-7.188-22.734
						c0.938-6.12,8.4,9.047,8.75,9.297c-1.326-4.596-5.839-19.08-3.75-22.344c2.5-3.906,10.081,13.019,12.031,18.119
						c-0.975-4.725-6.461-22.567-3.782-25.164c3.209-3.111,10.652,16.599,11.803,22.775c-0.3-4.625-2.524-20.43,0.573-20.052
						c4.271,0.521,11.73,28.237,11.73,28.237S1373.125,1100,1376.977,1117.342z"/>
				</g>
				<path style="fill:#E28B6D;" d="M1340.161,1096.215c2.67-2.488,5.647-4.703,8.994-6.33c1.681-0.786,3.465-1.403,5.315-1.716
					c1.849-0.297,3.766-0.281,5.569,0.184l-0.079,0.482c-3.585-0.268-7.076,0.628-10.277,2.17c-3.239,1.49-6.195,3.576-9.219,5.593
					L1340.161,1096.215z"/>
				<path style="fill:#E28B6D;" d="M1362.492,1094.383c-1.579,0.046-3.07,0.688-3.671,2.029c-0.634,1.298-0.752,2.886-0.621,4.43
					c0.097,1.557,0.42,3.12,0.864,4.641c0.434,1.522,0.975,3.034,1.743,4.411l-0.391,0.294c-1.107-1.284-1.81-2.817-2.392-4.37
					c-0.552-1.568-0.941-3.202-1.06-4.888c-0.067-1.666,0-3.47,0.942-5.045c0.202-0.4,0.583-0.706,0.87-1.049
					c0.372-0.257,0.761-0.525,1.169-0.695c0.438-0.093,0.865-0.247,1.293-0.268l1.278,0.023L1362.492,1094.383z"/>
			</g>
			<g>
				<path style="fill:#F9B384;" d="M1461.066,1709.575l2.264-29.054h-39.111l-5.42,12.25c-2.287,5.169-5.408,9.846-9.139,13.95
					C1421.254,1712.819,1439.31,1719.479,1461.066,1709.575z"/>
				<path style="fill:#102048;" d="M1409.659,1706.721c-5.441,5.985-12.219,10.714-19.916,13.66l-17.488,6.694
					c-4.704,2.988-2.588,10.268,2.985,10.268h70.797c7.261,0,13.301-5.587,13.865-12.827l1.164-14.941
					C1439.31,1719.479,1421.254,1712.819,1409.659,1706.721z"/>
			</g>
			<g>
				<path style="fill:#F9B384;" d="M1556.857,1709.575l-2.264-29.054l39.111,0l5.42,12.25c2.287,5.169,5.408,9.846,9.139,13.95
					C1596.669,1712.819,1578.613,1719.479,1556.857,1709.575z"/>
				<path style="fill:#102048;" d="M1608.264,1706.721c5.441,5.985,12.219,10.714,19.916,13.66l17.488,6.694
					c4.704,2.987,2.588,10.268-2.985,10.268l-70.797,0c-7.261,0-13.301-5.587-13.865-12.827l-1.164-14.941
					C1578.613,1719.479,1596.669,1712.819,1608.264,1706.721z"/>
			</g>
			<path style="fill:#1F3C88;" d="M1603.525,1686.1h-67.3l-36.557-283.055l-18.996,128.622l-3.947,154.433h-63.2
				c-4.958-119.864,1.318-248.679,22-388.975l1.4-22.3l1.6-25.425l127.125,9.325l1.525,17.325l2.95,33.05L1603.525,1686.1z"/>
			<path style="opacity:0.6;fill:#102048;" d="M1570.125,1309.1c-11.969,18.088-95.438,17.463-135.059-4.682l1.859-29.594
				l130.25,1.225L1570.125,1309.1z"/>
			<path style="fill:#708CD5;" d="M1431.993,1256.854c0,0-12.579,32.566-1.786,38.816c10.793,6.25,135.362,7.5,145.221,0
				s-13.999-26.25-11.727-38.75S1431.993,1256.854,1431.993,1256.854z"/>
			<path style="fill:#708CD5;" d="M1421.34,1122.967c-4.375,9.688-20.625,39.06-20.625,39.06l-23.75-44.685
				c-5.318,4.309-11.579,8.331-30.186,8.592c0,0,26.749,98.908,50.811,109.08c39.462,16.682,48.75-57.984,48.75-57.984
				L1421.34,1122.967z"/>
			<path style="fill:#708CD5;" d="M1421.34,1122.967l6.426-15.092c2.551-5.991,7.038-11.094,12.95-13.824
				c0.566-0.261,1.143-0.504,1.73-0.726c11.173-4.229,31.879-10.884,51.082-10.671c6.875,0,32.457-0.309,74.019,10.316
				l11.606,148.434l-137.5-2.813L1421.34,1122.967z"/>
			<path style="opacity:0.3;fill:#1F3C88;" d="M1544.063,1122.967c3.229,55.783-1.272,115.733-33.75,119.6l37.517,10.557
				l40.295-21.563l-15.938-87.813L1544.063,1122.967z"/>
			<path style="fill:#708CD5;" d="M1550.148,1088.936c8.289,1.819,22.129,3.719,29.004,8.406s26.25,105,31.25,128.125
				s6.25,46.875-96.25,50.625l-10-28.125l60-23.125l-23.006-101.875L1550.148,1088.936z"/>
			<path style="fill:#1F3C88;" d="M1439.661,1130.615c0.72,10.04,1.05,20.09,1.384,30.141l0.301,15.081
				c0.039,5.029,0.069,10.057-0.042,15.09l-0.733,0.02c-0.385-5.019-0.628-10.042-0.863-15.066l-0.521-15.075
				c-0.214-10.054-0.432-20.108-0.259-30.172L1439.661,1130.615z"/>
			<g>
				<polygon style="fill:#102048;" points="1553.99,1234.219 1553.99,1240 1525.377,1265.859 1523.133,1255.196 				"/>
				<polygon style="fill:#FFFFFF;" points="1521.21,1262.109 1553.99,1234.219 1492.277,1226.509 				"/>
				<polygon style="fill:#102048;" points="1525.377,1265.859 1406.708,1265.859 1386.837,1171.405 1505.506,1171.405 				"/>
				<polygon style="fill:#FFFFFF;" points="1462.739,1225.264 1449.475,1225.264 1446.975,1212 1460.239,1212 				"/>
			</g>
			<path style="fill:#6F3428;" d="M1452.06,986.282c-13.31-33.782,42.315-46.282,47.741-18.011c0,0,15.893-8.255,31.674,0.496
				c30.4,16.858,10.766,64.341,0,64.341l-54.922-7.166L1452.06,986.282z"/>
			<path style="fill:#F9B384;" d="M1521.6,1050.3v34.581c0,9.5-9.1,17.206-20.375,17.206c-11.25,0-20.35-7.706-20.35-17.206V1050.3
				H1521.6z"/>
			<path style="fill:#3C1C16;" d="M1512.825,1063.275c-5.225,6.925-16.45,14.9-31.95,15.075v-18.225L1512.825,1063.275z"/>
			<path style="fill:#F9B384;" d="M1521.6,994.4v59.2c0,0-11.625,19.75-35.4,18.125c-11.8-0.825-17.75-8.2-20.85-20.025
				c-1.225-4.475-2-9.625-2.55-15.275c-0.9-9.475-1.15-20.45-1.475-32.3V994.4H1521.6z"/>
			<path style="fill:#6F3428;" d="M1461.814,980.041c-7.344-6.398-22.206-1.534-26.577,7.469c-6.172,12.714,1.87,25.546,12.3,29.06
				c15.127,5.097,21.265-10.813,21.265-10.813s4.888,6.907,15.77,5.406c7.84-1.081,10.543-8.786,10.543-8.786
				s2.422,19.668,28.249,19.193c5.542-1.892,8.11-23.383,8.11-23.383l-17.031-17.707L1461.814,980.041z"/>
			<path style="fill:#F9B384;" d="M1514.152,1276.092c-12.686,2.595-25.989,4.135-38.88,2.161
				c-8.024-1.228-15.889-3.985-22.368-8.971c-5.344-4.112-9.967-9.988-12.888-16.066c-0.704-1.466-1.201-3.641,0.021-4.973
				c1.335-1.455,3.761,1.045,5.052,2.015c6.271,4.71,10.938,11.667,10.938,11.667s-9.727-15.971-7.292-18.542
				c1.875-1.979,4.717-1.499,14.509,14.751c0,0,1.845,3.999,3.616,1.916c0.954-1.122-5.588-13.705-0.833-14.792
				c3.646-0.833,7.083,11.054,9.583,15.735c3.125,3.64,8.542,0,8.542,0l26.399,4.969L1514.152,1276.092z"/>
			<path style="fill:#F9B384;" d="M1483.466,1261.735c-0.437-2.739-1.155-5.405-2.157-7.884c-0.232-0.573-0.481-1.147-0.588-1.778
				c-0.393-2.315,1.666-3.016,3.048-2.536c3.031,1.052,5.735,5.081,7.514,8.22c1.556,2.745,2.479,6.222,2.025,9.567
				c-0.141,1.021-8.664,1.038-9.221-0.203c-0.13-0.291-0.146-0.64-0.162-0.974
				C1483.851,1264.666,1483.698,1263.19,1483.466,1261.735z"/>
			<path style="fill:#708CD5;" d="M1493.908,1355.77c1.604,10.28,3.155,20.566,4.595,30.867l4.214,30.917l3.888,30.959l1.8,15.498
				l1.635,15.52l-0.969,0.126l-2.398-15.42l-2.233-15.442l-4.178-30.921l-3.851-30.964c-1.249-10.326-2.387-20.666-3.471-31.013
				L1493.908,1355.77z"/>
			<path style="fill:#1F3C88;" d="M1477.762,1109.784c6.559,5.99,15.391,9.316,24.125,8.742c4.358-0.24,8.646-1.449,12.548-3.454
				c3.928-1.973,7.444-4.725,10.67-7.818l0.543,0.492c-2.911,3.484-6.42,6.528-10.448,8.774c-4.028,2.226-8.576,3.589-13.203,3.86
				c-4.623,0.226-9.302-0.521-13.562-2.288c-4.263-1.741-8.151-4.395-11.197-7.797L1477.762,1109.784z"/>
			<path style="fill:#F9B384;" d="M1518.726,1024.516c2.695-6.674,7.904-8.529,12.964-6.161c8.03,3.757,5.375,24.573-12.964,25.029
				V1024.516z"/>
			<path style="fill:#6F3428;" d="M1522.758,1028.281c-0.377-1.967,0.22-4.03,1.64-5.649c0.738-0.775,1.906-1.371,3.084-1.279
				c1.175,0.107,2.098,0.732,2.736,1.477l-0.436,0.589c-0.848-0.295-1.632-0.529-2.301-0.428c-0.663,0.063-1.235,0.398-1.75,0.936
				c-0.556,0.502-0.947,1.227-1.338,1.957c-0.371,0.746-0.666,1.548-0.901,2.396H1522.758z"/>
			<path style="fill:#3C1C16;" d="M1475.521,1027.98c0,2.336-1.295,4.23-2.892,4.23c-1.597,0-2.892-1.894-2.892-4.23
				s1.295-4.23,2.892-4.23C1474.226,1023.75,1475.521,1025.644,1475.521,1027.98z"/>
			<path style="fill:#3C1C16;" d="M1500.016,1027.98c0,2.336-1.295,4.23-2.892,4.23c-1.597,0-2.892-1.894-2.892-4.23
				s1.295-4.23,2.892-4.23C1498.721,1023.75,1500.016,1025.644,1500.016,1027.98z"/>
			<path style="fill:#E28B6D;" d="M1483.774,1029.621c0.301,0.864,0.476,1.766,0.617,2.677c0.065,0.456,0.091,0.917,0.112,1.378
				c0.013,0.436,0.056,1.041-0.267,1.672c-0.713,1.245-1.867,1.434-2.486,1.822c-0.619,0.328-1.11,0.868-1.399,1.497
				c-0.647,1.208-0.298,2.839,0.764,3.743c1.055,0.951,2.836,1.092,4.539,0.943l0.165,0.714c-1.687,0.624-3.843,0.894-5.7-0.358
				c-1.79-1.262-2.453-3.873-1.436-5.859c0.49-0.967,1.294-1.773,2.265-2.245c0.916-0.421,1.678-0.683,1.908-1.032
				c0.254-0.287,0.235-1.409,0.268-2.203c0.041-0.863-0.016-1.727-0.068-2.604L1483.774,1029.621z"/>
			<path style="fill:#3C1C16;" d="M1477.152,1053.01c1.452,0.473,2.999,0.71,4.532,0.822c1.536,0.086,3.073,0.125,4.582-0.095
				c1.513-0.156,2.998-0.496,4.407-1.044c1.424-0.516,2.76-1.254,4.075-2.125l0.504,0.532c-1.043,1.299-2.418,2.333-3.927,3.096
				c-1.521,0.744-3.178,1.196-4.846,1.387c-1.672,0.139-3.358,0.138-4.997-0.18c-1.634-0.302-3.255-0.787-4.675-1.746
				L1477.152,1053.01z"/>
			<path style="fill:#3C1C16;" d="M1465.74,1021.809c0.668-1.131,1.504-2.211,2.632-3.02c1.103-0.827,2.547-1.311,3.971-1.245
				c1.427,0.074,2.749,0.602,3.904,1.285c1.153,0.708,2.14,1.601,3.027,2.568l-0.324,0.365c-1.082-0.7-2.114-1.44-3.232-1.979
				c-1.103-0.553-2.263-0.953-3.427-1.003c-2.373-0.189-4.454,1.449-6.156,3.317L1465.74,1021.809z"/>
			<path style="fill:#3C1C16;" d="M1490.281,1021.809c0.759-1.25,1.844-2.349,3.183-3.067c1.325-0.743,2.888-1.055,4.405-0.981
				c3.079,0.202,5.773,1.891,7.708,4.009l-0.324,0.365c-2.315-1.581-4.772-3.01-7.456-3.138c-2.666-0.229-5.257,1.039-7.121,3.1
				L1490.281,1021.809z"/>
			<circle style="opacity:0.4;fill:#EE6F57;" cx="1505.738" cy="1042.791" r="7.791"/>
			<path style="opacity:0.4;fill:#EE6F57;" d="M1472.525,1043.975c0,4.1-3.175,7.425-7.175,7.725c-1.225-4.475-2-9.625-2.55-15.275
				c0.625-0.175,1.25-0.25,1.925-0.25C1469.025,1036.175,1472.525,1039.675,1472.525,1043.975z"/>
			<g>
				<path style="fill:#C6EAE9;" d="M1756.294,1009.195h-99.993c-25.161,0-45.557-20.397-45.557-45.557v-14.384
					c0-25.161,20.397-45.557,45.557-45.557h99.993c25.161,0,45.557,20.397,45.557,45.557v14.384
					C1801.851,988.799,1781.455,1009.195,1756.294,1009.195z"/>
				<polygon style="fill:#C6EAE9;" points="1639.803,970.127 1593.698,1009.195 1685.908,1009.195 				"/>
				<g>
					<circle style="fill:#FFFFFF;" cx="1671.925" cy="956.446" r="9.834"/>
					<circle style="fill:#FFFFFF;" cx="1706.298" cy="956.446" r="9.834"/>
					<circle style="fill:#FFFFFF;" cx="1740.671" cy="956.446" r="9.834"/>
				</g>
			</g>
		</g>
		<g>
			<path style="fill:#EE6F57;" d="M461.175,1148.007c-4.99,6.264-20.916,59.457-20.916,59.457s16.669,10.439,42.363,7.669
				C481.667,1215.108,461.175,1148.007,461.175,1148.007z"/>
			<g>
				<path style="fill:#F9B384;" d="M512.003,1713.51l1.954-25.081h-33.763l-4.679,10.575c-1.974,4.462-4.668,8.5-7.89,12.043
					C477.635,1716.311,493.222,1722.06,512.003,1713.51z"/>
				<path style="fill:#102048;" d="M467.626,1711.047c-4.697,5.167-10.548,9.249-17.193,11.792l-15.096,5.778
					c-4.061,2.579-2.234,8.864,2.576,8.864h61.116c6.269,0,11.482-4.823,11.969-11.073l1.005-12.898
					C493.222,1722.06,477.635,1716.311,467.626,1711.047z"/>
			</g>
			<g>
				<path style="fill:#F9B384;" d="M612.167,1713.51l-1.954-25.081h33.763l4.679,10.575c1.974,4.462,4.668,8.5,7.89,12.043
					C646.535,1716.311,630.948,1722.06,612.167,1713.51z"/>
				<path style="fill:#102048;" d="M656.544,1711.047c4.697,5.167,10.548,9.249,17.193,11.792l15.096,5.778
					c4.061,2.579,2.234,8.864-2.576,8.864h-61.116c-6.268,0-11.482-4.823-11.969-11.073l-1.005-12.898
					C630.948,1722.06,646.535,1716.311,656.544,1711.047z"/>
			</g>
			<path style="fill:#708CD5;" d="M658.6,1698.225h-68.4l-49.725-298.65l-15.55,298.65H462.4l3.7-306.6
				c-6.375-28.525-4.3-50.55,4.575-73.65c2.225-5.875,4.925-11.825,8.025-17.975c2.075-4.1,4.325-8.325,6.775-12.65h109.4
				l1.95,12.65l1.1,6.975L658.6,1698.225z"/>
			<polygon style="fill:#F9B384;" points="594.529,1093.858 562.161,1134.415 597.926,1149.971 621.509,1102.068 610.986,1092.478 
							"/>
			<polygon style="fill:#F9B384;" points="543.149,1140.807 506.012,1140.807 508.512,1090.291 545.649,1090.291 			"/>
			<path style="fill:#E28B6D;" d="M561.386,1050.514c8.052,10.372,12.419,15.694,12.009,18.014
				c-0.409,2.32-3.275,7.233-13.237,5.595C560.567,1072.349,561.386,1050.514,561.386,1050.514z"/>
			<path style="fill:#F9B384;" d="M563.5,1080.19c-1.383,8.714-5.21,15.007-13.762,15.86c-21.831,2.19-42.578-6.916-42.578-6.916
				l-4.011-47.672l19.295-13.831l38.936,5.832c0.415,8.599,1.959,19.226,2.559,29.277
				C564.307,1068.986,564.33,1075.026,563.5,1080.19z"/>
			<path style="fill:#102048;" d="M545.556,1039.824c9.462,8.916,20.829,9.656,27.866,3.639
				c14.894-12.737,5.149-43.488-27.866-32.025c0,0-36.392-16.558-57.499,5.277c-21.107,21.835-5.084,45.278-31.144,79.675
				c0,0,49.828,32.898,108.418,1.758c-9.365-16.778-27.802-3.518-28.327-31.709C536.822,1066.026,534.093,1042.553,545.556,1039.824
				z"/>
			<path style="opacity:0.3;fill:#1F3C88;" d="M602.5,1300c-0.4,2.25-1.975,4.6-4.575,6.975c-16.6,15.125-74.6,29.925-127.25,11
				c2.225-5.875,4.925-11.825,8.025-17.975H602.5z"/>
			<path style="fill:#EE6F57;" d="M598,1307.5c-7.65,3.375-88.1,20.425-126.325-1.675c-2.9-2.525-10.425-4.9,0.2-18.475
				c10.625-13.6-6.125-85.95-10.7-139.35c14.025-13.575,33.05-23.25,50.975-26.75c15.175-2.975,31.525-1.7,44.85,0
				c13.325,1.7,35.4,10.625,35.4,10.625l-1.7,60.725c0,0-0.525,2.875-1.175,7.65c0-0.025,0-0.025-0.025,0
				c-1.125,8.25-2.725,22.2-2.775,36.55c-0.125,17.4,2,35.45,9.825,44.75C610.2,1297.825,605.625,1304.1,598,1307.5z"/>
			<path style="fill:#EE6F57;" d="M632.454,1169.7l-9.224,51.829c-0.076-0.025-0.127-0.051-0.178-0.102l-11.594-7.313l-0.331-0.229
				c-0.178-0.127-0.357-0.255-0.535-0.357l-44.848-28.285l-18.907-65.105c18.474,2.752,38.681,4.128,51.32,15.569
				C607.278,1143.989,622.185,1159.202,632.454,1169.7z"/>
			<path style="fill:#F9B384;" d="M690.93,1104.337c0,0-14.655,98.663-17.205,108.537c-0.35,1.35-0.75,2.7-1.25,4.075
				c-3.075,8.675-9.225,17.15-21.35,16.3c-2.7-0.175-5.975-1.1-9.475-2.45c-6-2.3-12.675-5.875-18.425-9.275l9.225-51.825
				c3.95,4.025,7.225,7.35,9.225,9.3l15.985-79.441L690.93,1104.337z"/>
			<path style="fill:#FBC343;" d="M757.431,1010.103c-28.875,0-52.275,18.35-52.275,41.025c0,9.55,4.175,18.35,11.175,25.325
				H590.256V951.028c-6.85,6.6-15.4,10.5-24.65,10.5c-22.65,0-41.025-23.4-41.025-52.275c0-28.85,18.375-52.25,41.025-52.25
				c9.25,0,17.8,3.9,24.65,10.5V742.078h127.325c-7.75,7.125-12.425,16.4-12.425,26.525c0,22.65,23.4,41.025,52.275,41.025
				c28.85,0,52.25-18.375,52.25-41.025c0-10.125-4.675-19.4-12.425-26.525h127.35v128.325c7.275-8.325,16.875-13.4,27.45-13.4
				c22.65,0,41.025,23.4,41.025,52.275c0,28.85-18.375,52.25-41.025,52.25c-10.575,0-20.175-5.075-27.45-13.4v128.325h-126.1
				c7-6.975,11.175-15.775,11.175-25.325C809.681,1028.453,786.281,1010.103,757.431,1010.103z"/>
			<path style="fill:#F9B384;" d="M657.707,1107.071c-1.513-9.839,0.418-20.405,2.606-32.368l34.076,0.322
				c-4.432,10.299,3.737,20.6-3.458,29.313l-15.749,16.887L657.707,1107.071z"/>
			<path style="fill:#F9B384;" d="M621.509,1102.068c8.41-5.678,17.785-26.891,17.785-26.891c-6.522-0.33-30.154-0.88-39.306,0.007
				c0,0,0.061,12.729-5.46,18.675C591.237,1097.403,621.509,1102.068,621.509,1102.068z"/>
			<path style="fill:#F9B384;" d="M542.466,1065.15c-0.871-5.078-3.848-8.025-8.791-9.476c-3.243-0.952-7.71,0.572-8.861,4.256
				c-2.047,6.55,1.092,23.063,16.103,15.694C542.598,1074.888,543.551,1071.48,542.466,1065.15z"/>
			<path style="fill:#6F3428;" d="M472.482,1237.607c-1.033-6.12-2.026-12.244-2.935-18.38l-2.65-18.417l-2.405-18.45
				c-0.756-6.156-1.449-12.321-2.065-18.497l0.726-0.1c1.059,6.115,2.042,12.241,2.962,18.376l2.623,18.423l2.378,18.456
				c0.767,6.155,1.45,12.322,2.093,18.493L472.482,1237.607z"/>
			<path style="opacity:0.3;fill:#6F3428;" d="M589.5,1200.25c-1.125,8.25-2.725,22.2-2.775,36.55
				c-10.95-19.8-15.8-48.275-15.8-48.275S580.225,1194.375,589.5,1200.25z"/>
			<path style="fill:#6F3428;" d="M592.38,1132.234c-2.152,0.176-4.248,0.452-6.192,1.262c-1.922,0.816-3.766,1.828-5.387,3.183
				c-1.637,1.327-3.131,2.847-4.491,4.497c-1.373,1.634-2.641,3.403-3.788,5.224l-0.669-0.3c0.748-2.137,1.87-4.076,3.159-5.924
				c1.321-1.82,2.866-3.497,4.628-4.947c1.811-1.383,3.832-2.549,6.029-3.229c2.197-0.716,4.54-0.779,6.762-0.497L592.38,1132.234z"
				/>
			<path style="fill:#1F3C88;" d="M521.352,1397.564c3.245,0.612,6.471,1.189,9.749,1.354c3.268,0.175,6.546,0.28,9.816,0.011
				c3.271-0.184,6.537-0.539,9.781-1.066c3.244-0.505,6.484-1.168,9.674-1.959l0.245,0.691c-3.113,1.288-6.345,2.168-9.622,2.879
				c-3.283,0.671-6.619,1.104-9.972,1.31c-3.353,0.174-6.73,0.111-10.069-0.289c-3.347-0.345-6.634-1.167-9.806-2.226
				L521.352,1397.564z"/>
			<path style="opacity:0.4;fill:#EE6F57;" d="M563.5,1080.19c-0.53,0.115-1.083,0.161-1.66,0.161c-4.956,0-8.944-3.988-8.944-8.944
				c0-4.933,3.988-8.944,8.944-8.944c0.715,0,1.429,0.092,2.098,0.277C564.307,1068.986,564.33,1075.026,563.5,1080.19z"/>
			<path style="fill:#6F3428;" d="M534.416,1063.956c-0.829-1.295-1.777-2.631-2.823-2.913c-0.48-0.137-1.009-0.032-1.6,0.307
				c-0.611,0.293-1.163,0.839-1.822,1.31l-0.549-0.394c0.331-0.787,0.771-1.545,1.506-2.155c0.698-0.594,1.845-1.029,2.942-0.714
				c1.038,0.373,1.761,1.096,2.206,1.876c0.457,0.78,0.73,1.62,0.786,2.486L534.416,1063.956z"/>
			
				<ellipse transform="matrix(0.1602 -0.9871 0.9871 0.1602 -602.0815 1328.6194)" style="fill:#102048;" cx="479.762" cy="1018.141" rx="15.661" ry="15.66"/>
			<path style="opacity:0.4;fill:#EE6F57;" d="M672.475,1216.95c-3.075,8.675-9.225,17.15-21.35,16.3
				c-2.7-0.175-5.975-1.1-9.475-2.45C646.625,1217.325,657.075,1213.625,672.475,1216.95z"/>
			<g>
				<path style="fill:#F9B384;" d="M696.15,1069.475c-0.25,1.275-0.995,2.641-1.325,4.35c-2.481,12.841-3.3,14.775-3.3,14.775
					l-9.8-5c1.925-6.725,6.804-16.26,9.404-19.485c1.4-1.75,2.321-2.865,3.846-1.44
					C696.15,1063.725,696.825,1065.925,696.15,1069.475z"/>
				<path style="fill:#E28B6D;" d="M696.15,1069.475c-4.075-1.125-2-3.025-1.175-6.8
					C696.15,1063.725,696.825,1065.925,696.15,1069.475z"/>
			</g>
			<g>
				<path style="fill:#F9B384;" d="M606.27,1062.815c-0.198,1.284,0.039,2.822-0.23,4.542c-2.026,12.921-1.912,15.018-1.912,15.018
					l10.915-1.376c0.472-6.979-0.88-17.605-2.231-21.521c-0.723-2.121-1.21-3.482-3.128-2.66
					C608.222,1057.407,606.841,1059.247,606.27,1062.815z"/>
				<path style="fill:#E28B6D;" d="M606.27,1062.815c4.215,0.325,2.908-2.166,3.414-5.997
					C608.222,1057.407,606.841,1059.247,606.27,1062.815z"/>
			</g>
			<path style="fill:#E28B6D;" d="M615.179,1072.954c-0.004,1.098,0.429,2.142,1.102,2.891c0.67,0.745,1.823,1.36,2.441,2.688
				c0.531,1.316,0.293,2.661-0.063,3.801c-0.386,1.151-0.947,2.239-1.717,3.157l-0.414-0.26c0.461-1.048,0.845-2.104,1.078-3.189
				c0.253-1.066,0.346-2.167-0.025-3.026c-0.298-0.875-1.33-1.464-2.118-2.503c-0.794-1.05-1.054-2.413-0.77-3.619L615.179,1072.954
				z"/>
			<path style="fill:#E28B6D;" d="M685.559,1074.457c-0.286,1.596-1.139,3.121-2.427,4.2c-1.313,1.157-2.947,1.451-3.671,2.589
				c-0.839,1.082-1.194,2.573-1.298,4.043c-0.117,1.479,0.074,2.989,0.507,4.455l-0.451,0.189c-0.77-1.413-1.142-3.044-1.148-4.682
				c0.029-1.617,0.339-3.338,1.41-4.762c1.161-1.497,2.925-1.801,3.993-2.657c1.161-0.857,2.098-2.078,2.611-3.498L685.559,1074.457
				z"/>
			<g style="opacity:0.3;">
				<path style="fill:#6F3428;" d="M472.295,1287.1c2.118,2.62,5.228,4.299,8.35,5.721c3.172,1.371,6.457,2.551,9.829,3.437
					c3.352,0.951,6.763,1.735,10.209,2.283c3.439,0.581,6.913,0.979,10.399,0.974l0.108,0.971c-3.578,0.679-7.222,0.557-10.8,0.219
					c-3.581-0.385-7.115-1.103-10.585-2.062c-3.442-1.044-6.873-2.212-10.084-3.923c-3.159-1.702-6.399-3.792-8.265-7.119
					L472.295,1287.1z"/>
			</g>
			<g>
				<path style="fill:#D3DFFF;" d="M241.904,1096.715h99.993c25.161,0,45.557-20.397,45.557-45.557v-14.385
					c0-25.16-20.397-45.557-45.557-45.557h-99.993c-25.161,0-45.557,20.397-45.557,45.557v14.385
					C196.346,1076.319,216.743,1096.715,241.904,1096.715z"/>
				<polygon style="fill:#D3DFFF;" points="358.395,1057.647 404.5,1096.715 312.29,1096.715 				"/>
				<g>
					
						<ellipse transform="matrix(0.9732 -0.2298 0.2298 0.9732 -231.1251 102.8888)" style="fill:#FFFFFF;" cx="326.273" cy="1043.966" rx="9.834" ry="9.834"/>
					
						<ellipse transform="matrix(0.9732 -0.2298 0.2298 0.9732 -232.0446 94.9915)" style="fill:#FFFFFF;" cx="291.9" cy="1043.966" rx="9.834" ry="9.834"/>
					
						<ellipse transform="matrix(0.9732 -0.2298 0.2298 0.9732 -232.9641 87.0943)" style="fill:#FFFFFF;" cx="257.527" cy="1043.966" rx="9.834" ry="9.834"/>
				</g>
			</g>
		</g>
		<line style="fill:none;stroke:#102048;stroke-width:3.75;stroke-miterlimit:10;" x1="0" y1="1737.342" x2="2000" y2="1737.342"/>
	</g>
</g>
</svg>
