<?xml version="1.0" encoding="utf-8"?>
<!-- Generator: Adobe Illustrator 27.5.0, SVG Export Plug-In . SVG Version: 6.00 Build 0)  -->
<svg version="1.1" xmlns="http://www.w3.org/2000/svg" xmlns:xlink="http://www.w3.org/1999/xlink" x="0px" y="0px"
	 viewBox="0 0 500 500" style="enable-background:new 0 0 500 500;" xml:space="preserve">
<g id="BACKGROUND">
	<rect y="0" style="fill:#FFF7EE;" width="500" height="500"/>
</g>
<g id="OBJECTS">
	<g>
		<defs>
			<rect id="SVGID_1_" y="0" width="500" height="500"/>
		</defs>
		<clipPath id="SVGID_00000049916160004466694240000013887800303079368321_">
			<use xlink:href="#SVGID_1_"  style="overflow:visible;"/>
		</clipPath>
		<path style="clip-path:url(#SVGID_00000049916160004466694240000013887800303079368321_);fill:#4D94CB;" d="M251.022,246.899
			v20.349H307.4c8.979,0,16.258-7.279,16.258-16.258v-56.233h-20.114c-0.659,0-1.196,0.537-1.196,1.197l0,1.565
			c0,0.377,0.211,0.75,0.578,1.023c4.117,3.064,6.384,7.232,6.384,11.737c0,8.871-9.074,16.089-20.228,16.089
			c-11.155,0-20.229-7.217-20.229-16.089c0-5.36,3.32-10.343,8.881-13.328c0.32-0.172,0.527-0.563,0.527-0.997
			c0-0.66-0.537-1.197-1.196-1.197h-26.043v25.663c0,2.22-1.8,4.02-4.02,4.02c-1.438,0-2.804-0.748-3.484-2.015
			c-2.4-4.47-6.357-7.393-10.841-7.393c-7.327,0-13.266,7.793-13.266,17.406s5.939,17.406,13.266,17.406
			c3.716,0,7.067-2.014,9.473-5.248c0.782-1.051,1.977-1.715,3.287-1.715h1.565C249.222,242.879,251.022,244.679,251.022,246.899z"
			/>
		<path style="clip-path:url(#SVGID_00000049916160004466694240000013887800303079368321_);fill:#7C5784;" d="M303.52,191.817
			h20.349v-56.378c0-8.979-7.279-16.258-16.258-16.258h-56.233v20.114c0,0.659,0.537,1.196,1.197,1.196h1.565
			c0.377,0,0.75-0.211,1.023-0.578c3.064-4.117,7.232-6.384,11.737-6.384c8.871,0,16.089,9.074,16.089,20.228
			c0,11.155-7.217,20.229-16.089,20.229c-5.36,0-10.343-3.32-13.328-8.881c-0.172-0.32-0.564-0.527-0.997-0.527
			c-0.66,0-1.197,0.537-1.197,1.196l0,26.043h25.663c2.22,0,4.02,1.8,4.02,4.02c0,1.438-0.748,2.804-2.015,3.484
			c-4.47,2.4-7.393,6.357-7.393,10.841c0,7.327,7.793,13.266,17.406,13.266c9.613,0,17.406-5.939,17.406-13.266
			c0-3.716-2.014-7.067-5.248-9.473c-1.051-0.782-1.715-1.977-1.715-3.287l0-1.565C299.5,193.617,301.3,191.817,303.52,191.817z"/>
		<path style="clip-path:url(#SVGID_00000049916160004466694240000013887800303079368321_);fill:#FFAF4B;" d="M248.978,139.53
			v-20.349H192.6c-8.979,0-16.258,7.279-16.258,16.258v56.233l20.114,0c0.659,0,1.196-0.537,1.196-1.197v-1.565
			c0-0.377-0.211-0.75-0.578-1.023c-4.117-3.064-6.384-7.232-6.384-11.737c0-8.871,9.074-16.089,20.228-16.089
			c11.155,0,20.229,7.217,20.229,16.089c0,5.36-3.32,10.343-8.881,13.328c-0.32,0.172-0.527,0.563-0.527,0.997
			c0,0.66,0.537,1.197,1.196,1.197h26.043V166.01c0-2.22,1.8-4.02,4.02-4.02c1.438,0,2.804,0.748,3.484,2.015
			c2.4,4.47,6.357,7.393,10.841,7.393c7.327,0,13.266-7.793,13.266-17.406c0-9.613-5.939-17.406-13.266-17.406
			c-3.716,0-7.067,2.014-9.473,5.248c-0.782,1.051-1.977,1.715-3.287,1.715l-1.565,0C250.778,143.549,248.978,141.75,248.978,139.53
			z"/>
		<path style="clip-path:url(#SVGID_00000049916160004466694240000013887800303079368321_);fill:#FF8640;" d="M196.48,194.612
			h-20.349v56.378c0,8.979,7.279,16.258,16.258,16.258h56.233v-20.114c0-0.659-0.537-1.196-1.197-1.196h-1.565
			c-0.377,0-0.75,0.211-1.023,0.578c-3.064,4.117-7.232,6.384-11.738,6.384c-8.871,0-16.089-9.074-16.089-20.228
			c0-11.155,7.217-20.229,16.089-20.229c5.36,0,10.343,3.32,13.328,8.881c0.172,0.32,0.563,0.527,0.997,0.527
			c0.66,0,1.197-0.537,1.197-1.196l0-26.043l-25.663,0c-2.22,0-4.02-1.8-4.02-4.02c0-1.438,0.748-2.804,2.015-3.484
			c4.47-2.4,7.393-6.357,7.393-10.841c0-7.327-7.793-13.266-17.406-13.266c-9.613,0-17.406,5.939-17.406,13.266
			c0,3.717,2.014,7.067,5.248,9.473c1.051,0.782,1.715,1.977,1.715,3.287v1.565C200.5,192.812,198.7,194.611,196.48,194.612z"/>
		<path style="opacity:0.1;clip-path:url(#SVGID_00000049916160004466694240000013887800303079368321_);" d="M552.263,343.398
			l-128.395-72.881l-1.832,3.235l-8.027-4.545l-0.19,0.336c0.12-1.371-0.327-4.339-5.427-7.227l-20.435-11.571
			c-1.121-0.635-2.236-1.266-3.33-1.885l-15.256-8.638l-0.733-0.415c-2.118-1.199-4.808-0.454-6.008,1.664l-1.446,2.553
			c-0.871,1.538-0.706,3.371,0.255,4.723l-0.56,0.602l-2.132-1.207c-2.118-1.199-4.808-0.454-6.008,1.664l-1.446,2.553
			c-1.142,2.016-0.507,4.534,1.382,5.808l-0.987,1.061l-3.324-1.882c-2.118-1.199-4.808-0.454-6.008,1.664l-1.446,2.553
			c-1.199,2.118-0.454,4.808,1.664,6.008l0.938,0.531l-1.386,1.514l-31.459-17.812c-2.824-1.599-6.408-0.606-8.007,2.218l0,0
			c-1.599,2.824-0.606,6.408,2.218,8.007l37.201,21.063l18.178,9.46c1.303,0.678,1.06,2.611-0.37,2.945l-7.238,1.691
			c-4.887,1.142-9.111,4.196-11.726,8.479l-0.282,0.462c-1.209,1.979-0.119,4.394,1.876,5.022c0.037,0.012,0.076,0.021,0.114,0.032
			c0.147,0.041,0.298,0.071,0.454,0.091c0.051,0.007,0.101,0.015,0.153,0.02c0.198,0.017,0.4,0.022,0.609,0.004l16.557-1.455
			c0,0,26.96,1.039,32.28-2.973l-0.191,0.337l8.027,4.545l-1.832,3.235l128.395,72.881l18.458-32.599l0,0L552.263,343.398z"/>
		<path style="opacity:0.1;clip-path:url(#SVGID_00000049916160004466694240000013887800303079368321_);" d="M176.615,219.685
			l-36.655,22l-17.187,11.16c-1.232,0.8-2.794-0.364-2.38-1.773l2.094-7.132c1.413-4.815,0.836-9.996-1.603-14.381l-0.263-0.473
			c-0.912-1.64-2.814-2.109-4.317-1.474l0,0l-0.001,0c-0.354,0.15-0.685,0.361-0.976,0.633c-0.029,0.027-0.055,0.055-0.083,0.083
			c-0.108,0.108-0.209,0.225-0.303,0.35c-0.031,0.041-0.063,0.081-0.093,0.124c-0.112,0.164-0.216,0.337-0.303,0.528l-2.756,6.051
			l0,0l-4.133,9.075c0,0-14.184,22.951-13.313,29.556l-0.199-0.332l-7.909,4.747l-1.913-3.187l-143.873,87.166l26.298,43.816
			l143.872-87.166l-1.913-3.187l7.909-4.747l-0.199-0.331c1.134,0.779,3.937,1.853,8.962-1.163l1.394-0.837
			c0.737-0.442,1.605-0.963,2.577-1.547l3.007-1.805c0.945-0.567,1.94-1.165,2.978-1.787l5.067-3.041
			c0.622-0.373,1.247-0.748,1.876-1.126l4.742-2.846c0.154-0.092,0.305-0.183,0.458-0.275l6.411-3.848
			c0.497-0.298,0.981-0.589,1.454-0.872l1.998-1.199c0.229-0.137,0.449-0.269,0.668-0.401l4.362-2.618
			c0.095-0.057,0.177-0.107,0.264-0.158l1.916-1.15c2.087-1.253,2.764-3.961,1.511-6.048l-1.51-2.516
			c-0.91-1.516-2.586-2.275-4.236-2.104l-0.248-0.783l2.101-1.261c2.087-1.253,2.764-3.96,1.511-6.048l-1.51-2.516
			c-1.192-1.986-3.696-2.674-5.735-1.658l-0.437-1.382l3.275-1.966c2.087-1.253,2.764-3.96,1.511-6.048l-1.51-2.516
			c-1.253-2.087-3.96-2.764-6.048-1.511l-0.925,0.555l-0.635-1.952l30.997-18.604c2.782-1.67,3.684-5.278,2.014-8.061
			C183.006,218.917,179.397,218.015,176.615,219.685z"/>
		<path style="opacity:0.1;clip-path:url(#SVGID_00000049916160004466694240000013887800303079368321_);" d="M180.073,101.366
			l-13.281-15.606c-0.952-1.118,0.001-2.817,1.452-2.589l7.343,1.157c4.957,0.781,10.02-0.459,14.055-3.442l0.435-0.322
			c1.509-1.116,1.729-3.062,0.906-4.471l0,0l-0.001-0.001c-0.194-0.332-0.446-0.632-0.753-0.886
			c-0.031-0.025-0.063-0.049-0.095-0.073c-0.12-0.093-0.249-0.177-0.385-0.254c-0.045-0.026-0.088-0.052-0.135-0.076
			c-0.177-0.09-0.362-0.171-0.563-0.233l-15.887-4.883c0,0-24.587-11.109-31.025-9.394l0.303-0.24l-5.727-7.232l2.914-2.308
			L48.104-65.332L8.041-33.609L99.568,82.235l2.914-2.308l5.727,7.232l0.303-0.24c-0.627,1.225-1.331,4.143,2.308,8.738l0.799,1.009
			c0.228,0.288,0.475,0.599,0.74,0.935l5.644,7.127c0.893,1.128,1.823,2.303,2.779,3.509l1.527,1.929
			c0.867,1.095,1.742,2.2,2.616,3.303l1.53,1.933c0.136,0.171,0.27,0.341,0.405,0.511l2.725,3.441
			c0.41,0.518,0.814,1.028,1.209,1.527l0.94,1.187c0.624,0.788,1.221,1.542,1.786,2.256l1.14,1.44
			c0.199,0.251,0.393,0.496,0.58,0.732l1.077,1.36c0.728,0.92,1.315,1.661,1.717,2.169l0.069,0.087
			c0.195,0.247,0.331,0.418,0.424,0.536l0.104,0.132c0.007,0.009,0.026,0.033,0.026,0.033l0,0l0.523,0.66
			c1.511,1.908,4.284,2.231,6.192,0.719l2.3-1.822c1.386-1.097,1.922-2.858,1.541-4.471l0.745-0.347l1.521,1.921
			c1.511,1.909,4.284,2.231,6.192,0.719l2.3-1.821c1.816-1.438,2.176-4.01,0.906-5.901l1.314-0.611l2.371,2.995
			c1.511,1.909,4.284,2.231,6.192,0.719l2.3-1.821c1.909-1.511,2.231-4.284,0.719-6.192l-0.669-0.845l1.854-0.881l22.442,28.342
			c2.014,2.544,5.709,2.973,8.253,0.959c2.544-2.014,2.973-5.709,0.959-8.253L180.073,101.366z"/>
		<path style="opacity:0.1;clip-path:url(#SVGID_00000049916160004466694240000013887800303079368321_);" d="M335.129,119.002
			l14.895-14.074c1.067-1.009,2.814-0.146,2.661,1.315l-0.775,7.393c-0.523,4.991,0.978,9.983,4.168,13.857l0.344,0.418
			c1.192,1.449,3.148,1.567,4.512,0.672l0,0l0,0c0.322-0.211,0.609-0.479,0.847-0.799c0.023-0.031,0.045-0.064,0.067-0.097
			c0.087-0.126,0.165-0.258,0.235-0.399c0.023-0.046,0.047-0.091,0.069-0.138c0.081-0.181,0.152-0.37,0.203-0.574l1.621-6.449l0,0
			l2.431-9.671c0,0,9.817-25.131,7.77-31.471l0.256,0.29l6.925-6.094l2.456,2.791L509.627-35.689L475.866-74.05L350.052,37.611
			l2.456,2.791l-6.925,6.095l0.255,0.29c-1.256-0.562-4.207-1.114-8.606,2.758L322.51,62.502l-2.906,2.558l-1.445,1.272
			l-15.22,13.396c-1.827,1.608-2.005,4.394-0.397,6.221l1.938,2.203c1.168,1.327,2.954,1.771,4.546,1.307l0.385,0.726l-1.839,1.619
			c-1.828,1.608-2.005,4.394-0.397,6.221l1.938,2.203c1.531,1.739,4.118,1.964,5.94,0.598l0.679,1.28l-2.868,2.524
			c-1.828,1.609-2.005,4.394-0.397,6.221l1.938,2.203c1.608,1.827,4.394,2.005,6.221,0.397l0.809-0.712l0.976,1.805l-27.138,23.884
			c-2.436,2.144-2.673,5.856-0.529,8.292c2.144,2.436,5.856,2.672,8.292,0.529L335.129,119.002z"/>
		<g style="clip-path:url(#SVGID_00000049916160004466694240000013887800303079368321_);">
			<path style="fill:#BA9352;" d="M418.243,269.036c-2.013-1.14-2.721-3.696-1.581-5.709c0,0,1.663-4.086-5.27-8.011l-20.435-11.571
				c-1.121-0.635-2.236-1.266-3.33-1.885l-15.256-8.638l-0.733-0.415c-2.118-1.199-4.808-0.454-6.008,1.664l-1.446,2.553
				c-0.871,1.538-0.706,3.371,0.255,4.723l-0.56,0.602l-2.132-1.207c-2.118-1.199-4.808-0.454-6.008,1.664l-1.446,2.553
				c-1.142,2.016-0.507,4.534,1.382,5.808l-0.987,1.061l-3.324-1.882c-2.118-1.2-4.808-0.454-6.008,1.664l-1.446,2.553
				c-1.199,2.118-0.454,4.808,1.664,6.008l0.938,0.531l-1.386,1.514l-31.459-17.812c-2.824-1.599-6.408-0.606-8.007,2.218l0,0
				c-1.599,2.823-0.606,6.408,2.218,8.007l37.201,21.063l18.178,9.46c1.303,0.678,1.059,2.611-0.371,2.945l-7.238,1.691
				c-4.887,1.142-9.111,4.196-11.726,8.479l-0.282,0.462c-1.457,2.385,0.421,5.413,3.205,5.168l16.557-1.455
				c0,0,30.223,1.168,32.994-3.727l0.431-0.761c1.14-2.013,3.696-2.721,5.709-1.581l121.066,68.731l15.704-27.735L418.243,269.036z"
				/>
			<path style="fill:#FFD68F;" d="M314.544,247.235l-1.442-0.816c-2.013-1.14-4.569-0.432-5.709,1.581
				c-1.14,2.013-0.432,4.569,1.581,5.709l1.442,0.816L314.544,247.235z"/>
			
				<rect x="389.314" y="278.352" transform="matrix(0.4927 -0.8702 0.8702 0.4927 -38.5447 501.8376)" style="fill:#FFFFFF;" width="43.667" height="11.253"/>
			
				<rect x="410.288" y="266.125" transform="matrix(0.4927 -0.8702 0.8702 0.4927 -24.3941 501.6576)" style="fill:#F5F5F5;" width="15.566" height="11.253"/>
			<polygon style="fill:#404040;" points="555.263,336.398 530.085,380.866 401.69,307.985 426.868,263.517 			"/>
			<polygon style="fill:#363636;" points="555.263,336.398 548.543,348.267 420.147,275.386 426.868,263.517 			"/>
			<path style="fill:#FFD68F;" d="M346.573,300.121c-0.961,0.974-1.676,2.185-2.087,3.49c0.633,0.488,1.447,0.765,2.362,0.685
				l6.624-0.582c0.13-2.179-0.576-4.395-2.016-6.069C349.619,297.916,347.878,298.799,346.573,300.121z"/>
		</g>
		<g style="clip-path:url(#SVGID_00000049916160004466694240000013887800303079368321_);">
			<path style="fill:#FFC970;" d="M120.819,298.599l1.51,2.516c1.253,2.087,3.961,2.764,6.048,1.511l39.171-23.51
				c2.087-1.253,2.764-3.96,1.511-6.048l-1.51-2.516c-1.253-2.087-3.961-2.764-6.048-1.511l-39.171,23.51
				C120.243,293.804,119.567,296.512,120.819,298.599z"/>
			<path style="fill:#FFC970;" d="M118.438,285.887l1.51,2.516c1.253,2.087,3.961,2.764,6.048,1.511l39.17-23.51
				c2.087-1.253,2.764-3.96,1.511-6.048l-1.51-2.516c-1.253-2.087-3.96-2.764-6.048-1.511l-39.171,23.509
				C117.862,281.092,117.185,283.8,118.438,285.887z"/>
			<path style="fill:#FFC970;" d="M115.542,272.318l1.51,2.516c1.253,2.087,3.961,2.764,6.048,1.511l39.17-23.51
				c2.088-1.253,2.764-3.961,1.511-6.048l-1.51-2.516c-1.253-2.087-3.96-2.764-6.048-1.511l-39.171,23.51
				C114.966,267.523,114.289,270.23,115.542,272.318z"/>
			<path style="fill:#FFC970;" d="M140.946,242.745L140.946,242.745c1.67,2.782,5.279,3.684,8.061,2.014l36.655-22
				c2.782-1.67,3.684-5.279,2.014-8.061l0,0c-1.67-2.782-5.279-3.684-8.061-2.014l-36.655,22
				C140.178,236.354,139.276,239.963,140.946,242.745z"/>
			<path style="fill:#FFD68F;" d="M183.115,222.322l1.421-0.853c1.984-1.19,2.626-3.764,1.436-5.747
				c-1.19-1.984-3.764-2.627-5.747-1.436l-1.421,0.853L183.115,222.322z"/>
			<path style="fill:#FFC970;" d="M157.561,250.268l-3.968-12.197l-10.633-3.386l-17.187,11.16c-1.232,0.8-2.794-0.364-2.38-1.773
				l2.094-7.132c1.413-4.815,0.836-9.996-1.603-14.381l-0.263-0.473c-1.358-2.443-4.918-2.3-6.077,0.244l-6.89,15.126
				c0,0-15.903,25.727-13.008,30.55l0.45,0.75c1.19,1.984,0.548,4.557-1.436,5.747l-136.651,82.832l16.402,27.328l136.651-82.832
				c1.984-1.19,4.557-0.548,5.747,1.436l0,0c0,0,2.737,3.46,9.568-0.64c6.831-4.1,38.449-23.076,38.449-23.076L157.561,250.268z"/>
			
				<rect x="81.72" y="282.668" transform="matrix(0.5146 0.8574 -0.8574 0.5146 297.4541 51.1456)" style="fill:#FFFFFF;" width="43.667" height="11.253"/>
			
				<rect x="103.001" y="294.716" transform="matrix(0.5146 0.8574 -0.8574 0.5146 311.2929 50.7933)" style="fill:#F5F5F5;" width="15.566" height="11.253"/>
			<polygon style="fill:#404040;" points="-30.256,399.22 -56.553,355.405 87.32,268.239 113.617,312.054 			"/>
			<polygon style="fill:#363636;" points="-30.256,399.22 -37.275,387.525 106.598,300.359 113.617,312.054 			"/>
			<path style="fill:#FFD68F;" d="M121.312,224.146c-0.374-1.317-1.076-2.535-2.009-3.536c-0.736,0.311-1.378,0.882-1.759,1.718
				l-2.756,6.051c1.832,1.186,4.109,1.664,6.274,1.235C121.731,227.883,121.82,225.932,121.312,224.146z"/>
		</g>
		<g style="clip-path:url(#SVGID_00000049916160004466694240000013887800303079368321_);">
			<path style="fill:#FFD896;" d="M116.839,80.644l-2.3,1.821c-1.909,1.511-2.231,4.284-0.719,6.192l28.36,35.815
				c1.511,1.909,4.284,2.231,6.192,0.719l2.3-1.821c1.909-1.511,2.231-4.284,0.719-6.192l-28.36-35.815
				C121.52,79.455,118.747,79.132,116.839,80.644z"/>
			<path style="fill:#FFD896;" d="M129.138,76.645l-2.3,1.821c-1.909,1.511-2.231,4.284-0.719,6.192l28.36,35.815
				c1.511,1.909,4.284,2.231,6.192,0.719l2.3-1.821c1.908-1.511,2.231-4.284,0.719-6.192l-28.36-35.815
				C133.819,75.455,131.047,75.133,129.138,76.645z"/>
			<path style="fill:#FFD896;" d="M142.221,72.025l-2.3,1.821c-1.909,1.511-2.231,4.284-0.719,6.192l28.36,35.815
				c1.511,1.909,4.284,2.231,6.192,0.719l2.3-1.821c1.909-1.511,2.231-4.284,0.719-6.192l-28.36-35.815
				C146.902,70.835,144.13,70.513,142.221,72.025z"/>
			<path style="fill:#FFD896;" d="M174.82,93.407L174.82,93.407c-2.544,2.014-2.973,5.709-0.959,8.253l26.539,33.515
				c2.014,2.544,5.709,2.973,8.253,0.959l0,0c2.544-2.014,2.973-5.709,0.959-8.253l-26.539-33.515
				C181.059,91.822,177.364,91.392,174.82,93.407z"/>
			<path style="fill:#FFE8C2;" d="M200.506,132.593l1.029,1.299c1.436,1.814,4.07,2.12,5.884,0.684
				c1.814-1.436,2.12-4.071,0.684-5.884l-1.029-1.299L200.506,132.593z"/>
			<path style="fill:#FFD896;" d="M169.501,110.852l11.585-5.506l1.988-10.981l-13.281-15.606c-0.952-1.118,0.001-2.817,1.452-2.589
				l7.343,1.157c4.957,0.781,10.02-0.459,14.055-3.442l0.435-0.322c2.247-1.662,1.647-5.174-1.024-5.995l-15.887-4.883
				c0,0-27.561-12.456-31.971-8.964l-0.686,0.543c-1.814,1.436-4.448,1.13-5.884-0.684L51.325-55.659L26.337-35.873l86.298,109.241
				c1.436,1.814,1.13,4.448-0.684,5.884l0,0c0,0-3.079,3.16,1.867,9.406c4.946,6.246,27.837,35.155,27.837,35.155L169.501,110.852z"
				/>
			
				<rect x="103" y="56.568" transform="matrix(-0.784 0.6208 -0.6208 -0.784 261.3087 33.4584)" style="fill:#FFFFFF;" width="43.667" height="11.253"/>
			
				<rect x="106.035" y="65.29" transform="matrix(-0.784 0.6208 -0.6208 -0.784 247.0725 55.8573)" style="fill:#F5F5F5;" width="15.566" height="11.253"/>
			<polygon style="fill:#404040;" points="11.041,-40.609 51.104,-72.332 142.63,43.512 102.568,75.235 			"/>
			<polygon style="fill:#363636;" points="11.041,-40.609 21.734,-49.076 113.261,66.768 102.568,75.235 			"/>
			<path style="fill:#FFE8C2;" d="M190.735,71.541c1.257-0.541,2.375-1.393,3.247-2.448c-0.403-0.69-1.052-1.253-1.93-1.523
				l-6.356-1.954c-0.94,1.97-1.121,4.289-0.416,6.381C187.084,72.437,189.029,72.274,190.735,71.541z"/>
		</g>
		<g style="clip-path:url(#SVGID_00000049916160004466694240000013887800303079368321_);">
			<path style="fill:#E6B464;" d="M376.12,70.406c-1.528-1.737-1.36-4.383,0.377-5.912L495.988-41.603l-21.057-23.926L355.44,40.568
				c-1.737,1.528-4.383,1.36-5.912-0.377c0,0-3.315-2.91-9.296,2.353L325.51,55.502l-2.906,2.558l-1.445,1.272l-15.22,13.396
				c-1.827,1.608-2.005,4.394-0.397,6.221l1.938,2.203c1.168,1.327,2.954,1.771,4.546,1.307l0.385,0.726l-1.839,1.619
				c-1.828,1.608-2.005,4.394-0.397,6.221l1.939,2.203c1.53,1.739,4.118,1.964,5.94,0.598l0.679,1.28l-2.868,2.524
				c-1.828,1.609-2.005,4.394-0.397,6.221l1.938,2.203c1.608,1.827,4.394,2.005,6.221,0.397l0.809-0.712l0.976,1.805l-27.138,23.884
				c-2.436,2.144-2.673,5.856-0.529,8.292c2.144,2.436,5.856,2.672,8.292,0.529l32.091-28.244l14.895-14.074
				c1.067-1.009,2.814-0.146,2.661,1.315l-0.775,7.393c-0.523,4.991,0.978,9.983,4.168,13.857l0.344,0.418
				c1.776,2.158,5.252,1.376,5.933-1.334l4.052-16.12c0,0,11.007-28.171,7.291-32.394L376.12,70.406z"/>
			<path style="fill:#FFD68F;" d="M300.859,131.397l-1.244,1.094c-1.737,1.528-1.905,4.175-0.377,5.912
				c1.528,1.737,4.175,1.906,5.912,0.377l1.244-1.095L300.859,131.397z"/>
			
				<rect x="345.399" y="46.542" transform="matrix(-0.6607 -0.7507 0.7507 -0.6607 570.6912 362.3063)" style="fill:#FFFFFF;" width="43.667" height="11.253"/>
			
				<rect x="350.166" y="35.995" transform="matrix(-0.6607 -0.7507 0.7507 -0.6607 563.1943 337.8215)" style="fill:#F5F5F5;" width="15.566" height="11.253"/>
			<polygon style="fill:#404040;" points="478.866,-81.05 512.627,-42.689 386.814,68.972 353.052,30.611 			"/>
			<polygon style="fill:#363636;" points="478.866,-81.05 487.877,-70.811 362.064,40.85 353.052,30.611 			"/>
			<path style="fill:#FFD68F;" d="M361.322,118.467c0.605,1.228,1.515,2.3,2.613,3.116c0.668-0.438,1.197-1.116,1.421-2.007
				l1.621-6.449c-2.016-0.837-4.341-0.896-6.394-0.084C360.237,114.867,360.5,116.802,361.322,118.467z"/>
		</g>
		<g style="clip-path:url(#SVGID_00000049916160004466694240000013887800303079368321_);">
			
				<text transform="matrix(1 0 0 1 124.2874 358.8734)" style="fill:#7A5632; font-family:'Roboto-Bold'; font-size:42.1298px; letter-spacing:2;">teamwork</text>
		</g>
		<g style="clip-path:url(#SVGID_00000049916160004466694240000013887800303079368321_);">
			<rect x="151.973" y="379.005" style="fill:none;" width="196.054" height="31.245"/>
			<text transform="matrix(1 0 0 1 159.8699 384.0284)"><tspan x="0" y="0" style="fill:#7A5632; font-family:'Roboto-Light'; font-size:6.6977px;">Lorem ipsum dolor sit amet, consectetur adipiscing elit. </tspan><tspan x="-3.119" y="8.037" style="fill:#7A5632; font-family:'Roboto-Light'; font-size:6.6977px;">Proin sed neque sed lorem hendrerit aliquet. Pellentesque </tspan><tspan x="-6.046" y="16.074" style="fill:#7A5632; font-family:'Roboto-Light'; font-size:6.6977px;">vehicula placerat finibus. Etiam pellentesque tincidunt sem, </tspan><tspan x="-3.624" y="24.111" style="fill:#7A5632; font-family:'Roboto-Light'; font-size:6.6977px;">a commodo justo commodo nec. In in lacus est. In aliquet </tspan></text>
		</g>
		<g style="clip-path:url(#SVGID_00000049916160004466694240000013887800303079368321_);">
			<text transform="matrix(1 0 0 1 213.5247 438.9591)" style="fill:#7A5632; font-family:'Roboto-Regular'; font-size:13.3017px;">read more</text>
			<g>
				<path style="fill:#7A5632;" d="M287.332,444.884h-74.663c-2.904,0-5.266-2.363-5.266-5.266v-10.602
					c0-2.903,2.362-5.266,5.266-5.266h74.663c2.903,0,5.266,2.363,5.266,5.266v10.602
					C292.598,442.522,290.235,444.884,287.332,444.884z M212.668,424.836c-2.305,0-4.18,1.875-4.18,4.18v10.602
					c0,2.306,1.876,4.18,4.18,4.18h74.663c2.305,0,4.18-1.875,4.18-4.18v-10.602c0-2.305-1.875-4.18-4.18-4.18H212.668z"/>
			</g>
		</g>
		
			<circle style="clip-path:url(#SVGID_00000049916160004466694240000013887800303079368321_);fill:#7C5784;" cx="250" cy="64.279" r="34.945"/>
		<path style="clip-path:url(#SVGID_00000049916160004466694240000013887800303079368321_);fill:#64476B;" d="M283.519,54.398
			c-0.233-0.793-0.49-1.575-0.777-2.343c-1.443,1.681-3.578,2.751-5.961,2.751h-4.493V39.084h1.913
			c-1.662-1.597-3.481-3.03-5.433-4.276h-2.378h-29.932v2.074h-3.838c-5.549,0-10.063,4.514-10.063,10.063
			c0,5.549,4.514,10.063,10.063,10.063h3.898c0.512,7.78,5.979,14.189,13.284,16.115v22.138h-7.314
			c-1.724,0-3.275,0.727-4.374,1.887c3.71,1.342,7.711,2.076,11.884,2.076c5.832,0,11.326-1.437,16.159-3.963h-6.831h-0.384V73.123
			c2.536-0.669,4.86-1.859,6.825-3.48c3.694-3.049,6.125-7.555,6.459-12.635h4.553C279.374,57.009,281.733,56.015,283.519,54.398z
			 M236.459,54.806h-3.838c-4.335,0-7.861-3.526-7.861-7.861c0-4.335,3.526-7.861,7.861-7.861h3.838V54.806z"/>
		
			<ellipse transform="matrix(0.1368 -0.9906 0.9906 0.1368 -180.6802 247.9648)" style="clip-path:url(#SVGID_00000049916160004466694240000013887800303079368321_);fill:#FF8640;" cx="51.945" cy="227.659" rx="34.945" ry="34.945"/>
		<path style="opacity:0.1;clip-path:url(#SVGID_00000049916160004466694240000013887800303079368321_);" d="M51.945,262.604
			c10.408,0,19.747-4.555,26.149-11.774v-33.902c0-5.34-4.329-9.668-9.669-9.668h-3.41H64.33h-5.821h-2.467h0h-1.629h-4.775h-2.467
			h-1.629h-4.877h-3.41c-0.232,0-0.458,0.019-0.686,0.035v0c-5.018,0.353-8.983,4.526-8.983,9.634v13.183h9.917h7.896h4.096v32.398
			C50.305,262.565,51.12,262.604,51.945,262.604z"/>
		
			<circle style="clip-path:url(#SVGID_00000049916160004466694240000013887800303079368321_);fill:#FF8640;" cx="448.055" cy="217.675" r="34.945"/>
		<path style="opacity:0.1;clip-path:url(#SVGID_00000049916160004466694240000013887800303079368321_);" d="M454.867,196.487
			c-7.153,0-13.533,2.92-17.707,7.482c-6.204,3.597-10.304,9.796-10.304,16.846c0,6.579,3.57,12.421,9.089,16.095l1.654,8.863
			l5.056-5.788c2.197,0.624,4.537,0.964,6.968,0.964c4.995,0,9.611-1.426,13.365-3.838l3.903,4.467l1.654-8.863
			c5.519-3.674,9.089-9.515,9.089-16.095C477.635,205.501,467.441,196.487,454.867,196.487z"/>
		<g style="clip-path:url(#SVGID_00000049916160004466694240000013887800303079368321_);">
			
				<ellipse transform="matrix(0.2049 -0.9788 0.9788 0.2049 -74.7664 183.8879)" style="fill:#FFAF4B;" cx="75.8" cy="137.963" rx="34.945" ry="34.945"/>
			
				<ellipse transform="matrix(0.0691 -0.9976 0.9976 0.0691 265.8818 543.5667)" style="fill:#4D94CB;" cx="424.2" cy="129.316" rx="34.945" ry="34.945"/>
		</g>
		<g style="opacity:0.1;clip-path:url(#SVGID_00000049916160004466694240000013887800303079368321_);">
			<path d="M82.587,150.633c0-0.674-0.05-1.336-0.14-1.986l1.964-1.505c-0.24-1.121-0.594-2.199-1.048-3.223l-2.47-0.063
				c-0.63-1.178-1.419-2.257-2.338-3.21l0.704-2.372c-0.841-0.754-1.761-1.422-2.743-1.993l-2.033,1.399
				c-1.179-0.574-2.448-0.989-3.78-1.224l-0.825-2.334c-0.557-0.057-1.122-0.086-1.694-0.086c-0.572,0-1.137,0.029-1.694,0.086
				l-0.825,2.334c-1.332,0.235-2.601,0.65-3.78,1.224l-2.033-1.399c-0.983,0.572-1.902,1.239-2.743,1.993l0.704,2.372
				c-0.919,0.954-1.708,2.032-2.338,3.21l-2.47,0.063c-0.454,1.024-0.808,2.102-1.048,3.223l1.964,1.505
				c-0.09,0.649-0.139,1.311-0.139,1.986c0,0.674,0.05,1.336,0.139,1.985l-1.964,1.505c0.24,1.121,0.594,2.199,1.048,3.223
				l2.47,0.063c0.629,1.178,1.419,2.257,2.338,3.21l-0.704,2.372c0.841,0.754,1.761,1.422,2.743,1.993l2.033-1.399
				c1.179,0.574,2.448,0.989,3.78,1.224l0.825,2.334c0.557,0.057,1.122,0.086,1.694,0.086c0.572,0,1.137-0.029,1.694-0.086
				l0.825-2.334c1.332-0.235,2.602-0.65,3.78-1.224l2.033,1.399c0.983-0.572,1.902-1.239,2.743-1.993l-0.704-2.372
				c0.919-0.954,1.708-2.032,2.338-3.21l2.47-0.063c0.454-1.024,0.808-2.102,1.048-3.223l-1.964-1.505
				C82.537,151.969,82.587,151.307,82.587,150.633z M68.186,161.579c-6.045,0-10.946-4.901-10.946-10.946
				c0-6.045,4.901-10.946,10.946-10.946c6.045,0,10.946,4.901,10.946,10.946C79.132,156.678,74.231,161.579,68.186,161.579z"/>
			<path d="M104.557,137.112c0-0.497-0.037-0.986-0.103-1.465l1.449-1.11c-0.177-0.827-0.438-1.622-0.773-2.378l-1.822-0.046
				c-0.464-0.869-1.047-1.665-1.725-2.368l0.52-1.75c-0.62-0.556-1.299-1.049-2.024-1.47l-1.5,1.032
				c-0.87-0.424-1.806-0.73-2.789-0.903l-0.608-1.722c-0.411-0.042-0.828-0.063-1.25-0.063c-0.422,0-0.839,0.021-1.25,0.063
				l-0.608,1.722c-0.983,0.173-1.919,0.48-2.789,0.903l-1.5-1.032c-0.725,0.422-1.403,0.914-2.024,1.47l0.52,1.75
				c-0.678,0.704-1.26,1.499-1.725,2.368l-1.822,0.046c-0.335,0.756-0.596,1.551-0.773,2.378l1.449,1.11
				c-0.066,0.479-0.103,0.967-0.103,1.465c0,0.497,0.037,0.986,0.103,1.465l-1.449,1.11c0.177,0.827,0.438,1.622,0.773,2.378
				l1.822,0.046c0.464,0.869,1.047,1.665,1.725,2.368l-0.52,1.75c0.62,0.556,1.299,1.049,2.024,1.471l1.5-1.032
				c0.87,0.424,1.806,0.73,2.789,0.903l0.608,1.722c0.411,0.042,0.828,0.063,1.25,0.063c0.422,0,0.839-0.021,1.25-0.063l0.608-1.722
				c0.983-0.173,1.919-0.48,2.789-0.903l1.5,1.032c0.725-0.422,1.403-0.914,2.024-1.471l-0.52-1.75
				c0.678-0.704,1.26-1.499,1.725-2.368l1.822-0.046c0.335-0.756,0.596-1.551,0.773-2.378l-1.449-1.11
				C104.52,138.097,104.557,137.609,104.557,137.112z M93.932,145.187c-4.46,0-8.075-3.615-8.075-8.075
				c0-4.46,3.615-8.075,8.075-8.075c4.46,0,8.075,3.616,8.075,8.075C102.007,141.572,98.392,145.187,93.932,145.187z"/>
			<path d="M85.193,121.153c0-0.497-0.037-0.986-0.103-1.465l1.449-1.11c-0.177-0.827-0.438-1.622-0.773-2.378l-1.822-0.047
				c-0.464-0.869-1.047-1.665-1.725-2.368l0.52-1.75c-0.62-0.557-1.299-1.049-2.024-1.471l-1.5,1.032
				c-0.87-0.424-1.806-0.73-2.789-0.903l-0.608-1.722c-0.411-0.042-0.828-0.063-1.25-0.063s-0.839,0.021-1.25,0.063l-0.608,1.722
				c-0.983,0.174-1.919,0.48-2.789,0.903l-1.499-1.032c-0.725,0.422-1.403,0.914-2.024,1.471l0.52,1.75
				c-0.678,0.704-1.26,1.499-1.725,2.368l-1.822,0.047c-0.335,0.756-0.596,1.551-0.773,2.378l1.449,1.11
				c-0.066,0.479-0.103,0.967-0.103,1.465c0,0.497,0.037,0.986,0.103,1.465l-1.449,1.11c0.177,0.827,0.438,1.622,0.773,2.378
				l1.822,0.046c0.464,0.869,1.047,1.665,1.725,2.368l-0.52,1.75c0.621,0.557,1.299,1.049,2.024,1.471l1.499-1.032
				c0.869,0.424,1.806,0.73,2.789,0.903l0.608,1.722c0.411,0.042,0.828,0.063,1.25,0.063s0.839-0.021,1.25-0.063l0.608-1.722
				c0.983-0.173,1.919-0.48,2.789-0.903l1.5,1.032c0.725-0.422,1.403-0.914,2.024-1.471l-0.52-1.75
				c0.678-0.704,1.26-1.499,1.725-2.368l1.822-0.046c0.335-0.756,0.596-1.551,0.773-2.378l-1.449-1.11
				C85.157,122.139,85.193,121.65,85.193,121.153z M74.569,129.228c-4.46,0-8.075-3.615-8.075-8.075c0-4.46,3.616-8.075,8.075-8.075
				c4.46,0,8.075,3.616,8.075,8.075C82.644,125.613,79.029,129.228,74.569,129.228z"/>
		</g>
		<g style="clip-path:url(#SVGID_00000049916160004466694240000013887800303079368321_);">
			<g>
				<g>
					<path style="fill:#FFCD49;" d="M272.448,54.675h-11.612V34.549h11.612c5.549,0,10.063,4.514,10.063,10.063
						C282.511,50.161,277.997,54.675,272.448,54.675z M263.038,52.473h9.41c4.335,0,7.861-3.526,7.861-7.861
						s-3.526-7.861-7.861-7.861h-9.41V52.473z"/>
				</g>
				<g>
					<path style="fill:#FFCD49;" d="M218.224,44.612c0-5.549,4.514-10.063,10.063-10.063H239.9v20.127h-11.612
						C222.738,54.675,218.224,50.161,218.224,44.612z M237.697,36.751h-9.41c-4.335,0-7.861,3.526-7.861,7.861
						s3.526,7.861,7.861,7.861h9.41V36.751z"/>
				</g>
			</g>
			<rect x="245.47" y="66.83" style="fill:#CCA43B;" width="9.142" height="27.13"/>
			<rect x="250.889" y="66.83" style="fill:#B59235;" width="3.723" height="27.13"/>
			<path style="fill:#FFCD49;" d="M250.041,71.401L250.041,71.401c-9.894,0-17.915-8.021-17.915-17.915V32.475h35.829v21.011
				C267.955,63.38,259.935,71.401,250.041,71.401z"/>
			<path style="fill:#E0B440;" d="M262.057,32.475v21.011c0,8.887-6.478,16.243-14.966,17.652c0.962,0.16,1.942,0.263,2.949,0.263h0
				c9.894,0,17.915-8.021,17.915-17.915V32.475H262.057z"/>
			<path style="fill:#FFCD49;" d="M261.925,92.928h-23.769c-3.331,0-6.03,2.7-6.03,6.03l0,0h35.829l0,0
				C267.955,95.628,265.255,92.928,261.925,92.928z"/>
			<path style="fill:#E0B440;" d="M261.925,92.928h-6.93c3.33,0,6.03,2.7,6.03,6.03h6.93
				C267.955,95.628,265.255,92.928,261.925,92.928z"/>
		</g>
		<path style="opacity:0.1;clip-path:url(#SVGID_00000049916160004466694240000013887800303079368321_);" d="M449.263,124.006
			c0-10.347-8.954-18.734-20-18.734c-0.663,0-1.317,0.033-1.963,0.093c-0.361,0.033-0.712,0.094-1.067,0.145
			c-0.255,0.037-0.516,0.059-0.768,0.104c0.005,0.001,0.01,0.003,0.015,0.004c-9.236,1.657-16.218,9.255-16.218,18.389
			c0,7.617,4.856,17.254,11.824,21.811c-0.719,0.487-1.192,1.311-1.192,2.245v5.97c0,1.497,1.214,2.711,2.711,2.711h1.405
			c0.825,1.74,2.583,2.952,4.637,2.952h0.468c2.054,0,3.812-1.212,4.637-2.952h1.405c1.497,0,2.711-1.214,2.711-2.711v-5.97
			c0-0.778-0.332-1.474-0.856-1.968C444.21,141.658,449.263,131.778,449.263,124.006z"/>
		<g style="clip-path:url(#SVGID_00000049916160004466694240000013887800303079368321_);">
			<path style="fill:#FFCD49;" d="M445.096,120.839c0,10.347-8.954,24.43-20,24.43c-11.046,0-20-14.084-20-24.43
				s8.954-18.734,20-18.734C436.142,102.105,445.096,110.493,445.096,120.839z"/>
			<path style="fill:#E0B440;" d="M425.096,102.105c-1.299,0-2.567,0.12-3.797,0.342c9.229,1.662,16.202,9.263,16.202,18.393
				c0,9.13-6.974,21.163-16.202,23.869c1.23,0.361,2.499,0.562,3.797,0.562c11.046,0,20-14.084,20-24.43
				S436.142,102.105,425.096,102.105z"/>
			<path style="fill:#A37E54;" d="M430.094,151.384h-10.757l0,0c0,2.841,2.303,5.144,5.144,5.144h0.468
				C427.791,156.529,430.094,154.225,430.094,151.384L430.094,151.384z"/>
			<path style="fill:#54412B;" d="M430.992,153.577H418.44c-1.497,0-2.711-1.214-2.711-2.711v-5.97c0-1.497,1.214-2.711,2.711-2.711
				h12.552c1.497,0,2.711,1.214,2.711,2.711v5.97C433.704,152.363,432.49,153.577,430.992,153.577z"/>
		</g>
		<g style="clip-path:url(#SVGID_00000049916160004466694240000013887800303079368321_);">
			<path style="fill:#D1D1D1;" d="M423.356,216.149c0-11.12,10.193-20.134,22.768-20.134c12.574,0,22.768,9.014,22.768,20.134
				c0,11.12-10.193,20.134-22.768,20.134c-2.431,0-4.772-0.34-6.968-0.964l-5.056,5.788l-1.655-8.863
				C426.926,228.569,423.356,222.728,423.356,216.149z"/>
			<path style="fill:#B5B5B5;" d="M468.891,216.149c0-11.12-10.193-20.134-22.768-20.134c-3.516,0-6.846,0.706-9.819,1.965
				c-5.327,3.685-8.754,9.418-8.754,15.862c0,11.12,10.193,20.134,22.768,20.134c2.431,0,4.772-0.34,6.968-0.964l0.413,0.473
				C464.397,229.98,468.891,223.53,468.891,216.149z"/>
			<path style="fill:#FFFFFF;" d="M474.135,211.954c0-11.12-10.193-20.134-22.768-20.134c-12.574,0-22.768,9.014-22.768,20.134
				c0,11.12,10.194,20.134,22.768,20.134c2.431,0,4.771-0.34,6.968-0.964l5.056,5.788l1.654-8.863
				C470.565,224.375,474.135,218.534,474.135,211.954z"/>
		</g>
		<g style="clip-path:url(#SVGID_00000049916160004466694240000013887800303079368321_);">
			<path style="fill:#FFF7EE;" d="M81.254,149.133c0-0.674-0.05-1.336-0.14-1.986l1.964-1.505c-0.24-1.121-0.594-2.199-1.048-3.223
				l-2.47-0.063c-0.63-1.178-1.419-2.257-2.338-3.21l0.704-2.372c-0.841-0.754-1.761-1.422-2.743-1.993l-2.033,1.399
				c-1.179-0.574-2.448-0.989-3.78-1.224l-0.825-2.334c-0.557-0.057-1.122-0.086-1.694-0.086c-0.572,0-1.137,0.029-1.694,0.086
				l-0.825,2.334c-1.332,0.235-2.601,0.65-3.78,1.224l-2.033-1.399c-0.983,0.572-1.902,1.239-2.743,1.993l0.704,2.372
				c-0.919,0.954-1.708,2.032-2.338,3.21l-2.47,0.063c-0.454,1.024-0.808,2.102-1.048,3.223l1.964,1.505
				c-0.09,0.649-0.139,1.311-0.139,1.986c0,0.674,0.05,1.336,0.139,1.985l-1.964,1.505c0.24,1.121,0.594,2.199,1.048,3.223
				l2.47,0.063c0.629,1.178,1.419,2.257,2.338,3.21l-0.704,2.372c0.841,0.754,1.761,1.422,2.743,1.993l2.033-1.399
				c1.179,0.574,2.448,0.989,3.78,1.224l0.825,2.334c0.557,0.057,1.122,0.086,1.694,0.086c0.572,0,1.137-0.029,1.694-0.086
				l0.825-2.334c1.332-0.235,2.601-0.65,3.78-1.224l2.033,1.399c0.983-0.572,1.902-1.239,2.743-1.993l-0.704-2.372
				c0.919-0.954,1.708-2.032,2.338-3.21l2.47-0.063c0.454-1.024,0.808-2.102,1.048-3.223l-1.964-1.505
				C81.204,150.469,81.254,149.807,81.254,149.133z M66.852,160.079c-6.045,0-10.946-4.901-10.946-10.946
				c0-6.045,4.901-10.946,10.946-10.946c6.045,0,10.946,4.901,10.946,10.946C77.798,155.178,72.897,160.079,66.852,160.079z"/>
			<path style="fill:#FFF7EE;" d="M103.223,135.612c0-0.497-0.037-0.986-0.103-1.465l1.449-1.11
				c-0.177-0.827-0.438-1.622-0.773-2.378l-1.822-0.046c-0.464-0.869-1.047-1.665-1.725-2.368l0.52-1.75
				c-0.62-0.556-1.299-1.049-2.024-1.47l-1.5,1.032c-0.87-0.424-1.806-0.73-2.789-0.903l-0.608-1.722
				c-0.411-0.042-0.828-0.063-1.25-0.063s-0.839,0.021-1.25,0.063l-0.608,1.722c-0.983,0.173-1.919,0.48-2.789,0.903l-1.5-1.032
				c-0.725,0.422-1.403,0.914-2.024,1.47l0.52,1.75c-0.678,0.704-1.26,1.499-1.725,2.368l-1.822,0.046
				c-0.335,0.756-0.596,1.551-0.773,2.378l1.449,1.11c-0.066,0.479-0.103,0.967-0.103,1.465c0,0.497,0.037,0.986,0.103,1.465
				l-1.449,1.11c0.177,0.827,0.438,1.622,0.773,2.378l1.822,0.046c0.464,0.869,1.047,1.665,1.725,2.368l-0.52,1.75
				c0.621,0.556,1.299,1.049,2.024,1.471l1.5-1.032c0.87,0.424,1.806,0.73,2.789,0.903l0.608,1.722
				c0.411,0.042,0.828,0.063,1.25,0.063s0.839-0.021,1.25-0.063l0.608-1.722c0.983-0.173,1.919-0.48,2.789-0.903l1.5,1.032
				c0.725-0.422,1.403-0.914,2.024-1.471l-0.52-1.75c0.678-0.704,1.26-1.499,1.725-2.368l1.822-0.046
				c0.335-0.756,0.596-1.551,0.773-2.378l-1.449-1.11C103.186,136.597,103.223,136.109,103.223,135.612z M92.599,143.687
				c-4.46,0-8.075-3.615-8.075-8.075c0-4.46,3.615-8.075,8.075-8.075s8.075,3.616,8.075,8.075
				C100.674,140.072,97.059,143.687,92.599,143.687z"/>
			<path style="fill:#FFF7EE;" d="M83.86,119.653c0-0.497-0.037-0.986-0.103-1.465l1.449-1.11c-0.177-0.827-0.438-1.622-0.773-2.378
				l-1.822-0.047c-0.464-0.869-1.047-1.665-1.725-2.368l0.52-1.75c-0.62-0.557-1.299-1.049-2.024-1.471l-1.5,1.032
				c-0.869-0.424-1.806-0.73-2.789-0.903l-0.608-1.722c-0.411-0.042-0.828-0.063-1.25-0.063c-0.422,0-0.839,0.021-1.25,0.063
				l-0.608,1.722c-0.983,0.174-1.919,0.48-2.789,0.903l-1.499-1.032c-0.725,0.422-1.403,0.914-2.024,1.471l0.52,1.75
				c-0.678,0.704-1.26,1.499-1.725,2.368l-1.822,0.047c-0.335,0.756-0.596,1.551-0.773,2.378l1.449,1.11
				c-0.066,0.479-0.103,0.967-0.103,1.465c0,0.497,0.037,0.986,0.103,1.465l-1.449,1.11c0.177,0.827,0.438,1.622,0.773,2.378
				l1.822,0.046c0.464,0.869,1.047,1.665,1.725,2.368l-0.52,1.75c0.62,0.557,1.299,1.049,2.024,1.471l1.499-1.032
				c0.87,0.424,1.806,0.73,2.789,0.903l0.608,1.722c0.411,0.042,0.828,0.063,1.25,0.063c0.422,0,0.839-0.021,1.25-0.063l0.608-1.722
				c0.983-0.173,1.919-0.48,2.789-0.903l1.5,1.032c0.725-0.422,1.403-0.914,2.024-1.471l-0.52-1.75
				c0.678-0.704,1.26-1.499,1.725-2.368l1.822-0.046c0.335-0.756,0.596-1.551,0.773-2.378l-1.449-1.11
				C83.823,120.639,83.86,120.15,83.86,119.653z M73.236,127.728c-4.46,0-8.075-3.615-8.075-8.075c0-4.46,3.615-8.075,8.075-8.075
				c4.46,0,8.075,3.616,8.075,8.075C81.311,124.113,77.696,127.728,73.236,127.728z"/>
		</g>
		<g style="clip-path:url(#SVGID_00000049916160004466694240000013887800303079368321_);">
			<path style="fill:#86AECC;" d="M34.755,204.509h9.917h8.871h8.973v0.042c-4.946,0.426-8.83,4.57-8.83,9.626v13.183h-0.144h-18.54
				h-9.917l0-13.183C25.086,208.838,29.415,204.509,34.755,204.509z"/>
			<path style="fill:#7598B3;" d="M34.069,204.552c4.946,0.426,8.83,4.57,8.83,9.626v13.183h10.644h0.144v-13.183
				c0-5.057,3.884-9.2,8.83-9.626v-0.008c-0.228-0.016-0.454-0.035-0.686-0.035h-8.288h-1.629h-7.242h-1.629h-8.287
				c-0.232,0-0.458,0.019-0.686,0.035V204.552z"/>
			<path style="fill:#9CCAED;" d="M65.926,204.509h-9.917h-8.871h-8.973v0.042c4.946,0.426,8.83,4.57,8.83,9.626v48.071
				c1.618,0.23,3.27,0.355,4.951,0.355c9.123,0,17.426-3.499,23.649-9.224v-39.203C75.595,208.838,71.266,204.509,65.926,204.509z"
				/>
			<path style="fill:#86AECC;" d="M70.816,216.438H52.707c-0.655,0-1.186-0.531-1.186-1.186l0,0c0-0.655,0.531-1.186,1.186-1.186
				h18.109c0.655,0,1.186,0.531,1.186,1.186l0,0C72.002,215.907,71.471,216.438,70.816,216.438z"/>
			<path style="fill:#86AECC;" d="M70.816,222.905H52.707c-0.655,0-1.186-0.531-1.186-1.186l0,0c0-0.655,0.531-1.186,1.186-1.186
				h18.109c0.655,0,1.186,0.531,1.186,1.186l0,0C72.002,222.375,71.471,222.905,70.816,222.905z"/>
			<path style="fill:#86AECC;" d="M70.816,229.373H52.707c-0.655,0-1.186-0.531-1.186-1.186l0,0c0-0.655,0.531-1.186,1.186-1.186
				h18.109c0.655,0,1.186,0.531,1.186,1.186l0,0C72.002,228.842,71.471,229.373,70.816,229.373z"/>
			<path style="fill:#86AECC;" d="M70.816,235.84H52.707c-0.655,0-1.186-0.531-1.186-1.186l0,0c0-0.655,0.531-1.186,1.186-1.186
				h18.109c0.655,0,1.186,0.531,1.186,1.186l0,0C72.002,235.309,71.471,235.84,70.816,235.84z"/>
			<path style="fill:#86AECC;" d="M70.816,242.308H52.707c-0.655,0-1.186-0.531-1.186-1.186l0,0c0-0.655,0.531-1.186,1.186-1.186
				h18.109c0.655,0,1.186,0.531,1.186,1.186l0,0C72.002,241.777,71.471,242.308,70.816,242.308z"/>
			<path style="fill:#86AECC;" d="M70.816,248.775H52.707c-0.655,0-1.186-0.531-1.186-1.186l0,0c0-0.655,0.531-1.186,1.186-1.186
				h18.109c0.655,0,1.186,0.531,1.186,1.186l0,0C72.002,248.244,71.471,248.775,70.816,248.775z"/>
			<path style="fill:#86AECC;" d="M70.816,255.242H52.707c-0.655,0-1.186-0.531-1.186-1.186l0,0c0-0.655,0.531-1.186,1.186-1.186
				h18.109c0.655,0,1.186,0.531,1.186,1.186l0,0C72.002,254.712,71.471,255.242,70.816,255.242z"/>
		</g>
	</g>
</g>
<g id="DESIGNED_BY_FREEPIK">
	<g>
		<g>
			<g>
				<path style="fill:#7A5632;" d="M178.765,483.929v-0.161c-0.218,0.249-0.433,0.452-0.644,0.608
					c-0.212,0.157-0.441,0.276-0.689,0.357c-0.247,0.082-0.517,0.122-0.81,0.122c-0.388,0-0.747-0.082-1.078-0.246
					c-0.33-0.164-0.616-0.399-0.857-0.704c-0.242-0.305-0.425-0.662-0.549-1.074c-0.124-0.412-0.187-0.857-0.187-1.335
					c0-1.013,0.247-1.804,0.742-2.369c0.495-0.565,1.146-0.848,1.953-0.848c0.467,0,0.861,0.081,1.181,0.24
					c0.321,0.161,0.633,0.408,0.938,0.739v-2.392c0-0.333,0.066-0.583,0.199-0.754c0.132-0.17,0.321-0.255,0.567-0.255
					c0.245,0,0.434,0.078,0.567,0.234c0.133,0.157,0.199,0.386,0.199,0.691v7.147c0,0.309-0.071,0.54-0.214,0.694
					c-0.142,0.154-0.326,0.231-0.552,0.231c-0.221,0-0.405-0.08-0.549-0.24C178.837,484.453,178.765,484.225,178.765,483.929z
					 M175.577,481.548c0,0.439,0.068,0.813,0.205,1.122c0.137,0.309,0.324,0.541,0.561,0.697c0.238,0.157,0.497,0.236,0.778,0.236
					c0.285,0,0.545-0.075,0.781-0.223c0.235-0.148,0.423-0.376,0.564-0.682c0.141-0.307,0.21-0.691,0.21-1.149
					c0-0.432-0.07-0.803-0.21-1.114c-0.14-0.31-0.33-0.547-0.57-0.712c-0.24-0.164-0.502-0.245-0.786-0.245
					c-0.297,0-0.562,0.084-0.795,0.252c-0.234,0.168-0.415,0.409-0.543,0.724C175.641,480.767,175.577,481.132,175.577,481.548z"/>
				<path style="fill:#7A5632;" d="M185.911,481.958h-3.169c0.004,0.367,0.078,0.692,0.223,0.973
					c0.144,0.281,0.336,0.493,0.576,0.635c0.24,0.143,0.504,0.213,0.793,0.213c0.194,0,0.371-0.022,0.531-0.067
					c0.16-0.046,0.315-0.117,0.466-0.214c0.15-0.096,0.289-0.201,0.415-0.312c0.126-0.111,0.29-0.262,0.493-0.452
					c0.083-0.071,0.202-0.107,0.357-0.107c0.166,0,0.3,0.046,0.403,0.137c0.103,0.091,0.155,0.219,0.155,0.386
					c0,0.147-0.058,0.317-0.172,0.513c-0.116,0.196-0.289,0.384-0.52,0.564c-0.232,0.18-0.522,0.329-0.873,0.448
					c-0.35,0.119-0.753,0.178-1.208,0.178c-1.04,0-1.85-0.297-2.428-0.891c-0.578-0.593-0.866-1.399-0.866-2.416
					c0-0.479,0.071-0.923,0.213-1.332c0.143-0.41,0.351-0.761,0.623-1.054c0.273-0.293,0.609-0.517,1.009-0.674
					c0.4-0.156,0.843-0.234,1.33-0.234c0.633,0,1.176,0.133,1.629,0.4c0.454,0.267,0.793,0.612,1.019,1.035
					c0.225,0.424,0.339,0.856,0.339,1.294c0,0.408-0.117,0.672-0.35,0.794C186.664,481.897,186.335,481.958,185.911,481.958z
					 M182.742,481.038h2.939c-0.039-0.554-0.189-0.969-0.448-1.244c-0.259-0.275-0.6-0.413-1.024-0.413
					c-0.404,0-0.735,0.139-0.994,0.418C182.954,480.078,182.798,480.492,182.742,481.038z"/>
				<path style="fill:#7A5632;" d="M193.296,482.735c0,0.447-0.108,0.831-0.327,1.149c-0.217,0.319-0.539,0.56-0.965,0.724
					c-0.425,0.164-0.943,0.246-1.552,0.246c-0.582,0-1.08-0.089-1.496-0.267c-0.415-0.178-0.722-0.401-0.92-0.667
					c-0.198-0.268-0.297-0.535-0.297-0.805c0-0.178,0.063-0.33,0.19-0.457c0.126-0.126,0.287-0.19,0.481-0.19
					c0.17,0,0.3,0.042,0.391,0.124c0.091,0.083,0.179,0.2,0.261,0.35c0.166,0.29,0.366,0.504,0.597,0.648
					c0.231,0.142,0.547,0.214,0.947,0.214c0.324,0,0.59-0.073,0.798-0.217c0.207-0.145,0.311-0.31,0.311-0.496
					c0-0.285-0.107-0.492-0.324-0.622c-0.216-0.131-0.571-0.256-1.066-0.375c-0.558-0.138-1.012-0.284-1.362-0.436
					c-0.35-0.151-0.63-0.353-0.84-0.602c-0.21-0.25-0.315-0.557-0.315-0.92c0-0.324,0.097-0.631,0.291-0.92
					c0.194-0.288,0.48-0.519,0.858-0.691c0.377-0.173,0.833-0.259,1.368-0.259c0.419,0,0.797,0.043,1.131,0.131
					c0.335,0.086,0.614,0.204,0.837,0.35c0.224,0.146,0.394,0.308,0.51,0.486c0.117,0.178,0.175,0.352,0.175,0.523
					c0,0.186-0.062,0.338-0.186,0.457c-0.124,0.118-0.301,0.178-0.531,0.178c-0.166,0-0.308-0.048-0.424-0.143
					c-0.117-0.095-0.25-0.237-0.401-0.427c-0.123-0.158-0.266-0.285-0.433-0.38c-0.166-0.095-0.392-0.142-0.677-0.142
					c-0.293,0-0.536,0.062-0.73,0.187c-0.194,0.124-0.291,0.279-0.291,0.465c0,0.171,0.071,0.31,0.213,0.419
					c0.143,0.109,0.334,0.2,0.576,0.27c0.241,0.071,0.573,0.158,0.997,0.261c0.502,0.123,0.912,0.27,1.231,0.439
					c0.318,0.17,0.56,0.371,0.725,0.603C193.214,482.174,193.296,482.438,193.296,482.735z"/>
				<path style="fill:#7A5632;" d="M194.951,477.512c-0.225,0-0.418-0.07-0.579-0.208c-0.16-0.138-0.24-0.334-0.24-0.588
					c0-0.23,0.082-0.418,0.246-0.567s0.356-0.223,0.573-0.223c0.21,0,0.396,0.067,0.558,0.202c0.162,0.135,0.244,0.33,0.244,0.588
					c0,0.25-0.08,0.444-0.238,0.585C195.357,477.441,195.169,477.512,194.951,477.512z M195.753,479.185v4.683
					c0,0.325-0.077,0.571-0.232,0.737c-0.155,0.166-0.35,0.249-0.588,0.249c-0.238,0-0.431-0.085-0.579-0.255
					c-0.149-0.17-0.222-0.414-0.222-0.731v-4.636c0-0.32,0.074-0.561,0.222-0.724c0.148-0.162,0.341-0.244,0.579-0.244
					c0.238,0,0.433,0.081,0.588,0.244C195.676,478.671,195.753,478.897,195.753,479.185z"/>
				<path style="fill:#7A5632;" d="M202.852,479.453v4.707c0,0.538-0.058,1.001-0.173,1.39c-0.114,0.387-0.298,0.708-0.552,0.961
					c-0.253,0.253-0.585,0.441-0.994,0.563c-0.41,0.123-0.919,0.184-1.529,0.184c-0.558,0-1.056-0.078-1.496-0.234
					c-0.439-0.157-0.777-0.358-1.015-0.605c-0.237-0.247-0.356-0.502-0.356-0.763c0-0.198,0.068-0.359,0.202-0.483
					c0.134-0.125,0.297-0.187,0.486-0.187c0.238,0,0.445,0.105,0.624,0.314c0.087,0.107,0.177,0.216,0.27,0.324
					c0.093,0.109,0.197,0.202,0.309,0.279c0.113,0.076,0.248,0.134,0.406,0.172c0.158,0.037,0.341,0.056,0.546,0.056
					c0.42,0,0.745-0.058,0.977-0.175c0.232-0.117,0.394-0.28,0.487-0.49c0.093-0.209,0.147-0.433,0.163-0.673
					c0.016-0.24,0.027-0.624,0.035-1.155c-0.25,0.349-0.537,0.615-0.864,0.797c-0.326,0.182-0.715,0.273-1.166,0.273
					c-0.542,0-1.016-0.138-1.422-0.416c-0.405-0.277-0.717-0.665-0.934-1.163c-0.218-0.499-0.326-1.074-0.326-1.727
					c0-0.487,0.066-0.927,0.198-1.318c0.133-0.392,0.322-0.723,0.567-0.992c0.245-0.269,0.528-0.472,0.849-0.609
					c0.32-0.136,0.673-0.204,1.057-0.204c0.459,0,0.857,0.089,1.193,0.264c0.336,0.177,0.649,0.453,0.938,0.829v-0.22
					c0-0.281,0.069-0.498,0.208-0.653c0.139-0.154,0.317-0.231,0.535-0.231c0.313,0,0.52,0.103,0.623,0.306
					C202.8,478.775,202.852,479.069,202.852,479.453z M198.156,481.507c0,0.657,0.143,1.154,0.43,1.49
					c0.287,0.337,0.658,0.505,1.113,0.505c0.269,0,0.523-0.073,0.762-0.217c0.24-0.145,0.435-0.362,0.585-0.653
					c0.15-0.291,0.226-0.644,0.226-1.06c0-0.66-0.145-1.176-0.436-1.543c-0.291-0.368-0.674-0.552-1.149-0.552
					c-0.463,0-0.834,0.176-1.113,0.529C198.296,480.357,198.156,480.858,198.156,481.507z"/>
				<path style="fill:#7A5632;" d="M205.427,479.162v0.196c0.285-0.376,0.596-0.652,0.935-0.828
					c0.338-0.176,0.727-0.264,1.166-0.264c0.428,0,0.809,0.093,1.146,0.28c0.336,0.186,0.588,0.449,0.754,0.789
					c0.107,0.198,0.176,0.413,0.208,0.642c0.032,0.23,0.048,0.522,0.048,0.879v3.015c0,0.325-0.074,0.571-0.223,0.737
					c-0.148,0.166-0.341,0.249-0.579,0.249c-0.242,0-0.437-0.085-0.588-0.255c-0.151-0.17-0.226-0.414-0.226-0.731v-2.701
					c0-0.534-0.074-0.943-0.223-1.226c-0.149-0.283-0.444-0.425-0.888-0.425c-0.288,0-0.552,0.086-0.789,0.258
					c-0.237,0.173-0.412,0.409-0.522,0.71c-0.079,0.242-0.119,0.692-0.119,1.353v2.03c0,0.328-0.077,0.576-0.228,0.74
					c-0.152,0.164-0.349,0.246-0.59,0.246c-0.234,0-0.426-0.085-0.576-0.255c-0.15-0.17-0.226-0.414-0.226-0.731v-4.683
					c0-0.309,0.067-0.54,0.202-0.692c0.135-0.152,0.319-0.228,0.552-0.228c0.143,0,0.272,0.034,0.387,0.101
					c0.114,0.068,0.207,0.168,0.276,0.302C205.393,478.803,205.427,478.968,205.427,479.162z"/>
				<path style="fill:#7A5632;" d="M215.286,481.958h-3.169c0.004,0.367,0.078,0.692,0.223,0.973
					c0.144,0.281,0.336,0.493,0.576,0.635c0.239,0.143,0.503,0.213,0.792,0.213c0.194,0,0.371-0.022,0.532-0.067
					c0.16-0.046,0.315-0.117,0.466-0.214c0.15-0.096,0.288-0.201,0.416-0.312c0.126-0.111,0.29-0.262,0.492-0.452
					c0.083-0.071,0.202-0.107,0.356-0.107c0.166,0,0.301,0.046,0.404,0.137c0.103,0.091,0.154,0.219,0.154,0.386
					c0,0.147-0.057,0.317-0.172,0.513c-0.115,0.196-0.288,0.384-0.52,0.564c-0.232,0.18-0.522,0.329-0.872,0.448
					c-0.35,0.119-0.753,0.178-1.208,0.178c-1.041,0-1.85-0.297-2.428-0.891c-0.577-0.593-0.866-1.399-0.866-2.416
					c0-0.479,0.071-0.923,0.214-1.332c0.142-0.41,0.351-0.761,0.624-1.054c0.273-0.293,0.609-0.517,1.009-0.674
					c0.4-0.156,0.843-0.234,1.33-0.234c0.633,0,1.176,0.133,1.629,0.4c0.453,0.267,0.793,0.612,1.019,1.035
					c0.225,0.424,0.339,0.856,0.339,1.294c0,0.408-0.117,0.672-0.35,0.794C216.039,481.897,215.71,481.958,215.286,481.958z
					 M212.117,481.038h2.938c-0.039-0.554-0.189-0.969-0.448-1.244c-0.259-0.275-0.601-0.413-1.024-0.413
					c-0.404,0-0.736,0.139-0.995,0.418C212.329,480.078,212.173,480.492,212.117,481.038z"/>
				<path style="fill:#7A5632;" d="M221.893,483.929v-0.161c-0.218,0.249-0.432,0.452-0.644,0.608
					c-0.212,0.157-0.441,0.276-0.688,0.357c-0.247,0.082-0.517,0.122-0.81,0.122c-0.388,0-0.747-0.082-1.077-0.246
					c-0.33-0.164-0.617-0.399-0.858-0.704c-0.242-0.305-0.424-0.662-0.549-1.074c-0.125-0.412-0.187-0.857-0.187-1.335
					c0-1.013,0.247-1.804,0.742-2.369c0.495-0.565,1.146-0.848,1.953-0.848c0.467,0,0.861,0.081,1.181,0.24
					c0.32,0.161,0.633,0.408,0.938,0.739v-2.392c0-0.333,0.066-0.583,0.199-0.754c0.132-0.17,0.322-0.255,0.567-0.255
					c0.245,0,0.434,0.078,0.567,0.234c0.132,0.157,0.199,0.386,0.199,0.691v7.147c0,0.309-0.071,0.54-0.214,0.694
					c-0.143,0.154-0.326,0.231-0.552,0.231c-0.222,0-0.405-0.08-0.549-0.24C221.965,484.453,221.893,484.225,221.893,483.929z
					 M218.705,481.548c0,0.439,0.068,0.813,0.204,1.122c0.136,0.309,0.324,0.541,0.561,0.697c0.237,0.157,0.496,0.236,0.777,0.236
					c0.285,0,0.546-0.075,0.781-0.223c0.236-0.148,0.424-0.376,0.564-0.682c0.141-0.307,0.211-0.691,0.211-1.149
					c0-0.432-0.07-0.803-0.211-1.114c-0.14-0.31-0.33-0.547-0.57-0.712c-0.24-0.164-0.502-0.245-0.787-0.245
					c-0.296,0-0.562,0.084-0.795,0.252c-0.233,0.168-0.414,0.409-0.543,0.724C218.769,480.767,218.705,481.132,218.705,481.548z"/>
				<path style="fill:#7A5632;" d="M228.516,476.781v2.475c0.305-0.316,0.615-0.559,0.932-0.727
					c0.316-0.168,0.709-0.252,1.176-0.252c0.538,0,1.01,0.128,1.416,0.382c0.405,0.256,0.72,0.626,0.944,1.111
					c0.223,0.484,0.336,1.06,0.336,1.725c0,0.491-0.063,0.94-0.187,1.35c-0.125,0.41-0.306,0.765-0.543,1.065
					c-0.238,0.301-0.525,0.534-0.864,0.698c-0.339,0.164-0.712,0.246-1.119,0.246c-0.25,0-0.484-0.029-0.703-0.089
					c-0.22-0.059-0.407-0.137-0.561-0.234c-0.154-0.096-0.286-0.197-0.395-0.3c-0.109-0.103-0.253-0.258-0.431-0.463v0.161
					c0,0.305-0.073,0.535-0.22,0.692c-0.146,0.156-0.332,0.234-0.558,0.234c-0.23,0-0.413-0.078-0.549-0.234
					c-0.137-0.157-0.205-0.388-0.205-0.692v-7.077c0-0.328,0.066-0.577,0.198-0.745c0.133-0.168,0.318-0.252,0.555-0.252
					c0.25,0,0.441,0.08,0.576,0.24C228.449,476.256,228.516,476.484,228.516,476.781z M228.594,481.596
					c0,0.645,0.147,1.14,0.442,1.486c0.295,0.347,0.682,0.521,1.161,0.521c0.407,0,0.759-0.177,1.053-0.532
					c0.295-0.355,0.442-0.862,0.442-1.523c0-0.427-0.061-0.796-0.184-1.104c-0.123-0.309-0.297-0.548-0.522-0.715
					c-0.226-0.168-0.489-0.252-0.79-0.252c-0.309,0-0.584,0.084-0.825,0.252c-0.241,0.168-0.431,0.411-0.57,0.73
					C228.663,480.777,228.594,481.156,228.594,481.596z"/>
				<path style="fill:#7A5632;" d="M235.42,485.056l0.148-0.363l-1.995-5.022c-0.122-0.288-0.184-0.499-0.184-0.629
					c0-0.139,0.036-0.267,0.107-0.385c0.071-0.119,0.169-0.214,0.294-0.285c0.125-0.072,0.255-0.107,0.389-0.107
					c0.233,0,0.409,0.075,0.529,0.223c0.119,0.148,0.223,0.361,0.314,0.638l1.371,3.989l1.3-3.71c0.102-0.3,0.196-0.536,0.279-0.706
					c0.083-0.17,0.171-0.285,0.264-0.344c0.093-0.06,0.225-0.09,0.395-0.09c0.123,0,0.24,0.032,0.353,0.098
					c0.113,0.065,0.199,0.153,0.261,0.264c0.061,0.111,0.092,0.227,0.092,0.35c-0.016,0.075-0.042,0.182-0.077,0.321
					c-0.036,0.138-0.079,0.279-0.13,0.421l-2.113,5.533c-0.182,0.487-0.36,0.868-0.535,1.145c-0.174,0.277-0.404,0.491-0.691,0.638
					c-0.287,0.149-0.674,0.223-1.161,0.223c-0.475,0-0.831-0.051-1.068-0.154c-0.238-0.104-0.356-0.292-0.356-0.565
					c0-0.185,0.056-0.33,0.169-0.43c0.112-0.101,0.28-0.152,0.501-0.152c0.087,0,0.173,0.012,0.256,0.037
					c0.103,0.023,0.192,0.035,0.267,0.035c0.186,0,0.333-0.027,0.44-0.084c0.106-0.055,0.202-0.151,0.288-0.288
					C235.211,485.523,235.309,485.321,235.42,485.056z"/>
			</g>
			<g>
				<path style="fill:#7A5632;" d="M258.897,478.405h0.386v-0.487c0-0.509,0.062-0.911,0.192-1.211
					c0.128-0.299,0.347-0.516,0.654-0.653c0.306-0.135,0.727-0.204,1.26-0.204c0.95,0,1.42,0.229,1.42,0.696
					c0,0.149-0.049,0.278-0.15,0.385c-0.096,0.106-0.214,0.16-0.348,0.16c-0.062,0-0.174-0.012-0.33-0.037
					c-0.148-0.021-0.283-0.035-0.389-0.035c-0.292,0-0.479,0.088-0.566,0.259c-0.079,0.172-0.122,0.418-0.122,0.74v0.386h0.395
					c0.62,0,0.926,0.186,0.926,0.56c0,0.262-0.079,0.432-0.245,0.503c-0.164,0.071-0.39,0.107-0.681,0.107h-0.395v4.294
					c0,0.319-0.075,0.563-0.231,0.73c-0.151,0.17-0.346,0.254-0.589,0.254c-0.229,0-0.419-0.084-0.574-0.254
					c-0.153-0.167-0.228-0.411-0.228-0.73v-4.294h-0.446c-0.243,0-0.427-0.052-0.558-0.164c-0.131-0.107-0.197-0.25-0.197-0.424
					C258.082,478.598,258.354,478.405,258.897,478.405"/>
				<path style="fill:#7A5632;" d="M264.203,482.514v1.355c0,0.327-0.083,0.574-0.234,0.737c-0.154,0.166-0.349,0.247-0.586,0.247
					c-0.239,0-0.43-0.082-0.579-0.25c-0.148-0.165-0.225-0.41-0.225-0.734v-4.514c0-0.729,0.263-1.093,0.788-1.093
					c0.271,0,0.464,0.084,0.583,0.255c0.118,0.171,0.184,0.421,0.198,0.755c0.192-0.334,0.39-0.584,0.593-0.755
					c0.208-0.171,0.477-0.255,0.819-0.255c0.343,0,0.67,0.084,0.991,0.255c0.322,0.171,0.482,0.398,0.482,0.678
					c0,0.197-0.069,0.363-0.204,0.488c-0.137,0.131-0.284,0.195-0.441,0.195c-0.062,0-0.207-0.039-0.433-0.112
					c-0.228-0.071-0.43-0.108-0.602-0.108c-0.237,0-0.433,0.064-0.582,0.186c-0.151,0.128-0.269,0.311-0.353,0.554
					c-0.081,0.247-0.137,0.541-0.17,0.878C264.217,481.615,264.203,482.028,264.203,482.514"/>
				<path style="fill:#7A5632;" d="M271.653,481.956h-3.171c0.005,0.367,0.078,0.694,0.221,0.974
					c0.147,0.279,0.337,0.491,0.578,0.635c0.241,0.142,0.502,0.212,0.793,0.212c0.194,0,0.37-0.021,0.531-0.07
					c0.159-0.043,0.316-0.116,0.466-0.213c0.151-0.095,0.287-0.199,0.415-0.313c0.126-0.109,0.292-0.26,0.494-0.449
					c0.084-0.071,0.203-0.109,0.355-0.109c0.168,0,0.301,0.046,0.406,0.139c0.104,0.092,0.152,0.219,0.152,0.386
					c0,0.147-0.056,0.317-0.167,0.512c-0.117,0.198-0.289,0.385-0.522,0.566c-0.234,0.178-0.524,0.33-0.874,0.446
					c-0.35,0.119-0.754,0.179-1.207,0.179c-1.044,0-1.853-0.295-2.429-0.889c-0.577-0.595-0.87-1.401-0.87-2.418
					c0-0.479,0.073-0.924,0.217-1.334c0.14-0.411,0.349-0.76,0.624-1.055c0.272-0.294,0.606-0.518,1.008-0.674
					c0.398-0.156,0.842-0.234,1.33-0.234c0.632,0,1.176,0.134,1.629,0.404c0.452,0.264,0.796,0.61,1.018,1.034
					c0.226,0.425,0.339,0.855,0.339,1.296c0,0.405-0.118,0.669-0.351,0.791C272.405,481.896,272.077,481.956,271.653,481.956
					 M268.482,481.035h2.938c-0.039-0.553-0.186-0.969-0.446-1.241c-0.261-0.277-0.599-0.413-1.025-0.413
					c-0.403,0-0.736,0.137-0.995,0.418C268.695,480.078,268.536,480.489,268.482,481.035"/>
				<path style="fill:#7A5632;" d="M278.395,481.956h-3.171c0.004,0.367,0.078,0.694,0.222,0.974
					c0.145,0.279,0.337,0.491,0.576,0.635c0.239,0.142,0.503,0.212,0.795,0.212c0.192,0,0.371-0.021,0.528-0.07
					c0.162-0.043,0.316-0.116,0.469-0.213c0.151-0.095,0.288-0.199,0.415-0.313c0.125-0.109,0.29-0.26,0.493-0.449
					c0.084-0.071,0.204-0.109,0.355-0.109c0.168,0,0.302,0.046,0.406,0.139c0.103,0.092,0.15,0.219,0.15,0.386
					c0,0.147-0.054,0.317-0.171,0.512c-0.111,0.198-0.285,0.385-0.519,0.566c-0.231,0.178-0.525,0.33-0.872,0.446
					c-0.348,0.119-0.755,0.179-1.209,0.179c-1.042,0-1.849-0.295-2.429-0.889c-0.577-0.595-0.868-1.401-0.868-2.418
					c0-0.479,0.073-0.924,0.217-1.334c0.142-0.411,0.349-0.76,0.623-1.055c0.272-0.294,0.608-0.518,1.009-0.674
					c0.398-0.156,0.844-0.234,1.331-0.234c0.63,0,1.174,0.134,1.633,0.404c0.45,0.264,0.791,0.61,1.013,1.034
					c0.225,0.425,0.341,0.855,0.341,1.296c0,0.405-0.12,0.669-0.351,0.791C279.145,481.896,278.818,481.956,278.395,481.956
					 M275.224,481.035h2.938c-0.04-0.553-0.19-0.969-0.447-1.241c-0.263-0.277-0.601-0.413-1.027-0.413
					c-0.403,0-0.735,0.137-0.996,0.418C275.436,480.078,275.277,480.489,275.224,481.035"/>
				<path style="fill:#7A5632;" d="M281.945,479.174v0.194c0.304-0.375,0.621-0.651,0.953-0.828
					c0.324-0.178,0.699-0.267,1.114-0.267c0.497,0,0.96,0.13,1.379,0.386c0.419,0.259,0.749,0.635,0.993,1.129
					c0.244,0.497,0.366,1.081,0.366,1.758c0,0.497-0.07,0.957-0.21,1.376c-0.14,0.417-0.336,0.767-0.58,1.05
					c-0.246,0.281-0.535,0.501-0.868,0.654c-0.339,0.151-0.695,0.227-1.08,0.227c-0.461,0-0.853-0.093-1.166-0.279
					c-0.314-0.182-0.614-0.458-0.901-0.816v2.433c0,0.71-0.26,1.069-0.778,1.069c-0.306,0-0.505-0.091-0.607-0.275
					c-0.095-0.187-0.146-0.452-0.146-0.807v-6.996c0-0.309,0.066-0.537,0.2-0.692c0.134-0.15,0.32-0.228,0.553-0.228
					c0.231,0,0.416,0.078,0.56,0.234C281.874,478.654,281.945,478.877,281.945,479.174 M285.123,481.529
					c0-0.428-0.067-0.796-0.197-1.102c-0.131-0.308-0.312-0.542-0.541-0.705c-0.229-0.164-0.489-0.248-0.77-0.248
					c-0.446,0-0.824,0.178-1.13,0.527c-0.308,0.354-0.462,0.872-0.462,1.558c0,0.642,0.153,1.146,0.46,1.504
					c0.305,0.358,0.679,0.536,1.133,0.536c0.268,0,0.519-0.079,0.748-0.233c0.232-0.158,0.416-0.392,0.552-0.704
					C285.053,482.35,285.123,481.971,285.123,481.529"/>
				<path style="fill:#7A5632;" d="M288.383,477.508c-0.227,0-0.418-0.071-0.577-0.209c-0.162-0.139-0.242-0.333-0.242-0.585
					c0-0.23,0.082-0.419,0.248-0.569c0.164-0.147,0.354-0.222,0.571-0.222c0.212,0,0.397,0.067,0.559,0.2
					c0.162,0.137,0.244,0.334,0.244,0.591c0,0.25-0.079,0.444-0.236,0.585C288.79,477.436,288.602,477.508,288.383,477.508
					 M289.185,479.182v4.689c0,0.322-0.077,0.568-0.231,0.732c-0.156,0.168-0.35,0.25-0.588,0.25c-0.238,0-0.428-0.084-0.58-0.254
					c-0.146-0.173-0.222-0.416-0.222-0.729v-4.642c0-0.319,0.076-0.559,0.222-0.721c0.152-0.165,0.342-0.245,0.58-0.245
					c0.238,0,0.432,0.079,0.588,0.245C289.108,478.669,289.185,478.896,289.185,479.182"/>
				<path style="fill:#7A5632;" d="M294.41,484.113l-1.428-2.354l-0.88,0.83v1.291c0,0.312-0.083,0.551-0.248,0.718
					c-0.16,0.17-0.354,0.254-0.566,0.254c-0.249,0-0.447-0.082-0.588-0.25c-0.142-0.165-0.215-0.41-0.215-0.734v-6.915
					c0-0.358,0.071-0.632,0.207-0.821c0.139-0.19,0.341-0.283,0.596-0.283c0.25,0,0.446,0.085,0.593,0.257
					c0.147,0.169,0.221,0.421,0.221,0.751v3.933l1.823-1.914c0.227-0.235,0.396-0.4,0.517-0.486c0.118-0.087,0.262-0.13,0.431-0.13
					c0.204,0,0.371,0.065,0.51,0.193c0.132,0.129,0.2,0.291,0.2,0.483c0,0.237-0.221,0.555-0.659,0.951l-0.861,0.789l1.662,2.614
					c0.121,0.196,0.212,0.34,0.265,0.441c0.053,0.099,0.081,0.2,0.081,0.289c0,0.258-0.071,0.459-0.213,0.61
					c-0.14,0.148-0.327,0.221-0.554,0.221c-0.198,0-0.352-0.051-0.458-0.16C294.739,484.585,294.591,484.391,294.41,484.113"/>
				<path style="fill:#7A5632;" d="M297.932,484.853c-0.245,0-0.455-0.079-0.634-0.238c-0.178-0.156-0.268-0.379-0.268-0.665
					c0-0.241,0.086-0.449,0.256-0.622c0.172-0.174,0.38-0.262,0.63-0.262c0.248,0,0.459,0.087,0.639,0.258
					c0.174,0.172,0.264,0.383,0.264,0.626c0,0.283-0.089,0.505-0.264,0.662C298.376,484.775,298.169,484.853,297.932,484.853"/>
				<path style="fill:#7A5632;" d="M305.993,482.847c0,0.2-0.06,0.418-0.182,0.646c-0.12,0.231-0.305,0.449-0.553,0.656
					c-0.247,0.207-0.557,0.377-0.934,0.502c-0.375,0.126-0.8,0.192-1.269,0.192c-1.004,0-1.786-0.293-2.349-0.876
					c-0.56-0.585-0.841-1.368-0.841-2.35c0-0.667,0.128-1.254,0.387-1.765c0.255-0.509,0.628-0.905,1.113-1.184
					c0.487-0.28,1.072-0.419,1.746-0.419c0.421,0,0.805,0.061,1.158,0.184c0.35,0.122,0.645,0.282,0.891,0.474
					c0.242,0.197,0.428,0.402,0.556,0.62c0.129,0.22,0.192,0.426,0.192,0.617c0,0.192-0.071,0.357-0.214,0.492
					c-0.147,0.134-0.322,0.203-0.524,0.203c-0.137,0-0.249-0.035-0.338-0.104c-0.09-0.07-0.19-0.181-0.299-0.339
					c-0.198-0.299-0.404-0.526-0.622-0.674c-0.214-0.152-0.488-0.226-0.821-0.226c-0.476,0-0.865,0.186-1.159,0.561
					c-0.292,0.372-0.439,0.887-0.439,1.534c0,0.305,0.039,0.587,0.114,0.842c0.073,0.255,0.182,0.472,0.325,0.652
					c0.144,0.179,0.315,0.316,0.516,0.409c0.203,0.096,0.425,0.141,0.665,0.141c0.326,0,0.604-0.075,0.836-0.225
					c0.235-0.151,0.439-0.38,0.616-0.689c0.099-0.182,0.205-0.324,0.318-0.427c0.114-0.102,0.256-0.156,0.422-0.156
					c0.198,0,0.363,0.077,0.491,0.227C305.927,482.516,305.993,482.678,305.993,482.847"/>
				<path style="fill:#7A5632;" d="M312.988,481.559c0,0.481-0.076,0.928-0.222,1.337c-0.154,0.408-0.37,0.758-0.656,1.049
					c-0.284,0.293-0.626,0.518-1.02,0.675c-0.4,0.154-0.844,0.234-1.337,0.234c-0.491,0-0.933-0.08-1.326-0.239
					c-0.389-0.156-0.732-0.384-1.016-0.676c-0.288-0.298-0.505-0.646-0.657-1.048c-0.143-0.402-0.219-0.846-0.219-1.332
					c0-0.491,0.077-0.941,0.224-1.349c0.151-0.409,0.368-0.757,0.649-1.046c0.282-0.289,0.621-0.511,1.019-0.669
					c0.402-0.156,0.844-0.234,1.326-0.234c0.49,0,0.936,0.078,1.337,0.239c0.399,0.157,0.739,0.384,1.027,0.674
					c0.286,0.297,0.502,0.643,0.65,1.045C312.913,480.627,312.988,481.07,312.988,481.559 M311.36,481.559
					c0-0.662-0.146-1.176-0.436-1.543c-0.289-0.372-0.681-0.555-1.171-0.555c-0.317,0-0.597,0.082-0.839,0.246
					c-0.242,0.163-0.425,0.406-0.556,0.728c-0.131,0.321-0.197,0.696-0.197,1.124c0,0.424,0.064,0.792,0.193,1.108
					c0.13,0.319,0.314,0.561,0.553,0.729c0.241,0.167,0.522,0.253,0.845,0.253c0.49,0,0.882-0.185,1.171-0.557
					C311.214,482.723,311.36,482.21,311.36,481.559"/>
				<path style="fill:#7A5632;" d="M319.17,481.678v2.154c0,0.342-0.075,0.595-0.231,0.767c-0.156,0.17-0.357,0.255-0.611,0.255
					c-0.245,0-0.446-0.085-0.595-0.255c-0.154-0.173-0.232-0.425-0.232-0.767v-2.582c0-0.408-0.013-0.726-0.04-0.953
					c-0.029-0.221-0.105-0.41-0.226-0.552c-0.123-0.147-0.318-0.22-0.582-0.22c-0.532,0-0.879,0.181-1.048,0.551
					c-0.167,0.36-0.254,0.883-0.254,1.567v2.189c0,0.336-0.076,0.591-0.226,0.765c-0.156,0.171-0.355,0.258-0.603,0.258
					c-0.247,0-0.448-0.087-0.604-0.258c-0.157-0.173-0.235-0.428-0.235-0.765v-4.637c0-0.306,0.07-0.538,0.209-0.694
					c0.143-0.161,0.329-0.239,0.556-0.239c0.223,0,0.407,0.077,0.557,0.222c0.148,0.149,0.222,0.354,0.222,0.615v0.153
					c0.283-0.334,0.584-0.582,0.903-0.738c0.323-0.162,0.676-0.241,1.071-0.241c0.407,0,0.757,0.082,1.049,0.244
					c0.294,0.163,0.533,0.41,0.725,0.735c0.275-0.33,0.568-0.577,0.881-0.738c0.313-0.16,0.658-0.241,1.039-0.241
					c0.441,0,0.826,0.089,1.146,0.262c0.319,0.174,0.558,0.425,0.717,0.747c0.138,0.295,0.206,0.756,0.206,1.385v3.164
					c0,0.342-0.076,0.595-0.229,0.767c-0.154,0.17-0.359,0.255-0.612,0.255c-0.247,0-0.446-0.087-0.603-0.258
					c-0.156-0.173-0.235-0.428-0.235-0.765v-2.726c0-0.349-0.015-0.627-0.043-0.836c-0.029-0.211-0.11-0.388-0.239-0.529
					c-0.133-0.142-0.332-0.215-0.596-0.215c-0.214,0-0.416,0.066-0.609,0.192c-0.192,0.124-0.342,0.298-0.45,0.508
					C319.231,480.5,319.17,480.984,319.17,481.678"/>
			</g>
			<g>
				<path style="fill:#7A5632;" d="M243.729,481.167c-0.001-0.003-0.001-0.006-0.001-0.011
					C243.728,481.161,243.728,481.164,243.729,481.167z"/>
				<path style="fill:#7A5632;" d="M243.811,481.685c0.001,0,0.001,0,0.001,0c-0.031-0.148-0.055-0.294-0.074-0.439
					C243.758,481.392,243.782,481.539,243.811,481.685z"/>
				<path style="fill:#7A5632;" d="M244.348,483.189c-0.004-0.006-0.007-0.013-0.011-0.021
					C244.341,483.175,244.344,483.183,244.348,483.189z"/>
				<path style="fill:#7A5632;" d="M244.296,483.089c-0.014-0.027-0.027-0.056-0.041-0.084
					C244.269,483.034,244.282,483.061,244.296,483.089z"/>
				<path style="fill:#7A5632;" d="M243.962,482.264c0.079,0.25,0.175,0.493,0.286,0.724c-0.113-0.236-0.206-0.479-0.283-0.724
					C243.964,482.264,243.963,482.264,243.962,482.264z"/>
				<path style="fill:#7A5632;" d="M250.003,474.956c0.313,0,0.544,0.025,0.809,0.069l0.075-0.477c0,0-0.732-0.225-1.694-0.146
					l-0.076-0.259c0.299-0.063,0.524-0.329,0.524-0.646c0-0.364-0.296-0.659-0.661-0.659c-0.364,0-0.66,0.295-0.66,0.659
					c0,0.317,0.224,0.584,0.522,0.646l0.084,0.289c-1.021,0.14-1.834,0.539-1.834,0.539l0.144,0.441
					c0.618-0.206,1.154-0.331,1.64-0.383C249.353,474.978,249.711,474.956,250.003,474.956z"/>
				<path style="fill:#7A5632;" d="M244.335,477.368l0.004-0.005c0.024-0.031,0.047-0.06,0.071-0.089l-0.196-0.141l-0.305-0.223
					c-0.017,0.024-0.497,0.465-0.876,1.28c-0.016-0.026-0.035-0.051-0.056-0.074c-0.113-0.124-0.272-0.187-0.474-0.184
					c-0.003,0-0.006,0-0.009,0c-0.125,0-0.211-0.042-0.267-0.092c0.056-0.071,0.089-0.16,0.089-0.258
					c0-0.23-0.187-0.418-0.418-0.418c-0.23,0-0.418,0.188-0.418,0.418c0,0.231,0.187,0.418,0.418,0.418
					c0.036,0,0.071-0.006,0.104-0.013c0.103,0.114,0.266,0.214,0.505,0.209c0.123-0.001,0.213,0.03,0.273,0.097
					c0.069,0.076,0.093,0.185,0.1,0.267c-0.001,0.001-0.001,0.003-0.002,0.003c-0.272,0.743-0.194,1.669-0.194,1.669l0.661,0.026
					c0.014-0.337,0.062-0.927,0.232-1.394C243.907,477.958,244.319,477.392,244.335,477.368z"/>
				<path style="fill:#7A5632;" d="M255.753,475.509c-0.23,0-0.418,0.187-0.418,0.418c0,0.036,0.006,0.07,0.015,0.103
					c-0.115,0.104-0.214,0.267-0.211,0.507c0.002,0.123-0.03,0.212-0.096,0.273c-0.053,0.047-0.12,0.072-0.185,0.088
					c-0.492-0.689-1.098-1.11-1.098-1.11l-0.474,0.508c0.358,0.326,0.725,0.734,1.08,1.244c0.246,0.352,0.499,0.806,0.71,1.259
					l0.64-0.304c0,0-0.292-0.722-0.704-1.37c0.071-0.025,0.143-0.064,0.207-0.12c0.125-0.113,0.187-0.273,0.183-0.474
					c-0.001-0.13,0.041-0.218,0.093-0.276c0.071,0.054,0.16,0.089,0.258,0.089c0.232,0,0.419-0.187,0.419-0.418
					C256.171,475.695,255.984,475.509,255.753,475.509z"/>
				<path style="fill:#7A5632;" d="M254.092,481.26c-0.881,0.429-2.33,0.996-4.238,1.262c-0.749,0.104-1.475,0.142-2.143,0.142
					c-0.869,0-1.637-0.065-2.227-0.139c-0.673-0.085-1.198-0.189-1.52-0.261c0.077,0.245,0.171,0.488,0.283,0.724
					c0.002,0.006,0.005,0.013,0.008,0.017c0.013,0.027,0.027,0.056,0.041,0.084c0.013,0.027,0.027,0.054,0.04,0.079
					c0.004,0.007,0.007,0.015,0.011,0.021c0.189,0.356,0.417,0.684,0.675,0.968c0.9,0.984,1.817,1.14,1.826,1.141l0.014,0.002
					l0.013,0.005c0.008,0.003,0.821,0.266,2.057,0.266c1.216,0,2.409-0.245,3.546-0.729c0.842-0.431,1.639-1.085,2.034-1.669
					c0.305-0.452,0.526-0.933,0.656-1.434c0.069-0.266,0.124-0.692,0.092-1.141C255.014,480.764,254.622,481.002,254.092,481.26z"/>
				<path style="fill:#7A5632;" d="M244.618,477.577c-0.026,0.037-0.408,0.578-0.709,1.408c-0.226,0.622-0.216,1.527-0.216,1.538
					v0.002c0,0.212,0.012,0.423,0.035,0.632c0,0.005,0,0.008,0.001,0.011c0.002,0.027,0.007,0.052,0.009,0.079
					c0.019,0.145,0.043,0.291,0.074,0.439c0.438,0.111,3.049,0.72,5.968,0.314c1.829-0.255,3.218-0.795,4.062-1.204
					c0.701-0.34,1.151-0.648,1.325-0.774c-0.173-0.643-0.651-1.65-1.089-2.279c-1.253-1.791-2.604-2.25-3.298-2.365
					c-0.265-0.043-0.477-0.068-0.777-0.068c-0.28,0-0.626,0.022-1.089,0.071c-0.465,0.048-0.982,0.17-1.583,0.372
					c-0.842,0.282-1.605,0.724-2.204,1.28l-0.02,0.019C245.017,477.133,244.832,477.305,244.618,477.577z M252.287,477.16
					c0.601,0,1.089,0.488,1.089,1.089c0,0.601-0.489,1.09-1.089,1.09c-0.601,0-1.089-0.489-1.089-1.09
					C251.198,477.648,251.686,477.16,252.287,477.16z M247.136,477.116c0.973,0,1.761,0.789,1.761,1.761
					c0,0.972-0.788,1.759-1.761,1.759c-0.972,0-1.76-0.787-1.76-1.759C245.376,477.905,246.164,477.116,247.136,477.116z"/>
			</g>
		</g>
	</g>
</g>
</svg>
